<?xml version="1.0" encoding="utf-8" standalone="no"?>
<!DOCTYPE svg PUBLIC "-//W3C//DTD SVG 1.1//EN"
  "http://www.w3.org/Graphics/SVG/1.1/DTD/svg11.dtd">
<!-- Created with matplotlib (https://matplotlib.org/) -->
<svg height="576pt" version="1.1" viewBox="0 0 864 576" width="864pt" xmlns="http://www.w3.org/2000/svg" xmlns:xlink="http://www.w3.org/1999/xlink">
 <metadata>
  <rdf:RDF xmlns:cc="http://creativecommons.org/ns#" xmlns:dc="http://purl.org/dc/elements/1.1/" xmlns:rdf="http://www.w3.org/1999/02/22-rdf-syntax-ns#">
   <cc:Work>
    <dc:type rdf:resource="http://purl.org/dc/dcmitype/StillImage"/>
    <dc:date>2022-02-09T19:30:33.742410</dc:date>
    <dc:format>image/svg+xml</dc:format>
    <dc:creator>
     <cc:Agent>
      <dc:title>Matplotlib v3.3.2, https://matplotlib.org/</dc:title>
     </cc:Agent>
    </dc:creator>
   </cc:Work>
  </rdf:RDF>
 </metadata>
 <defs>
  <style type="text/css">*{stroke-linecap:butt;stroke-linejoin:round;}</style>
 </defs>
 <g id="figure_1">
  <g id="patch_1">
   <path d="M 0 576 
L 864 576 
L 864 0 
L 0 0 
z
" style="fill:none;"/>
  </g>
  <g id="axes_1">
   <g id="patch_2">
    <path d="M 108 504 
L 777.6 504 
L 777.6 69.12 
L 108 69.12 
z
" style="fill:#ffffff;"/>
   </g>
   <g id="matplotlib.axis_1">
    <g id="xtick_1">
     <g id="line2d_1">
      <defs>
       <path d="M 0 0 
L 0 3.5 
" id="mddd746dee9" style="stroke:#000000;stroke-width:0.8;"/>
      </defs>
      <g>
       <use style="stroke:#000000;stroke-width:0.8;" x="108" xlink:href="#mddd746dee9" y="504"/>
      </g>
     </g>
     <g id="line2d_2">
      <defs>
       <path d="M 0 0 
L 0 -3.5 
" id="me76e6831e7" style="stroke:#000000;stroke-width:0.8;"/>
      </defs>
      <g>
       <use style="stroke:#000000;stroke-width:0.8;" x="108" xlink:href="#me76e6831e7" y="69.12"/>
      </g>
     </g>
     <g id="text_1">
      <!-- $\mathdefault{1.1}$ -->
      <g transform="translate(94.967406 526.093242)scale(0.22 -0.22)">
       <defs>
        <path d="M 26.59375 63.796875 
C 26.59375 65.890625 26.5 66 25.09375 66 
C 21.203125 61.359375 15.296875 59.890625 9.703125 59.6875 
C 9.40625 59.6875 8.90625 59.6875 8.796875 59.5 
C 8.703125 59.296875 8.703125 59.09375 8.703125 57 
C 11.796875 57 17 57.59375 21 59.984375 
L 21 7.296875 
C 21 3.796875 20.796875 2.59375 12.203125 2.59375 
L 9.203125 2.59375 
L 9.203125 0 
C 14 0.09375 19 0.1875 23.796875 0.1875 
C 28.59375 0.1875 33.59375 0.09375 38.40625 0 
L 38.40625 2.59375 
L 35.40625 2.59375 
C 26.796875 2.59375 26.59375 3.6875 26.59375 7.296875 
z
" id="CMR17-49"/>
        <path d="M 18.40625 4.796875 
C 18.40625 7.6875 16 9.6875 13.59375 9.6875 
C 10.703125 9.6875 8.703125 7.296875 8.703125 4.890625 
C 8.703125 2 11.09375 0 13.5 0 
C 16.40625 0 18.40625 2.390625 18.40625 4.796875 
z
" id="CMMI12-58"/>
       </defs>
       <use transform="scale(0.996264)" xlink:href="#CMR17-49"/>
       <use transform="translate(45.690477 0)scale(0.996264)" xlink:href="#CMMI12-58"/>
       <use transform="translate(72.787654 0)scale(0.996264)" xlink:href="#CMR17-49"/>
      </g>
     </g>
    </g>
    <g id="xtick_2">
     <g id="line2d_3">
      <g>
       <use style="stroke:#000000;stroke-width:0.8;" x="184.090909" xlink:href="#mddd746dee9" y="504"/>
      </g>
     </g>
     <g id="line2d_4">
      <g>
       <use style="stroke:#000000;stroke-width:0.8;" x="184.090909" xlink:href="#me76e6831e7" y="69.12"/>
      </g>
     </g>
     <g id="text_2">
      <!-- $\mathdefault{1.2}$ -->
      <g transform="translate(171.058315 526.093242)scale(0.22 -0.22)">
       <defs>
        <path d="M 41.703125 15.46875 
L 39.90625 15.46875 
C 38.90625 8.390625 38.09375 7.1875 37.703125 6.59375 
C 37.203125 5.796875 30 5.796875 28.59375 5.796875 
L 9.40625 5.796875 
C 13 9.6875 20 16.765625 28.5 24.9375 
C 34.59375 30.71875 41.703125 37.5 41.703125 47.390625 
C 41.703125 59.1875 32.296875 66 21.796875 66 
C 10.796875 66 4.09375 56.296875 4.09375 47.296875 
C 4.09375 43.390625 7 42.890625 8.203125 42.890625 
C 9.203125 42.890625 12.203125 43.484375 12.203125 46.984375 
C 12.203125 50.09375 9.59375 51 8.203125 51 
C 7.59375 51 7 50.890625 6.59375 50.6875 
C 8.5 59.1875 14.296875 63.390625 20.40625 63.390625 
C 29.09375 63.390625 34.796875 56.5 34.796875 47.390625 
C 34.796875 38.703125 29.703125 31.21875 24 24.734375 
L 4.09375 2.296875 
L 4.09375 0 
L 39.296875 0 
z
" id="CMR17-50"/>
       </defs>
       <use transform="scale(0.996264)" xlink:href="#CMR17-49"/>
       <use transform="translate(45.690477 0)scale(0.996264)" xlink:href="#CMMI12-58"/>
       <use transform="translate(72.787654 0)scale(0.996264)" xlink:href="#CMR17-50"/>
      </g>
     </g>
    </g>
    <g id="xtick_3">
     <g id="line2d_5">
      <g>
       <use style="stroke:#000000;stroke-width:0.8;" x="260.181818" xlink:href="#mddd746dee9" y="504"/>
      </g>
     </g>
     <g id="line2d_6">
      <g>
       <use style="stroke:#000000;stroke-width:0.8;" x="260.181818" xlink:href="#me76e6831e7" y="69.12"/>
      </g>
     </g>
     <g id="text_3">
      <!-- $\mathdefault{1.3}$ -->
      <g transform="translate(247.149224 526.093242)scale(0.22 -0.22)">
       <defs>
        <path d="M 22.09375 34 
C 31 34 34.90625 26.140625 34.90625 17.09375 
C 34.90625 5.03125 28.5 0.390625 22.703125 0.390625 
C 17.40625 0.390625 8.796875 3.015625 6.09375 10.796875 
C 6.59375 10.59375 7.09375 10.59375 7.59375 10.59375 
C 10 10.59375 11.796875 12.1875 11.796875 14.796875 
C 11.796875 17.6875 9.59375 19 7.59375 19 
C 5.90625 19 3.296875 18.1875 3.296875 14.484375 
C 3.296875 5.234375 12.296875 -2 22.90625 -2 
C 34 -2 42.5 6.75 42.5 16.984375 
C 42.5 26.84375 34.5 34 25 35.09375 
C 32.59375 36.671875 39.90625 43.375 39.90625 52.390625 
C 39.90625 60.25 32 66 23 66 
C 13.90625 66 5.90625 60.34375 5.90625 52.296875 
C 5.90625 48.796875 8.5 48.1875 9.796875 48.1875 
C 11.90625 48.1875 13.703125 49.484375 13.703125 52.09375 
C 13.703125 54.6875 11.90625 56 9.796875 56 
C 9.40625 56 8.90625 56 8.5 55.796875 
C 11.40625 62.484375 19.296875 63.6875 22.796875 63.6875 
C 26.296875 63.6875 32.90625 61.96875 32.90625 52.296875 
C 32.90625 49.484375 32.5 44.546875 29.09375 40.21875 
C 26.09375 36.390625 22.703125 36.1875 19.40625 35.890625 
C 18.90625 35.890625 16.59375 35.6875 16.203125 35.6875 
C 15.5 35.59375 15.09375 35.5 15.09375 34.796875 
C 15.09375 34.09375 15.203125 34 17.203125 34 
z
" id="CMR17-51"/>
       </defs>
       <use transform="scale(0.996264)" xlink:href="#CMR17-49"/>
       <use transform="translate(45.690477 0)scale(0.996264)" xlink:href="#CMMI12-58"/>
       <use transform="translate(72.787654 0)scale(0.996264)" xlink:href="#CMR17-51"/>
      </g>
     </g>
    </g>
    <g id="xtick_4">
     <g id="line2d_7">
      <g>
       <use style="stroke:#000000;stroke-width:0.8;" x="336.272727" xlink:href="#mddd746dee9" y="504"/>
      </g>
     </g>
     <g id="line2d_8">
      <g>
       <use style="stroke:#000000;stroke-width:0.8;" x="336.272727" xlink:href="#me76e6831e7" y="69.12"/>
      </g>
     </g>
     <g id="text_4">
      <!-- $\mathdefault{1.4}$ -->
      <g transform="translate(323.240133 526.093242)scale(0.22 -0.22)">
       <defs>
        <path d="M 33.59375 64.796875 
C 33.59375 66.890625 33.5 67 31.703125 67 
L 2 19.59375 
L 2 17 
L 27.796875 17 
L 27.796875 7.1875 
C 27.796875 3.59375 27.59375 2.59375 20.59375 2.59375 
L 18.703125 2.59375 
L 18.703125 0 
C 21.90625 0.1875 27.296875 0.1875 30.703125 0.1875 
C 34.09375 0.1875 39.5 0.1875 42.703125 0 
L 42.703125 2.59375 
L 40.796875 2.59375 
C 33.796875 2.59375 33.59375 3.59375 33.59375 7.1875 
L 33.59375 17 
L 43.796875 17 
L 43.796875 19.59375 
L 33.59375 19.59375 
z
M 28.09375 58.171875 
L 28.09375 19.59375 
L 4 19.59375 
z
" id="CMR17-52"/>
       </defs>
       <use transform="scale(0.996264)" xlink:href="#CMR17-49"/>
       <use transform="translate(45.690477 0)scale(0.996264)" xlink:href="#CMMI12-58"/>
       <use transform="translate(72.787654 0)scale(0.996264)" xlink:href="#CMR17-52"/>
      </g>
     </g>
    </g>
    <g id="xtick_5">
     <g id="line2d_9">
      <g>
       <use style="stroke:#000000;stroke-width:0.8;" x="412.363636" xlink:href="#mddd746dee9" y="504"/>
      </g>
     </g>
     <g id="line2d_10">
      <g>
       <use style="stroke:#000000;stroke-width:0.8;" x="412.363636" xlink:href="#me76e6831e7" y="69.12"/>
      </g>
     </g>
     <g id="text_5">
      <!-- $\mathdefault{1.5}$ -->
      <g transform="translate(399.331042 526.093242)scale(0.22 -0.22)">
       <defs>
        <path d="M 11.40625 58.59375 
C 12.40625 58.1875 16.5 56.890625 20.703125 56.890625 
C 30 56.890625 35.09375 61.890625 38 64.6875 
C 38 65.484375 38 66 37.40625 66 
C 37.296875 66 37.09375 66 36.296875 65.59375 
C 32.796875 64.09375 28.703125 63 23.703125 63 
C 20.703125 63 16.203125 63.359375 11.296875 65.484375 
C 10.203125 66 10 66 9.90625 66 
C 9.40625 66 9.296875 65.890625 9.296875 63.90625 
L 9.296875 34.859375 
C 9.296875 33.015625 9.296875 32.5 10.296875 32.5 
C 10.796875 32.5 11 32.703125 11.5 33.421875 
C 14.703125 38.046875 19.09375 40 24.09375 40 
C 27.59375 40 35.09375 37.734375 35.09375 20.203125 
C 35.09375 16.984375 35.09375 11.1875 32.09375 6.59375 
C 29.59375 2.484375 25.703125 0.390625 21.40625 0.390625 
C 14.796875 0.390625 8.09375 4.984375 6.296875 12.6875 
C 6.703125 12.59375 7.5 12.390625 7.90625 12.390625 
C 9.203125 12.390625 11.703125 13.09375 11.703125 16.1875 
C 11.703125 18.890625 9.796875 20 7.90625 20 
C 5.59375 20 4.09375 18.59375 4.09375 15.796875 
C 4.09375 7.09375 11 -2 21.59375 -2 
C 31.90625 -2 41.703125 6.890625 41.703125 19.796875 
C 41.703125 32.09375 33.90625 41.59375 24.203125 41.59375 
C 19.09375 41.59375 14.796875 39.6875 11.40625 36 
z
" id="CMR17-53"/>
       </defs>
       <use transform="scale(0.996264)" xlink:href="#CMR17-49"/>
       <use transform="translate(45.690477 0)scale(0.996264)" xlink:href="#CMMI12-58"/>
       <use transform="translate(72.787654 0)scale(0.996264)" xlink:href="#CMR17-53"/>
      </g>
     </g>
    </g>
    <g id="xtick_6">
     <g id="line2d_11">
      <g>
       <use style="stroke:#000000;stroke-width:0.8;" x="488.454545" xlink:href="#mddd746dee9" y="504"/>
      </g>
     </g>
     <g id="line2d_12">
      <g>
       <use style="stroke:#000000;stroke-width:0.8;" x="488.454545" xlink:href="#me76e6831e7" y="69.12"/>
      </g>
     </g>
     <g id="text_6">
      <!-- $\mathdefault{1.6}$ -->
      <g transform="translate(475.421951 526.093242)scale(0.22 -0.22)">
       <defs>
        <path d="M 10.59375 34.34375 
C 10.59375 58 21.796875 63.6875 28.296875 63.6875 
C 30.40625 63.6875 35.5 63.265625 37.5 59.09375 
C 35.90625 59.09375 32.90625 59.09375 32.90625 55.59375 
C 32.90625 52.890625 35.09375 52 36.5 52 
C 37.40625 52 40.09375 52.390625 40.09375 55.796875 
C 40.09375 62.296875 35.09375 66 28.203125 66 
C 16.296875 66 3.796875 53.296875 3.796875 31.421875 
C 3.796875 4.015625 15.09375 -2 23.09375 -2 
C 32.796875 -2 42 6.734375 42 20.234375 
C 42 32.828125 33.90625 42 23.703125 42 
C 17.59375 42 13.09375 37.96875 10.59375 30.921875 
z
M 23.09375 0.390625 
C 10.796875 0.390625 10.796875 18.9375 10.796875 22.65625 
C 10.796875 29.90625 14.203125 40.390625 23.5 40.390625 
C 25.203125 40.390625 30.09375 40.390625 33.40625 33.4375 
C 35.203125 29.515625 35.203125 25.375 35.203125 20.34375 
C 35.203125 14.90625 35.203125 10.875 33.09375 6.84375 
C 30.90625 2.703125 27.703125 0.390625 23.09375 0.390625 
z
" id="CMR17-54"/>
       </defs>
       <use transform="scale(0.996264)" xlink:href="#CMR17-49"/>
       <use transform="translate(45.690477 0)scale(0.996264)" xlink:href="#CMMI12-58"/>
       <use transform="translate(72.787654 0)scale(0.996264)" xlink:href="#CMR17-54"/>
      </g>
     </g>
    </g>
    <g id="xtick_7">
     <g id="line2d_13">
      <g>
       <use style="stroke:#000000;stroke-width:0.8;" x="564.545455" xlink:href="#mddd746dee9" y="504"/>
      </g>
     </g>
     <g id="line2d_14">
      <g>
       <use style="stroke:#000000;stroke-width:0.8;" x="564.545455" xlink:href="#me76e6831e7" y="69.12"/>
      </g>
     </g>
     <g id="text_7">
      <!-- $\mathdefault{1.7}$ -->
      <g transform="translate(551.51286 526.093242)scale(0.22 -0.22)">
       <defs>
        <path d="M 45.09375 61.796875 
L 45.09375 64 
L 21.59375 64 
C 9.90625 64 9.703125 65.09375 9.296875 67 
L 7.5 67 
L 4.59375 48.5 
L 6.40625 48.5 
C 6.703125 50.40625 7.40625 55.5 8.59375 57.390625 
C 9.203125 58.1875 16.59375 58.1875 18.296875 58.1875 
L 40.296875 58.1875 
L 29.203125 41.71875 
C 21.796875 30.640625 16.703125 15.671875 16.703125 2.59375 
C 16.703125 1.390625 16.703125 -2 20.296875 -2 
C 23.90625 -2 23.90625 1.390625 23.90625 2.6875 
L 23.90625 7.28125 
C 23.90625 23.65625 26.703125 34.4375 31.296875 41.3125 
z
" id="CMR17-55"/>
       </defs>
       <use transform="scale(0.996264)" xlink:href="#CMR17-49"/>
       <use transform="translate(45.690477 0)scale(0.996264)" xlink:href="#CMMI12-58"/>
       <use transform="translate(72.787654 0)scale(0.996264)" xlink:href="#CMR17-55"/>
      </g>
     </g>
    </g>
    <g id="xtick_8">
     <g id="line2d_15">
      <g>
       <use style="stroke:#000000;stroke-width:0.8;" x="640.636364" xlink:href="#mddd746dee9" y="504"/>
      </g>
     </g>
     <g id="line2d_16">
      <g>
       <use style="stroke:#000000;stroke-width:0.8;" x="640.636364" xlink:href="#me76e6831e7" y="69.12"/>
      </g>
     </g>
     <g id="text_8">
      <!-- $\mathdefault{1.8}$ -->
      <g transform="translate(627.603769 526.093242)scale(0.22 -0.22)">
       <defs>
        <path d="M 27.203125 35.765625 
C 33.5 38.96875 39.90625 43.796875 39.90625 51.53125 
C 39.90625 60.6875 31.09375 66 23 66 
C 13.90625 66 5.90625 59.375 5.90625 50.234375 
C 5.90625 47.71875 6.5 43.390625 10.40625 39.578125 
C 11.40625 38.578125 15.59375 35.5625 18.296875 33.65625 
C 13.796875 31.34375 3.296875 25.8125 3.296875 14.765625 
C 3.296875 4.40625 13.09375 -2 22.796875 -2 
C 33.5 -2 42.5 5.71875 42.5 15.96875 
C 42.5 25.109375 36.40625 29.328125 32.40625 32.046875 
z
M 14.09375 44.609375 
C 13.296875 45.109375 9.296875 48.21875 9.296875 52.9375 
C 9.296875 59.078125 15.59375 63.6875 22.796875 63.6875 
C 30.703125 63.6875 36.5 58.0625 36.5 51.53125 
C 36.5 42.1875 26.09375 36.859375 25.59375 36.859375 
C 25.5 36.859375 25.40625 36.859375 24.59375 37.46875 
z
M 32.5 24 
C 34 22.90625 38.796875 19.578125 38.796875 13.453125 
C 38.796875 6.015625 31.40625 0.390625 23 0.390625 
C 13.90625 0.390625 7 6.921875 7 14.859375 
C 7 22.796875 13.09375 29.4375 20 32.546875 
z
" id="CMR17-56"/>
       </defs>
       <use transform="scale(0.996264)" xlink:href="#CMR17-49"/>
       <use transform="translate(45.690477 0)scale(0.996264)" xlink:href="#CMMI12-58"/>
       <use transform="translate(72.787654 0)scale(0.996264)" xlink:href="#CMR17-56"/>
      </g>
     </g>
    </g>
    <g id="xtick_9">
     <g id="line2d_17">
      <g>
       <use style="stroke:#000000;stroke-width:0.8;" x="716.727273" xlink:href="#mddd746dee9" y="504"/>
      </g>
     </g>
     <g id="line2d_18">
      <g>
       <use style="stroke:#000000;stroke-width:0.8;" x="716.727273" xlink:href="#me76e6831e7" y="69.12"/>
      </g>
     </g>
     <g id="text_9">
      <!-- $\mathdefault{1.9}$ -->
      <g transform="translate(703.694678 526.093242)scale(0.22 -0.22)">
       <defs>
        <path d="M 35.203125 29.234375 
C 35.203125 7 26.09375 0.390625 18.59375 0.390625 
C 16.296875 0.390625 10.703125 0.671875 8.40625 4.390625 
C 11 4 12.90625 5.390625 12.90625 7.890625 
C 12.90625 10.59375 10.703125 11.5 9.296875 11.5 
C 8.40625 11.5 5.703125 11.09375 5.703125 7.6875 
C 5.703125 1.0625 11.59375 -2 18.796875 -2 
C 30.296875 -2 42 10.390625 42 32.65625 
C 42 60.265625 30.796875 66 23.203125 66 
C 13.296875 66 3.796875 57.25 3.796875 43.75 
C 3.796875 31.25 11.90625 22 22.09375 22 
C 30.5 22 34.203125 29.84375 35.203125 33.15625 
z
M 22.296875 23.59375 
C 19.59375 23.59375 15.796875 24.09375 12.703125 30.140625 
C 10.59375 34.078125 10.59375 38.703125 10.59375 43.640625 
C 10.59375 49.59375 10.59375 53.71875 13.40625 58.15625 
C 14.796875 60.265625 17.40625 63.6875 23.203125 63.6875 
C 35 63.6875 35 45.453125 35 41.421875 
C 35 34.265625 31.796875 23.59375 22.296875 23.59375 
z
" id="CMR17-57"/>
       </defs>
       <use transform="scale(0.996264)" xlink:href="#CMR17-49"/>
       <use transform="translate(45.690477 0)scale(0.996264)" xlink:href="#CMMI12-58"/>
       <use transform="translate(72.787654 0)scale(0.996264)" xlink:href="#CMR17-57"/>
      </g>
     </g>
    </g>
   </g>
   <g id="matplotlib.axis_2">
    <g id="ytick_1">
     <g id="line2d_19">
      <defs>
       <path d="M 0 0 
L -3.5 0 
" id="mff94461273" style="stroke:#000000;stroke-width:0.8;"/>
      </defs>
      <g>
       <use style="stroke:#000000;stroke-width:0.8;" x="108" xlink:href="#mff94461273" y="483.291429"/>
      </g>
     </g>
     <g id="line2d_20">
      <defs>
       <path d="M 0 0 
L 3.5 0 
" id="mfb0ace4b75" style="stroke:#000000;stroke-width:0.8;"/>
      </defs>
      <g>
       <use style="stroke:#000000;stroke-width:0.8;" x="777.6" xlink:href="#mfb0ace4b75" y="483.291429"/>
      </g>
     </g>
     <g id="text_10">
      <!-- $\mathdefault{0.98}$ -->
      <g transform="translate(71.44965 489.466119)scale(0.18 -0.18)">
       <defs>
        <path d="M 42 31.84375 
C 42 37.96875 41.90625 48.421875 37.703125 56.453125 
C 34 63.484375 28.09375 66 22.90625 66 
C 18.09375 66 12 63.78125 8.203125 56.5625 
C 4.203125 49.015625 3.796875 39.671875 3.796875 31.84375 
C 3.796875 26.109375 3.90625 17.375 7 9.734375 
C 11.296875 -0.609375 19 -2 22.90625 -2 
C 27.5 -2 34.5 -0.109375 38.59375 9.4375 
C 41.59375 16.375 42 24.5 42 31.84375 
z
M 22.90625 -0.40625 
C 16.5 -0.40625 12.703125 5.125 11.296875 12.75 
C 10.203125 18.6875 10.203125 27.328125 10.203125 32.953125 
C 10.203125 40.6875 10.203125 47.109375 11.5 53.234375 
C 13.40625 61.78125 19 64.390625 22.90625 64.390625 
C 27 64.390625 32.296875 61.671875 34.203125 53.4375 
C 35.5 47.71875 35.59375 40.984375 35.59375 32.953125 
C 35.59375 26.421875 35.59375 18.375 34.40625 12.453125 
C 32.296875 1.5 26.40625 -0.40625 22.90625 -0.40625 
z
" id="CMR17-48"/>
       </defs>
       <use transform="scale(0.996264)" xlink:href="#CMR17-48"/>
       <use transform="translate(45.690477 0)scale(0.996264)" xlink:href="#CMMI12-58"/>
       <use transform="translate(72.787654 0)scale(0.996264)" xlink:href="#CMR17-57"/>
       <use transform="translate(118.478131 0)scale(0.996264)" xlink:href="#CMR17-56"/>
      </g>
     </g>
    </g>
    <g id="ytick_2">
     <g id="line2d_21">
      <g>
       <use style="stroke:#000000;stroke-width:0.8;" x="108" xlink:href="#mff94461273" y="431.52"/>
      </g>
     </g>
     <g id="line2d_22">
      <g>
       <use style="stroke:#000000;stroke-width:0.8;" x="777.6" xlink:href="#mfb0ace4b75" y="431.52"/>
      </g>
     </g>
     <g id="text_11">
      <!-- $\mathdefault{0.99}$ -->
      <g transform="translate(71.44965 437.69469)scale(0.18 -0.18)">
       <use transform="scale(0.996264)" xlink:href="#CMR17-48"/>
       <use transform="translate(45.690477 0)scale(0.996264)" xlink:href="#CMMI12-58"/>
       <use transform="translate(72.787654 0)scale(0.996264)" xlink:href="#CMR17-57"/>
       <use transform="translate(118.478131 0)scale(0.996264)" xlink:href="#CMR17-57"/>
      </g>
     </g>
    </g>
    <g id="ytick_3">
     <g id="line2d_23">
      <g>
       <use style="stroke:#000000;stroke-width:0.8;" x="108" xlink:href="#mff94461273" y="379.748571"/>
      </g>
     </g>
     <g id="line2d_24">
      <g>
       <use style="stroke:#000000;stroke-width:0.8;" x="777.6" xlink:href="#mfb0ace4b75" y="379.748571"/>
      </g>
     </g>
     <g id="text_12">
      <!-- $\mathdefault{1.00}$ -->
      <g transform="translate(71.44965 385.923262)scale(0.18 -0.18)">
       <use transform="scale(0.996264)" xlink:href="#CMR17-49"/>
       <use transform="translate(45.690477 0)scale(0.996264)" xlink:href="#CMMI12-58"/>
       <use transform="translate(72.787654 0)scale(0.996264)" xlink:href="#CMR17-48"/>
       <use transform="translate(118.478131 0)scale(0.996264)" xlink:href="#CMR17-48"/>
      </g>
     </g>
    </g>
    <g id="ytick_4">
     <g id="line2d_25">
      <g>
       <use style="stroke:#000000;stroke-width:0.8;" x="108" xlink:href="#mff94461273" y="327.977143"/>
      </g>
     </g>
     <g id="line2d_26">
      <g>
       <use style="stroke:#000000;stroke-width:0.8;" x="777.6" xlink:href="#mfb0ace4b75" y="327.977143"/>
      </g>
     </g>
     <g id="text_13">
      <!-- $\mathdefault{1.01}$ -->
      <g transform="translate(71.44965 334.151833)scale(0.18 -0.18)">
       <use transform="scale(0.996264)" xlink:href="#CMR17-49"/>
       <use transform="translate(45.690477 0)scale(0.996264)" xlink:href="#CMMI12-58"/>
       <use transform="translate(72.787654 0)scale(0.996264)" xlink:href="#CMR17-48"/>
       <use transform="translate(118.478131 0)scale(0.996264)" xlink:href="#CMR17-49"/>
      </g>
     </g>
    </g>
    <g id="ytick_5">
     <g id="line2d_27">
      <g>
       <use style="stroke:#000000;stroke-width:0.8;" x="108" xlink:href="#mff94461273" y="276.205714"/>
      </g>
     </g>
     <g id="line2d_28">
      <g>
       <use style="stroke:#000000;stroke-width:0.8;" x="777.6" xlink:href="#mfb0ace4b75" y="276.205714"/>
      </g>
     </g>
     <g id="text_14">
      <!-- $\mathdefault{1.02}$ -->
      <g transform="translate(71.44965 282.380405)scale(0.18 -0.18)">
       <use transform="scale(0.996264)" xlink:href="#CMR17-49"/>
       <use transform="translate(45.690477 0)scale(0.996264)" xlink:href="#CMMI12-58"/>
       <use transform="translate(72.787654 0)scale(0.996264)" xlink:href="#CMR17-48"/>
       <use transform="translate(118.478131 0)scale(0.996264)" xlink:href="#CMR17-50"/>
      </g>
     </g>
    </g>
    <g id="ytick_6">
     <g id="line2d_29">
      <g>
       <use style="stroke:#000000;stroke-width:0.8;" x="108" xlink:href="#mff94461273" y="224.434286"/>
      </g>
     </g>
     <g id="line2d_30">
      <g>
       <use style="stroke:#000000;stroke-width:0.8;" x="777.6" xlink:href="#mfb0ace4b75" y="224.434286"/>
      </g>
     </g>
     <g id="text_15">
      <!-- $\mathdefault{1.03}$ -->
      <g transform="translate(71.44965 230.608976)scale(0.18 -0.18)">
       <use transform="scale(0.996264)" xlink:href="#CMR17-49"/>
       <use transform="translate(45.690477 0)scale(0.996264)" xlink:href="#CMMI12-58"/>
       <use transform="translate(72.787654 0)scale(0.996264)" xlink:href="#CMR17-48"/>
       <use transform="translate(118.478131 0)scale(0.996264)" xlink:href="#CMR17-51"/>
      </g>
     </g>
    </g>
    <g id="ytick_7">
     <g id="line2d_31">
      <g>
       <use style="stroke:#000000;stroke-width:0.8;" x="108" xlink:href="#mff94461273" y="172.662857"/>
      </g>
     </g>
     <g id="line2d_32">
      <g>
       <use style="stroke:#000000;stroke-width:0.8;" x="777.6" xlink:href="#mfb0ace4b75" y="172.662857"/>
      </g>
     </g>
     <g id="text_16">
      <!-- $\mathdefault{1.04}$ -->
      <g transform="translate(71.44965 178.837548)scale(0.18 -0.18)">
       <use transform="scale(0.996264)" xlink:href="#CMR17-49"/>
       <use transform="translate(45.690477 0)scale(0.996264)" xlink:href="#CMMI12-58"/>
       <use transform="translate(72.787654 0)scale(0.996264)" xlink:href="#CMR17-48"/>
       <use transform="translate(118.478131 0)scale(0.996264)" xlink:href="#CMR17-52"/>
      </g>
     </g>
    </g>
    <g id="ytick_8">
     <g id="line2d_33">
      <g>
       <use style="stroke:#000000;stroke-width:0.8;" x="108" xlink:href="#mff94461273" y="120.891429"/>
      </g>
     </g>
     <g id="line2d_34">
      <g>
       <use style="stroke:#000000;stroke-width:0.8;" x="777.6" xlink:href="#mfb0ace4b75" y="120.891429"/>
      </g>
     </g>
     <g id="text_17">
      <!-- $\mathdefault{1.05}$ -->
      <g transform="translate(71.44965 127.066119)scale(0.18 -0.18)">
       <use transform="scale(0.996264)" xlink:href="#CMR17-49"/>
       <use transform="translate(45.690477 0)scale(0.996264)" xlink:href="#CMMI12-58"/>
       <use transform="translate(72.787654 0)scale(0.996264)" xlink:href="#CMR17-48"/>
       <use transform="translate(118.478131 0)scale(0.996264)" xlink:href="#CMR17-53"/>
      </g>
     </g>
    </g>
    <g id="ytick_9">
     <g id="line2d_35">
      <g>
       <use style="stroke:#000000;stroke-width:0.8;" x="108" xlink:href="#mff94461273" y="69.12"/>
      </g>
     </g>
     <g id="line2d_36">
      <g>
       <use style="stroke:#000000;stroke-width:0.8;" x="777.6" xlink:href="#mfb0ace4b75" y="69.12"/>
      </g>
     </g>
     <g id="text_18">
      <!-- $\mathdefault{1.06}$ -->
      <g transform="translate(71.44965 75.29469)scale(0.18 -0.18)">
       <use transform="scale(0.996264)" xlink:href="#CMR17-49"/>
       <use transform="translate(45.690477 0)scale(0.996264)" xlink:href="#CMMI12-58"/>
       <use transform="translate(72.787654 0)scale(0.996264)" xlink:href="#CMR17-48"/>
       <use transform="translate(118.478131 0)scale(0.996264)" xlink:href="#CMR17-54"/>
      </g>
     </g>
    </g>
    <g id="text_19">
     <!-- Growth Factors -->
     <g transform="translate(63.18704 355.820894)rotate(-90)scale(0.22 -0.22)">
      <defs>
       <path d="M 55.296875 8.03125 
L 55.40625 8.03125 
C 55.90625 5.578125 58.09375 0.296875 59.5 0.296875 
L 59.59375 0.296875 
C 59.703125 0.390625 59.796875 0.59375 59.796875 0.890625 
C 59.796875 1.1875 59.703125 1.703125 59.703125 1.90625 
L 59.703125 18.96875 
C 59.703125 19.578125 59.59375 20.390625 59.59375 21.109375 
C 59.59375 24.59375 62 24.796875 65.90625 24.796875 
L 65.90625 27 
L 43.59375 27 
L 43.59375 24.796875 
C 44.796875 24.796875 46.203125 24.890625 47.703125 24.890625 
C 52 24.890625 54.796875 24.59375 54.796875 20.1875 
L 54.796875 14.171875 
C 54.796875 8.75 52.296875 1.1875 38.40625 1.1875 
C 21.296875 1.1875 10.59375 16.40625 10.59375 35.09375 
C 10.59375 44.59375 13.203125 54.390625 20.203125 60.890625 
C 24.59375 65 31 67.796875 37.09375 67.796875 
C 48.5 67.796875 55.703125 57.5 57.796875 46.6875 
L 58.09375 44.59375 
C 58.296875 44 58.09375 43 59 43 
C 59.59375 43 59.703125 43.390625 59.703125 43.890625 
L 59.703125 69.09375 
C 59.703125 68.5 59.703125 68.890625 59.40625 69 
L 59.296875 69 
C 58.5 69 55.09375 59.78125 54.703125 58.21875 
C 49.796875 64.6875 45.40625 70 35.90625 70 
C 17.5 70 5 52.390625 5 34.6875 
C 5 17.234375 16.796875 -1 36.40625 -1 
C 43 -1 53.09375 1.296875 55.296875 8.03125 
z
" id="Computer_Modern_Roman-71"/>
       <path d="M 4.5 42.875 
L 4.5 40.65625 
L 5.5 40.65625 
C 8.703125 40.65625 10.40625 39.953125 10.40625 35.515625 
L 10.40625 5.625 
C 10.40625 2.390625 8 2.1875 4.5 2.1875 
L 4.5 0 
L 21.703125 0 
L 21.703125 2.1875 
L 19.703125 2.1875 
C 16.796875 2.1875 14.40625 2.5 14.40625 6.328125 
L 14.40625 21.078125 
C 14.40625 29.65625 16.203125 42.78125 25.90625 42.78125 
C 27 42.78125 28.09375 42.484375 29.09375 42.078125 
C 27.90625 41.5625 26.90625 40.765625 26.90625 39.34375 
C 26.90625 37.9375 28 36.515625 29.703125 36.515625 
C 31.203125 36.515625 32.40625 37.828125 32.40625 39.34375 
C 32.40625 42.6875 28.703125 44 26 44 
C 19.90625 44 15.296875 38.03125 14.40625 32.484375 
L 14.296875 44 
z
" id="Computer_Modern_Roman-114"/>
       <path d="M 21.09375 44 
C 9.59375 42.578125 3.703125 31.75 3.703125 21.234375 
C 3.703125 10.515625 10.703125 -1 22.5 -1 
L 23.5 -1 
C 35 0.40625 41 11.125 41 21.34375 
C 41 31.578125 34.09375 44 22.5 44 
C 22 44.09375 21.59375 44 21.09375 44 
z
M 8.796875 19.625 
L 8.796875 21.234375 
C 8.796875 28.828125 9.703125 37.3125 17.40625 41.5625 
C 18.703125 42.171875 20.203125 42.671875 21.703125 42.78125 
L 22.40625 42.78125 
C 32.09375 42.78125 35.90625 31.34375 35.90625 23.15625 
C 35.90625 15.171875 35.09375 3.75 25.09375 0.71875 
C 24.203125 0.515625 23.296875 0.3125 22.40625 0.3125 
C 15 0.3125 10.203125 7.796875 9.296875 14.96875 
C 9 16.484375 9 18.109375 8.796875 19.625 
z
" id="Computer_Modern_Roman-111"/>
       <path d="M 1.40625 43 
L 1.40625 40.796875 
L 2.203125 40.796875 
C 6.203125 40.796875 6.703125 38.96875 8.796875 32.515625 
L 19 1.421875 
C 19.296875 0.609375 19.5 -1 20.59375 -1 
L 20.703125 -1 
C 21.59375 -0.8125 21.90625 1.015625 22.203125 1.8125 
L 28 19.484375 
C 28.90625 22.3125 29.796875 25.140625 30.796875 27.96875 
C 31.296875 29.578125 32 31.203125 32.296875 32.8125 
L 32.40625 32.8125 
C 32.703125 31.203125 33.40625 29.578125 33.90625 27.96875 
C 34.90625 25.140625 35.796875 22.3125 36.703125 19.484375 
L 42.5 1.8125 
C 42.796875 1.015625 43.09375 -0.8125 44 -1 
L 44.09375 -1 
C 45.203125 -1 45.40625 0.609375 45.703125 1.421875 
L 48.40625 9.59375 
C 51 17.5625 53.59375 25.453125 56.203125 33.421875 
C 57.203125 36.65625 59 40.796875 63.296875 40.796875 
L 63.296875 43 
L 51.5 43 
L 51.5 40.796875 
C 54 40.796875 55.5 38.46875 55.5 36.65625 
C 55.5 35.140625 54.90625 33.625 54.40625 32.203125 
C 51.40625 23.21875 48.5 14.140625 45.5 5.15625 
C 44.296875 7.984375 43.5 11 42.59375 13.9375 
C 40.296875 20.90625 37.90625 27.96875 35.59375 35.03125 
C 35.296875 36.046875 34.703125 37.265625 34.703125 38.375 
C 34.703125 40.484375 37.296875 40.796875 38.90625 40.796875 
L 38.90625 43 
L 25 43 
L 25 40.796875 
L 25.703125 40.796875 
C 28.5 40.796875 30 40.1875 31 36.75 
C 31.203125 36.25 31.5 35.546875 31.5 34.9375 
L 31.5 34.734375 
C 31.40625 33.71875 31 32.8125 30.703125 31.90625 
L 28.796875 26.359375 
C 26.40625 19.484375 24 12.421875 22 5.453125 
L 21.90625 5.453125 
C 21.703125 6.5625 21.203125 7.671875 20.90625 8.78125 
L 19 14.546875 
C 17.09375 20.296875 15.203125 25.953125 13.296875 31.703125 
L 11.90625 36.140625 
C 11.59375 36.859375 11.296875 37.65625 11.296875 38.375 
L 11.296875 38.671875 
C 11.59375 40.484375 14 40.796875 15.5 40.796875 
L 15.5 43 
z
" id="Computer_Modern_Roman-119"/>
       <path d="M 13.203125 62 
C 13.203125 56.140625 11.90625 41.984375 1.703125 41.984375 
L 1.703125 40.796875 
L 10.40625 40.796875 
L 10.40625 17.46875 
C 10.40625 16.0625 10.296875 14.4375 10.296875 12.921875 
C 10.296875 6.671875 12.296875 -1 20.59375 -1 
C 28.296875 -1 29.796875 7.578125 29.796875 13.828125 
L 29.796875 17.765625 
L 28.5 17.765625 
C 28.5 16.25 28.59375 14.75 28.59375 13.125 
C 28.59375 8.578125 27.703125 0.3125 21.5 0.3125 
C 15.703125 0.3125 14.40625 7.46875 14.40625 12.921875 
C 14.40625 14.640625 14.5 16.25 14.5 17.96875 
L 14.5 40.796875 
L 28.296875 40.796875 
L 28.296875 43 
L 14.5 43 
L 14.5 62 
z
" id="Computer_Modern_Roman-116"/>
       <path d="M 4.703125 68.875 
L 4.703125 66.65625 
L 5.90625 66.65625 
C 9.40625 66.65625 10.59375 65.140625 10.59375 61.71875 
L 10.59375 5.828125 
C 10.59375 2.796875 9.296875 2.1875 4.703125 2.1875 
L 4.703125 0 
L 20.59375 0 
L 20.59375 2.1875 
L 19.203125 2.1875 
C 16.90625 2.1875 14.703125 2.5 14.703125 5.625 
L 14.703125 27.71875 
C 15.296875 34.578125 18.796875 42.75 26.703125 42.75 
C 33 42.75 35.40625 37.703125 35.40625 30.4375 
L 35.40625 5.625 
C 35.40625 2.390625 33 2.1875 29.5 2.1875 
L 29.5 0 
L 45.40625 0 
L 45.40625 2.1875 
L 43.796875 2.1875 
C 41.5 2.1875 39.5 2.5 39.5 6.03125 
L 39.5 29.328125 
C 39.5 36.09375 38.203125 43.96875 27.5 43.96875 
C 22.296875 43.96875 18.40625 41.03125 16.09375 36.796875 
C 15.5 35.796875 14.90625 34.578125 14.703125 33.46875 
L 14.59375 70 
z
" id="Computer_Modern_Roman-104"/>
       <path d="M 7.296875 68 
L 7.296875 65.796875 
L 9 65.796875 
C 11.59375 65.796875 13.703125 65.5 13.703125 61.59375 
L 13.703125 6.359375 
C 13.703125 2.484375 12 2.1875 7.296875 2.1875 
L 7.296875 0 
L 26.59375 0 
L 26.59375 2.1875 
L 24.296875 2.1875 
C 20.796875 2.1875 18.59375 2.484375 18.59375 6.265625 
L 18.59375 32.796875 
L 27.796875 32.796875 
C 31 32.796875 34.703125 32.59375 36.5 29.8125 
C 37.796875 27.921875 37.90625 25.234375 37.90625 22.859375 
L 37.90625 21.171875 
L 39.203125 21.171875 
L 39.203125 46.6875 
L 37.90625 46.6875 
L 37.90625 45 
C 37.90625 37.5 35.703125 35 25.703125 35 
L 18.59375 35 
L 18.59375 63 
C 18.59375 64.796875 19.40625 65.796875 21.296875 65.796875 
L 34.40625 65.796875 
C 41.09375 65.796875 48.703125 65.6875 51.59375 56.890625 
C 52.796875 53.5 53 49.796875 53.40625 46.296875 
L 54.703125 46.296875 
L 52.59375 68 
z
" id="Computer_Modern_Roman-70"/>
       <path d="M 9 32.15625 
C 10.296875 37.515625 13.796875 42.78125 19.90625 42.78125 
C 25.296875 42.78125 29.203125 37.625 30 32.65625 
C 30.203125 31.34375 30.203125 29.921875 30.203125 28.609375 
L 30.203125 24.671875 
C 20.59375 24.671875 7.40625 22.4375 5 10.296875 
C 4.90625 9.6875 4.90625 8.984375 4.90625 8.375 
C 4.90625 1.59375 12.5 -1 17.703125 -1 
C 22.59375 -1 29 2.203125 30.296875 7.765625 
L 30.40625 7.765625 
C 30.40625 3.515625 33.203125 -0.703125 37.40625 -0.703125 
C 42.90625 -0.703125 44.203125 5.234375 44.203125 9.59375 
L 44.203125 14.140625 
L 42.90625 14.140625 
L 42.90625 8.984375 
C 42.90625 5.75 42.203125 1.09375 38.59375 1.09375 
C 34.5 1.09375 34.296875 6.453125 34.296875 9.1875 
L 34.296875 28 
C 34.296875 30.53125 34.203125 33.171875 33.203125 35.59375 
C 31.09375 40.546875 25.59375 44 20.203125 44 
C 12.5 44 7.5 37.109375 7.5 29.625 
C 7.5 27.703125 8.90625 26.59375 10.5 26.59375 
C 12.09375 26.59375 13.40625 27.90625 13.40625 29.53125 
C 13.40625 31.046875 12.40625 32.453125 10.5 32.453125 
C 10 32.453125 9.5 32.359375 9 32.15625 
z
M 30.203125 23.546875 
L 30.203125 13.640625 
C 30.203125 6.953125 26.09375 0.6875 19.203125 0.1875 
L 18.59375 0.1875 
C 14 0.1875 9.796875 3.828125 9.796875 8.78125 
C 9.796875 19.3125 21.296875 23.546875 30.203125 23.546875 
z
" id="Computer_Modern_Roman-97"/>
       <path d="M 34.703125 32.46875 
C 34.203125 32.5625 33.703125 32.671875 33.203125 32.671875 
C 31.59375 32.671875 30.40625 31.25 30.40625 29.734375 
C 30.40625 28.21875 31.59375 26.703125 33.296875 26.703125 
C 34.703125 26.703125 36.09375 27.703125 36.296875 29.234375 
L 36.296875 29.828125 
C 36.296875 36.8125 30.703125 44 22.5 44 
C 11.203125 44 4.203125 32.15625 4.203125 21.4375 
C 4.203125 10.828125 10.59375 0 21.296875 -1 
L 22.296875 -1 
C 29.40625 -1 35 3.546875 37 10.3125 
C 37.09375 10.71875 37.203125 11.125 37.203125 11.53125 
C 37.203125 11.828125 37 11.9375 36.796875 11.9375 
C 35.703125 11.9375 35.5 10.015625 35.09375 9 
C 33.296875 3.84375 28.5 0.3125 23.40625 0.3125 
C 13.90625 0.3125 9.296875 11.625 9.296875 19.921875 
C 9.296875 28.421875 11.09375 42.671875 22.703125 42.671875 
C 28.296875 42.671875 33.40625 38.03125 34.703125 32.46875 
z
" id="Computer_Modern_Roman-99"/>
       <path d="M 6.59375 5.578125 
C 9 1.734375 12.203125 -1 17.59375 -1 
C 24.203125 -1 32.296875 1.828125 32.296875 11.5625 
C 32.296875 16.421875 29.703125 20.890625 25 23.21875 
C 19 26.25 8.40625 24.84375 6 32.4375 
C 5.796875 33.046875 5.703125 33.75 5.703125 34.46875 
C 5.703125 40.4375 11.703125 42.984375 17.09375 42.984375 
C 22.90625 42.984375 27.90625 39.640625 28.703125 30.109375 
C 28.796875 29.59375 28.703125 28.28125 29.40625 28.28125 
C 30 28.28125 30.09375 28.78125 30.09375 29.390625 
L 30.09375 43.078125 
C 30.09375 43.484375 30.09375 44 29.703125 44 
C 29.203125 44 27.59375 41.15625 27.09375 39.640625 
C 24.40625 42.515625 21.5 44 17.5 44 
C 11.40625 44 3 42.015625 3 33 
C 3 22.390625 16.09375 22.390625 22 20.3125 
C 26.09375 18.921875 29.59375 15.453125 29.59375 11 
L 29.59375 10.796875 
C 29.40625 4.546875 24.5 1.078125 17.796875 1.078125 
C 8.5 1.078125 5.796875 9.703125 4.59375 16.84375 
C 4.5 17.4375 4.5 18.625 3.703125 18.625 
C 3.09375 18.625 3 18.234375 3 17.734375 
L 3 0.78125 
C 3 0.484375 3 0.09375 3.296875 0 
L 3.40625 0 
C 4.09375 0 5.796875 4.359375 6.59375 6.328125 
z
" id="Computer_Modern_Roman-115"/>
      </defs>
      <use transform="scale(0.996264)" xlink:href="#Computer_Modern_Roman-71"/>
      <use transform="translate(69.984157 0)scale(0.996264)" xlink:href="#Computer_Modern_Roman-114"/>
      <use transform="translate(104.642503 0)scale(0.996264)" xlink:href="#Computer_Modern_Roman-111"/>
      <use transform="translate(146.740981 0)scale(0.996264)" xlink:href="#Computer_Modern_Roman-119"/>
      <use transform="translate(211.159568 0)scale(0.996264)" xlink:href="#Computer_Modern_Roman-116"/>
      <use transform="translate(245.817914 0)scale(0.996264)" xlink:href="#Computer_Modern_Roman-104"/>
      <use transform="translate(325.054635 0)scale(0.996264)" xlink:href="#Computer_Modern_Roman-70"/>
      <use transform="translate(375.804357 0)scale(0.996264)" xlink:href="#Computer_Modern_Roman-97"/>
      <use transform="translate(420.382823 0)scale(0.996264)" xlink:href="#Computer_Modern_Roman-99"/>
      <use transform="translate(460.001222 0)scale(0.996264)" xlink:href="#Computer_Modern_Roman-116"/>
      <use transform="translate(494.659568 0)scale(0.996264)" xlink:href="#Computer_Modern_Roman-111"/>
      <use transform="translate(539.238035 0)scale(0.996264)" xlink:href="#Computer_Modern_Roman-114"/>
      <use transform="translate(573.896381 0)scale(0.996264)" xlink:href="#Computer_Modern_Roman-115"/>
     </g>
    </g>
   </g>
   <g id="line2d_37">
    <path clip-path="url(#pc067e7dda4)" d="M -1 357.019038 
L 640.636364 357.019038 
" style="fill:none;stroke:#0000ff;stroke-linecap:square;stroke-width:1.5;"/>
   </g>
   <g id="line2d_38">
    <path clip-path="url(#pc067e7dda4)" d="M -1 224.434286 
L 640.636364 224.434286 
" style="fill:none;stroke:#000000;stroke-linecap:square;stroke-width:1.5;"/>
   </g>
   <g id="line2d_39">
    <path clip-path="url(#pc067e7dda4)" d="M 100.099421 -1 
L 105.323435 9.919836 
L 111.441297 22.148277 
L 117.559159 33.821537 
L 123.677021 44.963935 
L 129.794884 55.597563 
L 135.912746 65.745455 
L 142.030608 75.429089 
L 148.14847 84.670026 
L 154.266332 93.485977 
L 160.384194 101.899902 
L 166.502056 109.929461 
L 172.619918 117.593515 
L 178.73778 124.909327 
L 184.855642 131.89433 
L 190.973504 138.563204 
L 197.091366 144.933256 
L 203.209228 151.016734 
L 209.32709 156.82979 
L 215.444952 162.383695 
L 221.562814 167.692961 
L 227.680676 172.768335 
L 233.798538 177.622674 
L 239.9164 182.264977 
L 246.034262 186.706827 
L 252.152124 190.958321 
L 261.328917 196.997273 
L 270.50571 202.657947 
L 279.682503 207.963585 
L 288.859296 212.945091 
L 298.03609 217.622928 
L 307.212883 222.015448 
L 316.389676 226.146469 
L 325.566469 230.033817 
L 334.743262 233.694309 
L 343.920055 237.1423 
L 353.096848 240.391305 
L 365.332572 244.436244 
L 377.568296 248.183555 
L 389.80402 251.657677 
L 402.039744 254.879664 
L 414.275468 257.871049 
L 426.511192 260.651816 
L 441.805847 263.85618 
L 457.100503 266.78798 
L 472.395158 269.473353 
L 487.689813 271.935437 
L 502.984468 274.19576 
L 521.338054 276.664431 
L 539.69164 278.89721 
L 558.045226 280.918644 
L 579.457743 283.03695 
L 600.87026 284.925302 
L 625.341709 286.835882 
L 640.636364 287.90996 
L 640.636364 287.90996 
" style="fill:none;stroke:#0000ff;stroke-linecap:square;stroke-width:1.5;"/>
   </g>
   <g id="line2d_40">
    <path clip-path="url(#pc067e7dda4)" d="M 213.592969 -1 
L 218.503883 8.890574 
L 227.680676 26.773739 
L 236.857469 43.9413 
L 246.034262 60.423644 
L 255.211055 76.260313 
L 264.387848 91.481982 
L 273.564641 106.118019 
L 282.741434 120.200584 
L 291.918228 133.753318 
L 301.095021 146.80309 
L 310.271814 159.375297 
L 319.448607 171.492178 
L 328.6254 183.173265 
L 337.802193 194.439674 
L 346.978986 205.311073 
L 356.155779 215.805058 
L 365.332572 225.938749 
L 374.509365 235.72776 
L 383.686158 245.187484 
L 392.862951 254.332099 
L 402.039744 263.17517 
L 411.216537 271.728753 
L 420.39333 280.004775 
L 429.570123 288.015956 
L 438.746916 295.773194 
L 447.923709 303.285234 
L 457.100503 310.562477 
L 466.277296 317.615782 
L 475.454089 324.450494 
L 487.689813 333.242516 
L 499.925537 341.682891 
L 512.161261 349.788621 
L 524.396985 357.577146 
L 536.632709 365.062688 
L 548.868433 372.260133 
L 561.104157 379.183532 
L 573.339881 385.844448 
L 585.575605 392.25496 
L 597.811329 398.426714 
L 610.047053 404.370239 
L 622.282778 410.095345 
L 634.518502 415.611486 
L 640.636364 418.293917 
L 640.636364 418.293917 
" style="fill:none;stroke:#ff0000;stroke-linecap:square;stroke-width:1.5;"/>
   </g>
   <g id="line2d_41">
    <path clip-path="url(#pc067e7dda4)" d="M 147.85276 -1 
L 151.207401 7.891037 
L 157.325263 23.729434 
L 163.443125 39.100849 
L 169.560987 54.021562 
L 175.678849 68.507482 
L 181.796711 82.573968 
L 187.914573 96.235564 
L 194.032435 109.50664 
L 200.150297 122.400874 
L 206.268159 134.931487 
L 212.386021 147.111398 
L 218.503883 158.952497 
L 227.680676 176.103494 
L 236.857469 192.560321 
L 246.034262 208.352557 
L 255.211055 223.518759 
L 264.387848 238.088802 
L 273.564641 252.091286 
L 282.741434 265.557555 
L 291.918228 278.510611 
L 301.095021 290.976623 
L 310.271814 302.980326 
L 319.448607 314.543363 
L 328.6254 325.684731 
L 337.802193 336.424985 
L 346.978986 346.783264 
L 356.155779 356.776681 
L 365.332572 366.421888 
L 374.509365 375.734065 
L 383.686158 384.728179 
L 392.862951 393.418012 
L 402.039744 401.816746 
L 411.216537 409.936089 
L 420.39333 417.787628 
L 429.570123 425.383727 
L 438.746916 432.734968 
L 447.923709 439.84983 
L 457.100503 446.738415 
L 466.277296 453.411275 
L 478.51302 461.983255 
L 490.748744 470.204005 
L 502.984468 478.091705 
L 515.220192 485.660301 
L 527.455916 492.928543 
L 539.69164 499.908159 
L 551.927364 506.614937 
L 564.163088 513.061516 
L 576.398812 519.258534 
L 588.634536 525.218303 
L 600.87026 530.951557 
L 613.105984 536.468347 
L 625.341709 541.777937 
L 637.577433 546.889465 
L 640.636364 548.137366 
L 640.636364 548.137366 
" style="fill:none;stroke:#008000;stroke-linecap:square;stroke-width:1.5;"/>
   </g>
   <g id="line2d_42">
    <path clip-path="url(#pc067e7dda4)" d="M 363.949454 224.434286 
" style="fill:none;stroke:#000000;stroke-linecap:square;stroke-width:1.5;"/>
    <defs>
     <path d="M 0 3 
C 0.795609 3 1.55874 2.683901 2.12132 2.12132 
C 2.683901 1.55874 3 0.795609 3 0 
C 3 -0.795609 2.683901 -1.55874 2.12132 -2.12132 
C 1.55874 -2.683901 0.795609 -3 0 -3 
C -0.795609 -3 -1.55874 -2.683901 -2.12132 -2.12132 
C -2.683901 -1.55874 -3 -0.795609 -3 0 
C -3 0.795609 -2.683901 1.55874 -2.12132 2.12132 
C -1.55874 2.683901 -0.795609 3 0 3 
z
" id="m9b2991414c" style="stroke:#000000;"/>
    </defs>
    <g clip-path="url(#pc067e7dda4)">
     <use style="stroke:#000000;" x="363.949454" xlink:href="#m9b2991414c" y="224.434286"/>
    </g>
   </g>
   <g id="line2d_43">
    <path clip-path="url(#pc067e7dda4)" d="M 378.565553 379.748571 
" style="fill:none;stroke:#000000;stroke-linecap:square;stroke-width:1.5;"/>
    <g clip-path="url(#pc067e7dda4)">
     <use style="stroke:#000000;" x="378.565553" xlink:href="#m9b2991414c" y="379.748571"/>
    </g>
   </g>
   <g id="line2d_44">
    <path clip-path="url(#pc067e7dda4)" d="M 378.565553 504 
L 378.565553 69.12 
" style="fill:none;stroke:#1f77b4;stroke-dasharray:1.5,2.475;stroke-dashoffset:0;stroke-width:1.5;"/>
   </g>
   <g id="patch_3">
    <path d="M 108 504 
L 108 69.12 
" style="fill:none;stroke:#000000;stroke-linecap:square;stroke-linejoin:miter;stroke-width:0.8;"/>
   </g>
   <g id="patch_4">
    <path d="M 777.6 504 
L 777.6 69.12 
" style="fill:none;stroke:#000000;stroke-linecap:square;stroke-linejoin:miter;stroke-width:0.8;"/>
   </g>
   <g id="patch_5">
    <path d="M 108 504 
L 777.6 504 
" style="fill:none;stroke:#000000;stroke-linecap:square;stroke-linejoin:miter;stroke-width:0.8;"/>
   </g>
   <g id="patch_6">
    <path d="M 108 69.12 
L 777.6 69.12 
" style="fill:none;stroke:#000000;stroke-linecap:square;stroke-linejoin:miter;stroke-width:0.8;"/>
   </g>
   <g id="text_20">
    <!-- $1.00 = \Ex_{t}[\mNrm_{t+1}/\mNrm_{t}]:~ \Trg{m} \rightarrow~~$ -->
    <g transform="translate(124.909504 384.925714)scale(0.22 -0.22)">
     <defs>
      <path d="M 64.296875 32 
C 65.796875 32 67.296875 32 67.296875 33.6875 
C 67.296875 35.5 65.59375 35.5 63.90625 35.5 
L 8 35.5 
C 6.296875 35.5 4.59375 35.5 4.59375 33.6875 
C 4.59375 32 6.09375 32 7.59375 32 
z
M 63.90625 14.484375 
C 65.59375 14.484375 67.296875 14.484375 67.296875 16.296875 
C 67.296875 18 65.796875 18 64.296875 18 
L 7.59375 18 
C 6.09375 18 4.59375 18 4.59375 16.296875 
C 4.59375 14.484375 6.296875 14.484375 8 14.484375 
z
" id="CMR17-61"/>
      <path d="M 25.90625 34 
C 28.40625 34 33.203125 34 36.703125 31.859375 
C 41.5 28.71875 41.90625 23.25 41.90625 22.640625 
C 42 21.21875 42 19.90625 43.703125 19.90625 
C 45.40625 19.90625 45.40625 21.328125 45.40625 23.15625 
L 45.40625 50.4375 
C 45.40625 52.046875 45.40625 53.65625 43.703125 53.65625 
C 42 53.65625 41.90625 52.140625 41.90625 51.34375 
C 41.296875 38.390625 31.09375 37.6875 25.90625 37.59375 
L 25.90625 58.765625 
C 25.90625 65.484375 27.796875 65.484375 30.203125 65.484375 
L 35 65.484375 
C 48.5 65.484375 55.203125 58.5625 55.796875 51.640625 
C 55.90625 50.84375 56 49.328125 57.59375 49.328125 
C 59.296875 49.328125 59.296875 50.9375 59.296875 52.640625 
L 59.296875 65.6875 
C 59.296875 68.796875 59.09375 69 56 69 
L 4.796875 69 
C 3 69 1.40625 69 1.40625 67.1875 
C 1.40625 65.484375 3.296875 65.484375 4.09375 65.484375 
C 9.796875 65.484375 10.203125 64.6875 10.203125 59.765625 
L 10.203125 9.265625 
C 10.203125 4.5 9.90625 3.5 4.59375 3.5 
C 3.09375 3.5 1.40625 3.5 1.40625 1.796875 
C 1.40625 0 3 0 4.796875 0 
L 57.796875 0 
C 59.703125 0 60.703125 0 61 1.390625 
C 61.09375 1.5 63.90625 18.390625 63.90625 18.890625 
C 63.90625 20.015625 63 20.71875 62.203125 20.71875 
C 60.796875 20.71875 60.40625 19.40625 60.40625 19.296875 
C 59.796875 16.671875 58.796875 12.40625 51.5 8.046875 
C 46.296875 4.90625 41.203125 3.5 35.703125 3.5 
L 30.203125 3.5 
C 27.796875 3.5 25.90625 3.5 25.90625 10.28125 
z
M 55.796875 65.484375 
L 55.796875 60.671875 
C 54.09375 62.578125 52.203125 64.1875 50.09375 65.484375 
z
M 36.296875 36.09375 
C 37.90625 36.796875 40.09375 38.296875 41.90625 40.40625 
L 41.90625 31.96875 
C 39.5 34.6875 36.40625 36 36.296875 36 
z
M 13.703125 59.96875 
C 13.703125 61.171875 13.703125 63.6875 12.90625 65.484375 
L 23.5 65.484375 
C 22.40625 63.1875 22.40625 59.875 22.40625 58.96875 
L 22.40625 10.078125 
C 22.40625 6.4375 23.09375 4.40625 23.5 3.5 
L 12.90625 3.5 
C 13.703125 5.3125 13.703125 7.84375 13.703125 9.0625 
z
M 50.90625 3.5 
L 50.90625 3.59375 
C 54.09375 5.21875 56.796875 7.34375 58.796875 9.171875 
C 58.703125 8.765625 58 4.296875 57.90625 3.5 
z
" id="MSBM10-69"/>
      <path d="M 20.09375 40.09375 
L 29.296875 40.09375 
C 31.203125 40.09375 32.203125 40.09375 32.203125 41.890625 
C 32.203125 43 31.59375 43 29.59375 43 
L 20.796875 43 
L 24.5 57.25 
C 24.90625 58.625 24.90625 58.8125 24.90625 59.5 
C 24.90625 61.09375 23.59375 62 22.296875 62 
C 21.5 62 19.203125 61.6875 18.40625 58.53125 
L 14.5 43 
L 5.09375 43 
C 3.09375 43 2.203125 43 2.203125 41.09375 
C 2.203125 40.09375 2.90625 40.09375 4.796875 40.09375 
L 13.703125 40.09375 
L 7.09375 13.765625 
C 6.296875 10.265625 6 9.265625 6 7.96875 
C 6 3.28125 9.296875 -1 14.90625 -1 
C 25 -1 30.40625 13.5625 30.40625 14.265625 
C 30.40625 14.859375 30 15.15625 29.40625 15.15625 
C 29.203125 15.15625 28.796875 15.15625 28.59375 14.75 
C 28.5 14.65625 28.40625 14.5625 27.703125 12.96875 
C 25.59375 7.96875 21 1 15.203125 1 
C 12.203125 1 12 3.484375 12 5.6875 
C 12 5.78125 12 7.671875 12.296875 8.875 
z
" id="CMMI12-116"/>
      <path d="M 23.5 -25 
L 23.5 -21.5 
L 14.09375 -21.5 
L 14.09375 71.484375 
L 23.5 71.484375 
L 23.5 75 
L 10.59375 75 
L 10.59375 -25 
z
" id="CMR17-91"/>
      <path d="M 20.59375 29.21875 
C 20.796875 29.828125 23.296875 34.8125 27 38 
C 29.59375 40.390625 33 41.984375 36.90625 41.984375 
C 40.90625 41.984375 42.296875 39 42.296875 35.015625 
C 42.296875 34.40625 42.296875 32.421875 41.09375 27.734375 
L 38.59375 17.453125 
C 37.796875 14.453125 35.90625 7.078125 35.703125 5.984375 
C 35.296875 4.484375 34.703125 1.890625 34.703125 1.484375 
C 34.703125 0.09375 35.796875 -1 37.296875 -1 
C 40.296875 -1 40.796875 1.296875 41.703125 4.890625 
L 47.703125 28.71875 
C 47.90625 29.53125 53.09375 41.984375 64.09375 41.984375 
C 68.09375 41.984375 69.5 39 69.5 35.015625 
C 69.5 29.421875 65.59375 18.546875 63.40625 12.5625 
C 62.5 10.171875 62 8.875 62 7.078125 
C 62 2.59375 65.09375 -1 69.90625 -1 
C 79.203125 -1 82.703125 13.65625 82.703125 14.265625 
C 82.703125 14.765625 82.296875 15.15625 81.703125 15.15625 
C 80.796875 15.15625 80.703125 14.859375 80.203125 13.15625 
C 77.90625 5.1875 74.203125 1 70.203125 1 
C 69.203125 1 67.59375 1.09375 67.59375 4.28125 
C 67.59375 6.875 68.796875 10.078125 69.203125 11.171875 
C 71 15.953125 75.5 27.734375 75.5 33.515625 
C 75.5 39.5 72 44 64.40625 44 
C 57.703125 44 52.296875 40.203125 48.296875 34.3125 
C 48 39.703125 44.703125 44 37.203125 44 
C 28.296875 44 23.59375 37.703125 21.796875 35.203125 
C 21.5 40.890625 17.40625 44 13 44 
C 10.09375 44 7.796875 42.59375 5.90625 38.796875 
C 4.09375 35.203125 2.703125 29.125 2.703125 28.71875 
C 2.703125 28.328125 3.09375 27.828125 3.796875 27.828125 
C 4.59375 27.828125 4.703125 27.921875 5.296875 30.21875 
C 6.796875 36.109375 8.703125 41.984375 12.703125 41.984375 
C 15 41.984375 15.796875 40.390625 15.796875 37.40625 
C 15.796875 35.203125 14.796875 31.3125 14.09375 28.234375 
L 11.296875 17.453125 
C 10.90625 15.5625 9.796875 11.0625 9.296875 9.265625 
C 8.59375 6.671875 7.5 1.984375 7.5 1.484375 
C 7.5 0.09375 8.59375 -1 10.09375 -1 
C 11.296875 -1 12.703125 -0.40625 13.5 1.09375 
C 13.703125 1.59375 14.59375 5.078125 15.09375 7.078125 
L 17.296875 16.0625 
z
" id="CMMI12-109"/>
      <path d="M 37.703125 23 
L 64.203125 23 
C 65.59375 23 67.296875 23 67.296875 24.6875 
C 67.296875 26.5 65.703125 26.5 64.203125 26.5 
L 37.703125 26.5 
L 37.703125 52.890625 
C 37.703125 54.296875 37.703125 56 36 56 
C 34.203125 56 34.203125 54.390625 34.203125 52.890625 
L 34.203125 26.5 
L 7.703125 26.5 
C 6.296875 26.5 4.59375 26.5 4.59375 24.796875 
C 4.59375 23 6.203125 23 7.703125 23 
L 34.203125 23 
L 34.203125 -3.03125 
C 34.203125 -4.40625 34.203125 -6.109375 35.90625 -6.109375 
C 37.703125 -6.109375 37.703125 -4.515625 37.703125 -3.03125 
z
" id="CMR17-43"/>
      <path d="M 42.90625 71.296875 
C 42.90625 71.390625 43.5 72.890625 43.5 73.09375 
C 43.5 74.296875 42.5 75 41.703125 75 
C 41.203125 75 40.296875 75 39.5 72.796875 
L 6 -21.3125 
C 6 -21.40625 5.40625 -22.90625 5.40625 -23.109375 
C 5.40625 -24.3125 6.40625 -25 7.203125 -25 
C 7.796875 -25 8.703125 -24.90625 9.40625 -22.8125 
z
" id="CMMI12-61"/>
      <path d="M 14.296875 75 
L 1.40625 75 
L 1.40625 71.484375 
L 10.796875 71.484375 
L 10.796875 -21.5 
L 1.40625 -21.5 
L 1.40625 -25 
L 14.296875 -25 
z
" id="CMR17-93"/>
      <path d="M 16.59375 38.890625 
C 16.59375 41.390625 14.59375 43 12.5 43 
C 10.5 43 8.40625 41.390625 8.40625 38.890625 
C 8.40625 36.390625 10.40625 34.796875 12.5 34.796875 
C 14.5 34.796875 16.59375 36.390625 16.59375 38.890625 
z
M 16.59375 4.09375 
C 16.59375 6.59375 14.59375 8.1875 12.5 8.1875 
C 10.5 8.1875 8.40625 6.59375 8.40625 4.09375 
C 8.40625 1.59375 10.40625 0 12.5 0 
C 14.5 0 16.59375 1.59375 16.59375 4.09375 
z
" id="CMR17-58"/>
      <path d="M 22.90625 69 
L 10.59375 55.1875 
L 11.796875 54 
L 22.90625 64.984375 
L 34 54 
L 35.203125 55.1875 
z
" id="CMR17-94"/>
      <path d="M 83.40625 23 
C 77.90625 18.796875 75.203125 14.6875 74.40625 13.390625 
C 69.90625 6.484375 69.09375 0.1875 69.09375 0.09375 
C 69.09375 -1.109375 70.296875 -1.109375 71.09375 -1.109375 
C 72.796875 -1.109375 72.90625 -0.90625 73.296875 0.890625 
C 75.59375 10.6875 81.5 19.09375 92.796875 23.6875 
C 94 24.09375 94.296875 24.296875 94.296875 25 
C 94.296875 25.6875 93.703125 26 93.5 26.09375 
C 89.09375 27.796875 77 32.796875 73.203125 49.59375 
C 72.90625 50.796875 72.796875 51.09375 71.09375 51.09375 
C 70.296875 51.09375 69.09375 51.09375 69.09375 49.890625 
C 69.09375 49.6875 70 43.390625 74.203125 36.6875 
C 76.203125 33.6875 79.09375 30.1875 83.40625 27 
L 9.09375 27 
C 7.296875 27 5.5 27 5.5 25 
C 5.5 23 7.296875 23 9.09375 23 
z
" id="CMSY10-33"/>
     </defs>
     <use transform="scale(0.996264)" xlink:href="#CMR17-49"/>
     <use transform="translate(45.690477 0)scale(0.996264)" xlink:href="#CMMI12-58"/>
     <use transform="translate(72.787654 0)scale(0.996264)" xlink:href="#CMR17-48"/>
     <use transform="translate(118.478131 0)scale(0.996264)" xlink:href="#CMR17-48"/>
     <use transform="translate(191.842617 0)scale(0.996264)" xlink:href="#CMR17-61"/>
     <use transform="translate(291.231414 0)scale(0.996264)" xlink:href="#MSBM10-69"/>
     <use transform="translate(357.649233 -14.943915)scale(0.697382)" xlink:href="#CMMI12-116"/>
     <use transform="translate(382.805674 0)scale(0.996264)" xlink:href="#CMR17-91"/>
     <use transform="translate(407.676733 0)scale(0.996264)" xlink:href="#CMMI12-109"/>
     <use transform="translate(493.003957 -14.943915)scale(0.697382)" xlink:href="#CMMI12-116"/>
     <use transform="translate(517.662267 -14.943915)scale(0.697382)" xlink:href="#CMR17-43"/>
     <use transform="translate(567.862398 -14.943915)scale(0.697382)" xlink:href="#CMR17-49"/>
     <use transform="translate(600.343712 0)scale(0.996264)" xlink:href="#CMMI12-61"/>
     <use transform="translate(649.118631 0)scale(0.996264)" xlink:href="#CMMI12-109"/>
     <use transform="translate(734.445856 -14.943915)scale(0.697382)" xlink:href="#CMMI12-116"/>
     <use transform="translate(759.602297 0)scale(0.996264)" xlink:href="#CMR17-93"/>
     <use transform="translate(812.147364 0)scale(0.996264)" xlink:href="#CMR17-58"/>
     <use transform="translate(914.209106 0.006461)scale(0.996264)" xlink:href="#CMR17-94"/>
     <use transform="translate(894.390725 0)scale(0.996264)" xlink:href="#CMMI12-109"/>
     <use transform="translate(1007.391958 0)scale(0.996264)" xlink:href="#CMSY10-33"/>
    </g>
   </g>
   <g id="text_21">
    <!-- $\PermGroFac$ -->
    <g transform="translate(648.245455 229.611429)scale(0.22 -0.22)">
     <defs>
      <path d="M 36.40625 13.296875 
C 52.59375 14.6875 62.09375 24.515625 62.09375 33.9375 
C 62.09375 43.765625 52.203125 53.296875 36.40625 54.6875 
L 36.40625 60.609375 
C 36.40625 64.34375 36.59375 65.390625 44.203125 65.390625 
L 46.40625 65.390625 
L 46.40625 68 
C 42.296875 67.796875 37.5 67.796875 33.296875 67.796875 
C 29.09375 67.796875 24.203125 67.796875 20.09375 68 
L 20.09375 65.390625 
L 22.296875 65.390625 
C 29.90625 65.390625 30.09375 64.34375 30.09375 60.609375 
L 30.09375 54.6875 
C 14.40625 53.296875 4.59375 43.65625 4.59375 34.046875 
C 4.59375 24.03125 14.796875 14.6875 30.09375 13.296875 
L 30.09375 7.375 
C 30.09375 3.625 29.90625 2.59375 22.296875 2.59375 
L 20.09375 2.59375 
L 20.09375 0 
C 24.203125 0.1875 29.09375 0.1875 33.296875 0.1875 
C 37.5 0.1875 42.296875 0.1875 46.40625 0 
L 46.40625 2.59375 
L 44.203125 2.59375 
C 36.59375 2.59375 36.40625 3.625 36.40625 7.375 
z
M 30.09375 15 
C 21.09375 15.96875 12 21.015625 12 33.9375 
C 12 47.25 21.40625 52.109375 30.09375 53 
z
M 36.40625 53 
C 44.296875 52.3125 54.703125 47.9375 54.703125 34.046875 
C 54.703125 19.75 43.90625 15.671875 36.40625 15 
z
" id="CMR17-8"/>
     </defs>
     <use transform="scale(0.996264)" xlink:href="#CMR17-8"/>
    </g>
   </g>
   <g id="text_22">
    <!-- $\Ex_{t}[\cLvl_{t+1}/\cLvl_{t}]$ -->
    <g transform="translate(648.245455 287.90996)scale(0.22 -0.22)">
     <defs>
      <path d="M 46.796875 11.3125 
C 46.796875 12.515625 45.703125 12.515625 44.703125 12.515625 
C 43.09375 12.515625 43 12.421875 42.5 11.21875 
C 41.796875 9.3125 39.09375 2.59375 29.90625 2.59375 
C 15.796875 2.59375 15.796875 17.828125 15.796875 22.34375 
C 15.796875 28.25 15.90625 41.390625 29 41.390625 
C 29.703125 41.390625 35.59375 41.1875 35.59375 40.6875 
C 35.59375 40.59375 35.5 40.484375 35.296875 40.390625 
C 35 40.09375 33.703125 38.578125 33.703125 36.078125 
C 33.703125 31.859375 37.09375 30.15625 39.59375 30.15625 
C 41.703125 30.15625 45.5 31.46875 45.5 36.171875 
C 45.5 44.390625 34 45 28.59375 45 
C 10.796875 45 3.796875 33.375 3.796875 21.84375 
C 3.796875 8.203125 13.296875 -1 28 -1 
C 43.703125 -1 46.796875 10.609375 46.796875 11.3125 
z
" id="CMBX12-99"/>
     </defs>
     <use transform="scale(0.996264)" xlink:href="#MSBM10-69"/>
     <use transform="translate(66.417819 -14.943915)scale(0.697382)" xlink:href="#CMMI12-116"/>
     <use transform="translate(91.57426 0)scale(0.996264)" xlink:href="#CMR17-91"/>
     <use transform="translate(116.445319 0)scale(0.996264)" xlink:href="#CMBX12-99"/>
     <use transform="translate(166.258519 -14.943915)scale(0.697382)" xlink:href="#CMMI12-116"/>
     <use transform="translate(190.916829 -14.943915)scale(0.697382)" xlink:href="#CMR17-43"/>
     <use transform="translate(241.11696 -14.943915)scale(0.697382)" xlink:href="#CMR17-49"/>
     <use transform="translate(273.598274 0)scale(0.996264)" xlink:href="#CMMI12-61"/>
     <use transform="translate(322.373193 0)scale(0.996264)" xlink:href="#CMBX12-99"/>
     <use transform="translate(372.186393 -14.943915)scale(0.697382)" xlink:href="#CMMI12-116"/>
     <use transform="translate(397.342835 0)scale(0.996264)" xlink:href="#CMR17-93"/>
    </g>
   </g>
   <g id="text_23">
    <!-- $\pmb{\text{\TH}} = (\Rfree\DiscFac)^{1/\CRRA}$ -->
    <g transform="translate(648.245455 362.196181)scale(0.22 -0.22)">
     <defs>
      <path d="M 7.40625 68 
L 7.40625 65.796875 
L 9.09375 65.796875 
C 11.703125 65.796875 13.796875 65.5 13.796875 61.734375 
L 13.796875 6.390625 
C 13.796875 2.5 12.09375 2.1875 7.40625 2.1875 
L 7.40625 0 
L 24.90625 0 
L 24.90625 2.1875 
L 22.90625 2.1875 
C 20.59375 2.1875 18.5 2.5 18.5 5.6875 
L 18.5 17.796875 
L 34 17.796875 
C 43.703125 18.6875 50.796875 26.90625 50.796875 36.34375 
C 50.796875 44.875 44.703125 53.296875 35.40625 54.6875 
C 33.796875 55 32.203125 55 30.59375 55 
L 18.5 55 
L 18.5 61.9375 
C 18.5 64.640625 18.90625 65.796875 24.90625 65.796875 
L 24.90625 68 
z
M 18.5 20 
L 18.5 52.796875 
L 27.90625 52.796875 
C 32.703125 52.796875 37.40625 52.390625 41 48.078125 
C 43.796875 44.875 45.296875 40.5625 45.296875 36.34375 
C 45.296875 29.21875 40.40625 21.09375 31.296875 20 
z
" id="Computer_Modern_Roman-222"/>
      <path d="M 30.59375 -24.40625 
C 30.59375 -24.3125 30.59375 -24.109375 30.296875 -23.8125 
C 25.703125 -19.109375 13.40625 -6.296875 13.40625 24.9375 
C 13.40625 56.171875 25.5 68.875 30.40625 73.890625 
C 30.40625 73.984375 30.59375 74.1875 30.59375 74.484375 
C 30.59375 74.796875 30.296875 75 29.90625 75 
C 28.796875 75 20.296875 67.578125 15.40625 56.5625 
C 10.40625 45.453125 9 34.65625 9 25.046875 
C 9 17.828125 9.703125 5.625 15.703125 -7.296875 
C 20.5 -17.703125 28.703125 -25 29.90625 -25 
C 30.40625 -25 30.59375 -24.8125 30.59375 -24.40625 
z
" id="CMR17-40"/>
      <path d="M 39.40625 32.796875 
L 39.59375 32.890625 
C 55.203125 38.28125 55.296875 48.828125 55.296875 50.6875 
C 55.296875 59.96875 45.703125 69 31.296875 69 
L 8.90625 69 
L 8.90625 0 
L 17.09375 0 
L 17.09375 31.890625 
L 31.796875 31.890625 
L 49.5 0 
L 57.90625 0 
z
M 17.09375 38 
L 17.09375 63.390625 
L 30.203125 63.390625 
C 42.90625 63.390625 47.40625 56.359375 47.40625 50.6875 
C 47.40625 45.421875 43.40625 38 30.203125 38 
z
" id="CMSS17-82"/>
      <path d="M 56.59375 58.421875 
C 56.59375 64.546875 51.5 71 42.40625 71 
C 29.5 71 21.296875 54.84375 18.703125 44.21875 
L 2.90625 -18 
C 2.703125 -18.8125 3.296875 -19 3.796875 -19 
C 4.5 -19 5 -18.90625 5.09375 -18.40625 
L 12.09375 9.25 
C 13.09375 3.609375 18.59375 -1 24.5 -1 
C 38.796875 -1 52.296875 10.265625 52.296875 25.28125 
C 52.296875 29.109375 51.40625 32.9375 49.296875 36.15625 
C 48.09375 38.078125 46.59375 39.484375 45 40.609375 
C 52.203125 44.109375 56.59375 50.34375 56.59375 58.421875 
z
M 39.203125 40.703125 
C 37.59375 40.171875 36 40 34.09375 40 
C 32.703125 40 31.40625 39.890625 29.59375 40.4375 
C 30.59375 41.046875 32.09375 41.234375 34.203125 41.234375 
C 36 41.234375 37.796875 41.046875 39.203125 40.703125 
z
M 51.40625 59.34375 
C 51.40625 53.71875 48.703125 45.546875 42.203125 41.9375 
C 40.296875 42.546875 37.703125 43 35.5 43 
C 33.40625 43 27.40625 43.203125 27.40625 40.34375 
C 27.40625 37.671875 32.90625 37.96875 34.59375 37.96875 
C 37.203125 37.96875 39.5 38.578125 41.90625 39.28125 
C 45.09375 36.671875 46.5 33.234375 46.5 28.203125 
C 46.5 22.359375 44.90625 17.625 43 13.28125 
C 39.703125 5.828125 31.90625 1 25 1 
C 17.703125 1 13.90625 6.84375 13.90625 13.6875 
C 13.90625 14.59375 13.90625 15.90625 14.296875 17.421875 
L 20.796875 43.5 
C 24.09375 56.890625 32.5 68.953125 42.203125 68.953125 
C 49.40625 68.953125 51.40625 63.84375 51.40625 59.34375 
z
" id="CMMI12-12"/>
      <path d="M 26.296875 24.9375 
C 26.296875 32.140625 25.59375 44.359375 19.59375 57.265625 
C 14.796875 67.6875 6.59375 75 5.40625 75 
C 5.09375 75 4.703125 74.890625 4.703125 74.390625 
C 4.703125 74.1875 4.796875 74.09375 4.90625 73.890625 
C 9.703125 68.875 21.90625 56.171875 21.90625 25.046875 
C 21.90625 -6.1875 9.796875 -18.90625 4.90625 -23.90625 
C 4.796875 -24.109375 4.703125 -24.203125 4.703125 -24.40625 
C 4.703125 -24.90625 5.09375 -25 5.40625 -25 
C 6.5 -25 15 -17.609375 19.90625 -6.59375 
C 24.90625 4.515625 26.296875 15.328125 26.296875 24.9375 
z
" id="CMR17-41"/>
      <path d="M 3.09375 -16.953125 
C 3 -17.4375 2.796875 -18.03125 2.796875 -18.609375 
C 2.796875 -20.109375 4 -21.109375 5.5 -21.109375 
C 7 -21.109375 8.40625 -20.109375 9 -18.71875 
C 9.40625 -17.828125 12.203125 -6.09375 15.40625 6.078125 
C 17.40625 1.09375 21.09375 -1 25 -1 
C 36.296875 -1 49.09375 12.96875 49.09375 28.03125 
C 49.09375 38.703125 42.59375 44 35.703125 44 
C 26.90625 44 16.203125 34.90625 12.90625 21.640625 
z
M 24.90625 1 
C 18.09375 1 16.40625 8.875 16.40625 10.078125 
C 16.40625 10.671875 18.90625 20.140625 19.203125 21.640625 
C 24.296875 41.5 34.09375 41.984375 35.59375 41.984375 
C 40.09375 41.984375 42.59375 37.90625 42.59375 32.015625 
C 42.59375 26.9375 39.90625 17.046875 38.203125 12.859375 
C 35.203125 5.984375 30 1 24.90625 1 
z
" id="CMMI12-26"/>
     </defs>
     <use transform="scale(0.996264)" xlink:href="#Computer_Modern_Roman-222"/>
     <use transform="translate(2.213881 2.767393)scale(0.996264)" xlink:href="#Computer_Modern_Roman-222"/>
     <use transform="translate(4.427762 0)scale(0.996264)" xlink:href="#Computer_Modern_Roman-222"/>
     <use transform="translate(87.811454 0)scale(0.996264)" xlink:href="#CMR17-61"/>
     <use transform="translate(187.200251 0)scale(0.996264)" xlink:href="#CMR17-40"/>
     <use transform="translate(222.481019 0)scale(0.996264)" xlink:href="#CMSS17-82"/>
     <use transform="translate(282.897174 0)scale(0.996264)" xlink:href="#CMMI12-12"/>
     <use transform="translate(343.49119 0)scale(0.996264)" xlink:href="#CMR17-41"/>
     <use transform="translate(378.771957 36.153639)scale(0.697382)" xlink:href="#CMR17-49"/>
     <use transform="translate(410.755139 36.153639)scale(0.697382)" xlink:href="#CMMI12-61"/>
     <use transform="translate(444.897431 36.153639)scale(0.697382)" xlink:href="#CMMI12-26"/>
    </g>
   </g>
   <g id="text_24">
    <!-- $\check{\mNrm}_{\searrow}~$ -->
    <g transform="translate(318.294909 212.986271)scale(0.22 -0.22)">
     <defs>
      <path d="M 22.90625 56 
L 11.703125 64 
L 10.703125 62.59375 
L 22.90625 51.984375 
L 35.09375 62.59375 
L 34.09375 64 
z
" id="CMR17-20"/>
      <path d="M 84.90625 -12.609375 
C 83.203125 -12.3125 80.90625 -12.125 79.09375 -12.125 
C 77.09375 -12.125 72.203125 -12.3125 66.40625 -14.40625 
C 65.703125 -14.703125 58.296875 -17.8125 58.296875 -19.40625 
C 58.296875 -20.109375 59.90625 -21.703125 60.59375 -21.703125 
C 61 -21.703125 61.296875 -21.609375 61.90625 -21.203125 
C 69.796875 -16.015625 76.703125 -16.015625 79.203125 -16.015625 
C 85.296875 -16.015625 89.796875 -17.609375 92.09375 -18.703125 
C 92.703125 -19.015625 93 -19.109375 93.296875 -19.109375 
C 93.703125 -19.109375 94.296875 -18.90625 94.296875 -18.109375 
C 94.296875 -17.90625 94.296875 -17.703125 94 -16.90625 
C 92.703125 -14.203125 91.203125 -9.9375 91.203125 -4.0625 
C 91.203125 0.109375 91.796875 6.0625 96.40625 13.125 
C 96.796875 13.8125 96.90625 14.015625 96.90625 14.421875 
C 96.90625 15.109375 95.296875 16.703125 94.59375 16.703125 
C 93.203125 16.703125 90.40625 10.546875 89.59375 8.65625 
C 87.5 3.078125 87.296875 -1.6875 87.296875 -3.96875 
C 87.296875 -7.15625 87.296875 -7.25 87.796875 -9.734375 
L 9.703125 67.796875 
C 8.5 69 8.296875 69.1875 7.5 69.1875 
C 6.296875 69.1875 5.5 68.1875 5.5 67.1875 
C 5.5 66.390625 5.703125 66.1875 7 64.90625 
z
" id="CMSY10-38"/>
     </defs>
     <use transform="translate(19.818381 0.006461)scale(0.996264)" xlink:href="#CMR17-20"/>
     <use transform="scale(0.996264)" xlink:href="#CMMI12-109"/>
     <use transform="translate(85.327224 -14.943915)scale(0.697382)" xlink:href="#CMSY10-38"/>
    </g>
   </g>
   <g id="text_25">
    <!-- $\Ex_{t}[\mNrm_{t+1}/\mNrm_{t}] ^{\nearrow}$ -->
    <g transform="translate(156.214809 285.84025)scale(0.22 -0.22)">
     <defs>
      <path d="M 87.796875 59.703125 
C 87.5 58.015625 87.296875 55.734375 87.296875 53.9375 
C 87.296875 51.953125 87.5 47.078125 89.59375 41.296875 
C 90.09375 40.109375 93.09375 33.234375 94.59375 33.234375 
C 95.296875 33.234375 96.90625 34.828125 96.90625 35.53125 
C 96.90625 35.921875 96.796875 36.125 96.40625 36.828125 
C 91.5 44.390625 91.203125 50.546875 91.203125 54.03125 
C 91.203125 60.109375 92.796875 64.59375 93.90625 66.890625 
C 94.203125 67.5 94.296875 67.796875 94.296875 68.09375 
C 94.296875 68.890625 93.703125 69.09375 93.296875 69.09375 
C 93.09375 69.09375 92.90625 69.09375 92.09375 68.796875 
C 89.40625 67.5 85 66 79.203125 66 
C 76.296875 66 69.59375 66.09375 61.90625 71.1875 
C 61.296875 71.59375 61 71.6875 60.59375 71.6875 
C 59.90625 71.6875 58.296875 70.09375 58.296875 69.390625 
C 58.296875 68 64.5 65.1875 66.59375 64.390625 
C 72.40625 62.203125 77.296875 62.09375 79.09375 62.09375 
C 82.296875 62.09375 82.40625 62.09375 84.90625 62.59375 
L 7 -15.015625 
C 5.703125 -16.3125 5.5 -16.515625 5.5 -17.3125 
C 5.5 -18.3125 6.40625 -19.3125 7.5 -19.3125 
C 8.296875 -19.3125 8.5 -19.109375 9.703125 -17.90625 
z
" id="CMSY10-37"/>
     </defs>
     <use transform="scale(0.996264)" xlink:href="#MSBM10-69"/>
     <use transform="translate(66.417819 -14.943915)scale(0.697382)" xlink:href="#CMMI12-116"/>
     <use transform="translate(91.57426 0)scale(0.996264)" xlink:href="#CMR17-91"/>
     <use transform="translate(116.445319 0)scale(0.996264)" xlink:href="#CMMI12-109"/>
     <use transform="translate(201.772543 -14.943915)scale(0.697382)" xlink:href="#CMMI12-116"/>
     <use transform="translate(226.430853 -14.943915)scale(0.697382)" xlink:href="#CMR17-43"/>
     <use transform="translate(276.630984 -14.943915)scale(0.697382)" xlink:href="#CMR17-49"/>
     <use transform="translate(309.112298 0)scale(0.996264)" xlink:href="#CMMI12-61"/>
     <use transform="translate(357.887217 0)scale(0.996264)" xlink:href="#CMMI12-109"/>
     <use transform="translate(443.214441 -14.943915)scale(0.697382)" xlink:href="#CMMI12-116"/>
     <use transform="translate(468.370883 0)scale(0.996264)" xlink:href="#CMR17-93"/>
     <use transform="translate(493.241941 36.153639)scale(0.697382)" xlink:href="#CMSY10-37"/>
    </g>
   </g>
   <g id="text_26">
    <!-- $\Ex_{t}[\mLvl_{t+1}/\mLvl_{t}]$ -->
    <g transform="translate(648.245455 429.55513)scale(0.22 -0.22)">
     <defs>
      <path d="M 84.40625 30.59375 
C 84.40625 39.796875 80.5 45 69.296875 45 
C 59.203125 45 54.5 38.1875 52.90625 35 
C 51.296875 43.484375 44.5 45 38.09375 45 
C 28.5 45 23.296875 38.796875 21.203125 34 
L 21.09375 34 
L 21.09375 45 
L 4.203125 44.1875 
L 4.203125 39.890625 
C 10.40625 39.890625 11.09375 39.890625 11.09375 36 
L 11.09375 4.296875 
L 4.203125 4.296875 
L 4.203125 0 
C 6.5 0.1875 13.703125 0.1875 16.5 0.1875 
C 19.296875 0.1875 26.59375 0.1875 28.90625 0 
L 28.90625 4.296875 
L 22 4.296875 
L 22 25.59375 
C 22 36.5 30.09375 41.6875 36.40625 41.6875 
C 40.09375 41.6875 42.296875 39.5 42.296875 31.6875 
L 42.296875 4.296875 
L 35.40625 4.296875 
L 35.40625 0 
C 37.703125 0.1875 44.90625 0.1875 47.703125 0.1875 
C 50.5 0.1875 57.796875 0.1875 60.09375 0 
L 60.09375 4.296875 
L 53.203125 4.296875 
L 53.203125 25.59375 
C 53.203125 36.5 61.296875 41.6875 67.59375 41.6875 
C 71.296875 41.6875 73.5 39.5 73.5 31.6875 
L 73.5 4.296875 
L 66.59375 4.296875 
L 66.59375 0 
C 68.90625 0.1875 76.09375 0.1875 78.90625 0.1875 
C 81.703125 0.1875 89 0.1875 91.296875 0 
L 91.296875 4.296875 
L 84.40625 4.296875 
z
" id="CMBX12-109"/>
     </defs>
     <use transform="scale(0.996264)" xlink:href="#MSBM10-69"/>
     <use transform="translate(66.417819 -14.943915)scale(0.697382)" xlink:href="#CMMI12-116"/>
     <use transform="translate(91.57426 0)scale(0.996264)" xlink:href="#CMR17-91"/>
     <use transform="translate(116.445319 0)scale(0.996264)" xlink:href="#CMBX12-109"/>
     <use transform="translate(209.84507 -14.943915)scale(0.697382)" xlink:href="#CMMI12-116"/>
     <use transform="translate(234.503379 -14.943915)scale(0.697382)" xlink:href="#CMR17-43"/>
     <use transform="translate(284.703511 -14.943915)scale(0.697382)" xlink:href="#CMR17-49"/>
     <use transform="translate(317.184824 0)scale(0.996264)" xlink:href="#CMMI12-61"/>
     <use transform="translate(365.959743 0)scale(0.996264)" xlink:href="#CMBX12-109"/>
     <use transform="translate(459.359494 -14.943915)scale(0.697382)" xlink:href="#CMMI12-116"/>
     <use transform="translate(484.515936 0)scale(0.996264)" xlink:href="#CMR17-93"/>
    </g>
   </g>
   <g id="legend_1">
    <g id="patch_7">
     <path d="M 536.930915 118.699173 
L 762.2 118.699173 
Q 766.6 118.699173 766.6 114.299173 
L 766.6 84.52 
Q 766.6 80.12 762.2 80.12 
L 536.930915 80.12 
Q 532.530915 80.12 532.530915 84.52 
L 532.530915 114.299173 
Q 532.530915 118.699173 536.930915 118.699173 
z
" style="fill:#ffffff;opacity:0.8;stroke:#cccccc;stroke-linejoin:miter;"/>
    </g>
    <g id="line2d_45">
     <path d="M 541.330915 97.936562 
L 585.330915 97.936562 
" style="fill:none;stroke:#1f77b4;stroke-dasharray:1.5,2.475;stroke-dashoffset:0;stroke-width:1.5;"/>
    </g>
    <g id="line2d_46"/>
    <g id="text_27">
     <!-- Individual Target -->
     <g transform="translate(602.930915 105.636562)scale(0.22 -0.22)">
      <defs>
       <path d="M 7 68 
L 7 65.796875 
L 9.09375 65.796875 
C 11.5 65.796875 13.703125 65.390625 13.703125 61.71875 
L 13.703125 8.65625 
C 13.703125 7.859375 13.796875 6.96875 13.796875 6.078125 
C 13.796875 2.484375 11.203125 2.1875 8.5 2.1875 
L 7 2.1875 
L 7 0 
L 25.296875 0 
L 25.296875 2.1875 
L 23.703125 2.1875 
C 20.90625 2.1875 18.5 2.484375 18.5 6.078125 
C 18.5 6.96875 18.59375 7.859375 18.59375 8.65625 
L 18.59375 61.71875 
C 18.59375 65.59375 20.90625 65.796875 24 65.796875 
L 25.296875 65.796875 
L 25.296875 68 
z
" id="Computer_Modern_Roman-73"/>
       <path d="M 4.703125 42.875 
L 4.703125 40.65625 
L 5.703125 40.65625 
C 8.90625 40.65625 10.59375 39.953125 10.59375 35.515625 
L 10.59375 5.625 
C 10.59375 2.390625 8.203125 2.1875 4.703125 2.1875 
L 4.703125 0 
L 20.59375 0 
L 20.59375 2.1875 
L 19.203125 2.1875 
C 16.90625 2.1875 14.703125 2.5 14.703125 5.625 
L 14.703125 27.734375 
C 15.296875 34.609375 18.796875 42.78125 26.703125 42.78125 
C 33 42.78125 35.40625 37.734375 35.40625 30.46875 
L 35.40625 5.625 
C 35.40625 2.390625 33 2.1875 29.5 2.1875 
L 29.5 0 
L 45.40625 0 
L 45.40625 2.1875 
L 43.796875 2.1875 
C 41.5 2.1875 39.5 2.5 39.5 6.03125 
L 39.5 29.453125 
C 39.5 35.921875 38.296875 44 27.5 44 
C 22.09375 44 18.40625 41.0625 16 36.71875 
C 15.40625 35.609375 14.796875 34.40625 14.59375 33.1875 
L 14.5 44 
z
" id="Computer_Modern_Roman-110"/>
       <path d="M 29.40625 68.875 
L 29.40625 66.640625 
L 30.5 66.640625 
C 33.59375 66.640625 35.296875 65.734375 35.296875 61.875 
L 35.203125 36.015625 
C 33.296875 40.671875 27.59375 43.828125 22.796875 43.828125 
C 11.09375 43.828125 4.203125 31.859375 4.203125 21.203125 
C 4.203125 11.15625 10.203125 -0.296875 20.90625 -1 
L 21.796875 -1 
C 27.203125 -1 33.09375 2.34375 35.09375 7.3125 
L 35.203125 -1 
L 45.203125 -0.40625 
L 45.203125 1.828125 
L 44 1.828125 
C 40.703125 1.828125 39.296875 3.046875 39.296875 6.59375 
L 39.296875 70 
z
M 9.296875 18.96875 
L 9.296875 20.5 
C 9.296875 27.5 10.296875 35.8125 16.5 40.265625 
C 18.59375 41.796875 21 42.609375 23.40625 42.609375 
C 29.09375 42.609375 35.296875 37.125 35.296875 31.25 
C 35.296875 30.125 35.203125 28.90625 35.203125 27.796875 
L 35.203125 11.46875 
C 35.203125 5.984375 28.296875 0.203125 22.5 0.203125 
C 14.796875 0.203125 10.59375 8.125 9.703125 14.8125 
C 9.5 16.234375 9.5 17.546875 9.296875 18.96875 
z
" id="Computer_Modern_Roman-100"/>
       <path d="M 5.09375 42.6875 
L 5.09375 40.46875 
L 5.59375 40.46875 
C 8.796875 40.46875 10.59375 39.96875 10.59375 35.15625 
L 10.59375 5.609375 
C 10.59375 2.390625 8.296875 2.1875 4.796875 2.1875 
L 4.796875 0 
L 19.90625 0 
L 19.90625 2.1875 
L 18.59375 2.1875 
C 16.5 2.1875 14.59375 2.390625 14.59375 5.8125 
L 14.59375 43.796875 
z
M 10.90625 65 
C 9.296875 65 8.296875 63.1875 8.296875 61.875 
C 8.296875 60.375 9.5 58.5625 11.40625 58.5625 
C 13.40625 58.5625 14.59375 60.265625 14.59375 61.78125 
C 14.59375 63.1875 13.40625 65 11.5 65 
C 11.296875 65.09375 11.09375 65 10.90625 65 
z
" id="Computer_Modern_Roman-105"/>
       <path d="M 1.40625 43 
L 1.40625 40.796875 
L 2.09375 40.796875 
C 7.09375 40.796875 7.203125 38.765625 10.59375 30.296875 
C 14.40625 20.703125 18 11.109375 21.90625 1.515625 
C 22.203125 0.703125 22.5 -1 23.59375 -1 
C 24.90625 -1 27.09375 6.0625 28.5 9.59375 
C 31.59375 17.46875 34.59375 25.34375 37.703125 33.21875 
C 39.09375 36.65625 41 40.796875 45.796875 40.796875 
L 45.796875 43 
L 34.203125 43 
L 34.203125 40.796875 
C 36 40.796875 37.40625 38.96875 37.40625 37.265625 
C 37.40625 35.4375 36.40625 33.421875 35.796875 31.90625 
C 33.5 26.15625 31.296875 20.5 29.09375 14.75 
L 26.703125 8.6875 
C 26.09375 7.265625 25.5 5.953125 25.09375 4.546875 
L 25 4.546875 
C 24.203125 7.671875 22.703125 10.90625 21.40625 13.9375 
L 14.5 31.5 
C 13.59375 33.71875 12 36.859375 12 38.375 
L 12 38.578125 
C 12 40.6875 14.5 40.796875 15.90625 40.796875 
L 15.90625 43 
L 11.09375 43 
z
" id="Computer_Modern_Roman-118"/>
       <path d="M 4.703125 42.875 
L 4.703125 40.625 
L 5.59375 40.625 
C 8.90625 40.625 10.703125 40.125 10.703125 34.109375 
C 10.703125 32.796875 10.59375 31.46875 10.59375 30.140625 
L 10.59375 13.859375 
C 10.59375 6.53125 11.90625 -1 22.796875 -1 
C 29 -1 33.90625 3.375 35.40625 9.171875 
L 35.5 -1 
L 45.40625 -0.390625 
L 45.40625 1.84375 
L 44.40625 1.84375 
C 41.796875 1.84375 39.5 2.140625 39.5 6.421875 
L 39.5 44 
L 29.5 42.875 
L 29.5 40.625 
L 30.59375 40.625 
C 34 40.625 35.40625 39.515625 35.40625 35.34375 
L 35.40625 16.609375 
C 35.40625 9.171875 31.90625 0.21875 23.296875 0.21875 
C 20.59375 0.21875 17.703125 1.125 16.09375 3.46875 
C 14.796875 5.296875 14.703125 7.84375 14.703125 10.1875 
L 14.703125 44 
z
" id="Computer_Modern_Roman-117"/>
       <path d="M 4.796875 68.875 
L 4.796875 66.65625 
L 6 66.65625 
C 9.5 66.65625 10.59375 65.046875 10.59375 61.71875 
L 10.59375 5.828125 
C 10.59375 2.796875 9.296875 2.1875 4.796875 2.1875 
L 4.796875 0 
L 20.40625 0 
L 20.40625 2.1875 
L 18.796875 2.1875 
C 16.59375 2.1875 14.59375 2.5 14.59375 5.71875 
L 14.59375 70 
z
" id="Computer_Modern_Roman-108"/>
       <path d="M 4.703125 68 
L 3.203125 46.328125 
L 4.5 46.328125 
C 4.796875 52.015625 5 59.796875 9 63 
C 12.296875 65.796875 16.796875 65.796875 20.796875 65.796875 
L 26.796875 65.796875 
C 28.59375 65.796875 30 65.296875 30 62.6875 
C 30 62.09375 29.90625 61.390625 29.90625 60.796875 
L 29.90625 8.375 
C 29.90625 7.78125 30 6.984375 30 6.28125 
C 30 2.59375 26.90625 2.1875 23.796875 2.1875 
L 20.90625 2.1875 
L 20.90625 0 
L 43.796875 0 
L 43.796875 2.1875 
L 40.703125 2.1875 
C 37.5 2.1875 34.703125 2.59375 34.703125 6.28125 
C 34.703125 6.984375 34.796875 7.78125 34.796875 8.375 
L 34.796875 60.796875 
C 34.796875 61.390625 34.703125 62.09375 34.703125 62.6875 
C 34.703125 65.296875 36.09375 65.796875 37.90625 65.796875 
L 43.90625 65.796875 
C 50 65.796875 57.203125 65.484375 59 56.5 
C 59.703125 53.203125 60 49.71875 60.203125 46.328125 
L 61.5 46.328125 
L 60 68 
z
" id="Computer_Modern_Roman-84"/>
       <path d="M 10.296875 18.921875 
L 10.296875 18.828125 
C 8.296875 16.828125 7.40625 13.546875 7.40625 10.765625 
C 7.40625 7.1875 8.90625 4.890625 11.703125 2.6875 
C 7 1.890625 2.40625 -2.6875 2.40625 -7.765625 
C 2.40625 -16.21875 14 -20 22.203125 -20 
C 30.203125 -20 42.203125 -17.015625 42.203125 -7.171875 
C 42.203125 -1.6875 38.5 2.5 33.40625 4.09375 
C 29.796875 5.296875 25.90625 5.390625 22.09375 5.390625 
L 19.09375 5.390625 
C 18.203125 5.390625 17.296875 5.296875 16.40625 5.296875 
C 11.59375 5.296875 9.09375 8.28125 9.09375 12.359375 
C 9.09375 14.140625 10.09375 17.734375 11.09375 17.734375 
L 11.203125 17.734375 
C 11.796875 17.734375 13.59375 16.234375 14.796875 15.734375 
C 16.40625 15.046875 18.09375 14.75 19.90625 14.75 
C 28.203125 14.75 33.5 21.90625 33.5 29.171875 
C 33.5 32.453125 32.296875 36.4375 29.90625 38.8125 
L 29.90625 38.921875 
C 32.59375 41.015625 35.40625 42.796875 38.90625 42.796875 
C 39.59375 42.796875 40.296875 42.703125 41 42.5 
C 40.40625 42.109375 39.90625 41.5 39.90625 40.703125 
C 39.90625 39.71875 40.796875 39.015625 41.703125 39.015625 
C 42.90625 39.015625 43.5 39.8125 43.5 40.703125 
C 43.5 43.09375 41.09375 44 39.09375 44 
C 35.796875 44 32.59375 42.59375 30 40.515625 
C 29.796875 40.3125 29.40625 40.015625 29.09375 40.015625 
C 28.5 40.015625 26.5 41.703125 25.203125 42.40625 
C 23.5 43.09375 21.703125 43.5 19.90625 43.5 
C 11.59375 43.5 6.203125 36.234375 6.203125 29.078125 
C 6.203125 25.6875 7.5 21.203125 10.296875 18.921875 
z
M 5.59375 -8.5625 
L 5.59375 -7.765625 
C 5.59375 -4.078125 7.90625 -0.390625 11.203125 1.09375 
C 12.90625 1.890625 14.703125 2 16.59375 2 
L 24.90625 2 
C 30.59375 2 39.09375 0 39.09375 -7.765625 
C 39.09375 -15.53125 28.90625 -18.8125 22.40625 -18.8125 
C 15.703125 -18.8125 6.59375 -15.734375 5.59375 -8.5625 
z
M 11.09375 27.078125 
L 11.09375 28.375 
C 11.09375 33.84375 12.296875 42.203125 19.796875 42.203125 
C 26.296875 42.203125 28.59375 35.640625 28.59375 29.46875 
C 28.59375 25.1875 28.203125 19.625 23.796875 17.125 
C 22.59375 16.390625 21.203125 16 19.90625 16 
C 14 16 11.703125 21.75 11.09375 27.109375 
z
" id="Computer_Modern_Roman-103"/>
       <path d="M 8.796875 23.671875 
L 35.09375 23.671875 
C 35.296875 23.671875 35.703125 23.5625 36.09375 23.5625 
C 36.796875 23.5625 37.09375 23.96875 37.09375 24.578125 
C 37.09375 33.578125 32.796875 44 21.59375 44 
C 9.59375 44 3.703125 31.546875 3.703125 21.640625 
C 3.703125 11.734375 9.203125 0.515625 21.09375 -1 
C 21.5 -0.90625 21.90625 -1 22.296875 -1 
C 29.203125 -1 34.5 3.828125 36.796875 10.390625 
C 36.90625 10.703125 37 11.09375 37 11.40625 
C 37 11.703125 36.90625 12 36.5 12 
C 35.5 12 35.40625 10.390625 35.09375 9.484375 
C 33.09375 4.640625 28.796875 0.40625 23.203125 0.40625 
C 19 0.40625 15 2.828125 12.703125 6.25 
C 9 11.296875 8.796875 17.765625 8.796875 23.703125 
z
M 8.90625 24.921875 
C 9.09375 32.796875 13 42.78125 21.40625 42.78125 
C 28.40625 42.78125 31.40625 35.3125 32.203125 29.46875 
C 32.296875 27.953125 32.296875 26.4375 32.5 24.921875 
z
" id="Computer_Modern_Roman-101"/>
      </defs>
      <use transform="scale(0.996264)" xlink:href="#Computer_Modern_Roman-73"/>
      <use transform="translate(32.120788 0)scale(0.996264)" xlink:href="#Computer_Modern_Roman-110"/>
      <use transform="translate(81.659217 0)scale(0.996264)" xlink:href="#Computer_Modern_Roman-100"/>
      <use transform="translate(131.197645 0)scale(0.996264)" xlink:href="#Computer_Modern_Roman-105"/>
      <use transform="translate(155.935977 0)scale(0.996264)" xlink:href="#Computer_Modern_Roman-118"/>
      <use transform="translate(202.994417 0)scale(0.996264)" xlink:href="#Computer_Modern_Roman-105"/>
      <use transform="translate(227.732748 0)scale(0.996264)" xlink:href="#Computer_Modern_Roman-100"/>
      <use transform="translate(277.271177 0)scale(0.996264)" xlink:href="#Computer_Modern_Roman-117"/>
      <use transform="translate(326.809605 0)scale(0.996264)" xlink:href="#Computer_Modern_Roman-97"/>
      <use transform="translate(371.388072 0)scale(0.996264)" xlink:href="#Computer_Modern_Roman-108"/>
      <use transform="translate(425.824697 0)scale(0.996264)" xlink:href="#Computer_Modern_Roman-84"/>
      <use transform="translate(482.803242 0)scale(0.996264)" xlink:href="#Computer_Modern_Roman-97"/>
      <use transform="translate(527.381709 0)scale(0.996264)" xlink:href="#Computer_Modern_Roman-114"/>
      <use transform="translate(562.040055 0)scale(0.996264)" xlink:href="#Computer_Modern_Roman-103"/>
      <use transform="translate(606.618522 0)scale(0.996264)" xlink:href="#Computer_Modern_Roman-101"/>
      <use transform="translate(646.23692 0)scale(0.996264)" xlink:href="#Computer_Modern_Roman-116"/>
     </g>
    </g>
   </g>
  </g>
 </g>
 <defs>
  <clipPath id="pc067e7dda4">
   <rect height="434.88" width="669.6" x="108" y="69.12"/>
  </clipPath>
 </defs>
</svg>
