<?xml version="1.0" encoding="utf-8" standalone="no"?>
<!DOCTYPE svg PUBLIC "-//W3C//DTD SVG 1.1//EN"
  "http://www.w3.org/Graphics/SVG/1.1/DTD/svg11.dtd">
<!-- Created with matplotlib (https://matplotlib.org/) -->
<svg height="576pt" version="1.1" viewBox="0 0 864 576" width="864pt" xmlns="http://www.w3.org/2000/svg" xmlns:xlink="http://www.w3.org/1999/xlink">
 <metadata>
  <rdf:RDF xmlns:cc="http://creativecommons.org/ns#" xmlns:dc="http://purl.org/dc/elements/1.1/" xmlns:rdf="http://www.w3.org/1999/02/22-rdf-syntax-ns#">
   <cc:Work>
    <dc:type rdf:resource="http://purl.org/dc/dcmitype/StillImage"/>
    <dc:date>2022-02-09T19:30:27.085735</dc:date>
    <dc:format>image/svg+xml</dc:format>
    <dc:creator>
     <cc:Agent>
      <dc:title>Matplotlib v3.3.2, https://matplotlib.org/</dc:title>
     </cc:Agent>
    </dc:creator>
   </cc:Work>
  </rdf:RDF>
 </metadata>
 <defs>
  <style type="text/css">*{stroke-linecap:butt;stroke-linejoin:round;}</style>
 </defs>
 <g id="figure_1">
  <g id="patch_1">
   <path d="M 0 576 
L 864 576 
L 864 0 
L 0 0 
z
" style="fill:none;"/>
  </g>
  <g id="axes_1">
   <g id="patch_2">
    <path d="M 108 504 
L 777.6 504 
L 777.6 69.12 
L 108 69.12 
z
" style="fill:#ffffff;"/>
   </g>
   <g id="matplotlib.axis_1">
    <g id="xtick_1">
     <g id="line2d_1">
      <defs>
       <path d="M 0 0 
L 0 3.5 
" id="m4aac893d82" style="stroke:#000000;stroke-width:0.8;"/>
      </defs>
      <g>
       <use style="stroke:#000000;stroke-width:0.8;" x="108" xlink:href="#m4aac893d82" y="504"/>
      </g>
     </g>
     <g id="line2d_2">
      <defs>
       <path d="M 0 0 
L 0 -3.5 
" id="m709f46650f" style="stroke:#000000;stroke-width:0.8;"/>
      </defs>
      <g>
       <use style="stroke:#000000;stroke-width:0.8;" x="108" xlink:href="#m709f46650f" y="69.12"/>
      </g>
     </g>
    </g>
    <g id="xtick_2">
     <g id="line2d_3">
      <g>
       <use style="stroke:#000000;stroke-width:0.8;" x="191.7" xlink:href="#m4aac893d82" y="504"/>
      </g>
     </g>
     <g id="line2d_4">
      <g>
       <use style="stroke:#000000;stroke-width:0.8;" x="191.7" xlink:href="#m709f46650f" y="69.12"/>
      </g>
     </g>
    </g>
    <g id="xtick_3">
     <g id="line2d_5">
      <g>
       <use style="stroke:#000000;stroke-width:0.8;" x="275.4" xlink:href="#m4aac893d82" y="504"/>
      </g>
     </g>
     <g id="line2d_6">
      <g>
       <use style="stroke:#000000;stroke-width:0.8;" x="275.4" xlink:href="#m709f46650f" y="69.12"/>
      </g>
     </g>
    </g>
    <g id="xtick_4">
     <g id="line2d_7">
      <g>
       <use style="stroke:#000000;stroke-width:0.8;" x="359.1" xlink:href="#m4aac893d82" y="504"/>
      </g>
     </g>
     <g id="line2d_8">
      <g>
       <use style="stroke:#000000;stroke-width:0.8;" x="359.1" xlink:href="#m709f46650f" y="69.12"/>
      </g>
     </g>
    </g>
    <g id="xtick_5">
     <g id="line2d_9">
      <g>
       <use style="stroke:#000000;stroke-width:0.8;" x="442.8" xlink:href="#m4aac893d82" y="504"/>
      </g>
     </g>
     <g id="line2d_10">
      <g>
       <use style="stroke:#000000;stroke-width:0.8;" x="442.8" xlink:href="#m709f46650f" y="69.12"/>
      </g>
     </g>
    </g>
    <g id="xtick_6">
     <g id="line2d_11">
      <g>
       <use style="stroke:#000000;stroke-width:0.8;" x="526.5" xlink:href="#m4aac893d82" y="504"/>
      </g>
     </g>
     <g id="line2d_12">
      <g>
       <use style="stroke:#000000;stroke-width:0.8;" x="526.5" xlink:href="#m709f46650f" y="69.12"/>
      </g>
     </g>
    </g>
    <g id="xtick_7">
     <g id="line2d_13">
      <g>
       <use style="stroke:#000000;stroke-width:0.8;" x="610.2" xlink:href="#m4aac893d82" y="504"/>
      </g>
     </g>
     <g id="line2d_14">
      <g>
       <use style="stroke:#000000;stroke-width:0.8;" x="610.2" xlink:href="#m709f46650f" y="69.12"/>
      </g>
     </g>
    </g>
    <g id="xtick_8">
     <g id="line2d_15">
      <g>
       <use style="stroke:#000000;stroke-width:0.8;" x="693.9" xlink:href="#m4aac893d82" y="504"/>
      </g>
     </g>
     <g id="line2d_16">
      <g>
       <use style="stroke:#000000;stroke-width:0.8;" x="693.9" xlink:href="#m709f46650f" y="69.12"/>
      </g>
     </g>
    </g>
    <g id="xtick_9">
     <g id="line2d_17">
      <g>
       <use style="stroke:#000000;stroke-width:0.8;" x="777.6" xlink:href="#m4aac893d82" y="504"/>
      </g>
     </g>
     <g id="line2d_18">
      <g>
       <use style="stroke:#000000;stroke-width:0.8;" x="777.6" xlink:href="#m709f46650f" y="69.12"/>
      </g>
     </g>
    </g>
    <g id="text_1">
     <!-- $\mathit{m}$ -->
     <g transform="translate(760.065595 523.093242)scale(0.22 -0.22)">
      <defs>
       <path d="M 49.796875 27.03125 
C 50.40625 29.328125 55.796875 41.984375 65.40625 41.984375 
C 70 41.984375 70 37 70 35.3125 
C 70 29.125 65.59375 17.15625 63.90625 12.265625 
C 63 9.765625 62.59375 8.875 62.59375 6.78125 
C 62.59375 1.984375 65.703125 -1 69.796875 -1 
C 79.09375 -1 82.296875 13.859375 82.296875 14.265625 
C 82.296875 15.15625 81.40625 15.15625 81 15.15625 
C 79.796875 15.15625 79.703125 14.859375 79.296875 13.359375 
C 78.40625 9.96875 75.703125 1 70.09375 1 
C 68.59375 1 67.796875 1.6875 67.796875 3.984375 
C 67.796875 6.375 68.90625 9.46875 69.703125 11.46875 
C 72.296875 18.75 75.703125 28.03125 75.703125 33.8125 
C 75.703125 39.09375 73.40625 44 65.703125 44 
C 59.5 44 54.5 40.390625 50.90625 34.90625 
C 50.296875 41.6875 45.59375 44 40.796875 44 
C 35 44 30.09375 40.890625 26.5 35.90625 
C 26.203125 40.390625 23.09375 44 18.5 44 
C 16.203125 44 13.59375 42.984375 11.5 38.703125 
C 9.59375 35.015625 8.296875 29.03125 8.296875 28.828125 
C 8.296875 28.03125 8.796875 27.828125 9.703125 27.828125 
C 10.796875 27.828125 10.90625 27.921875 11.5 30.21875 
C 13 36.109375 14.90625 41.984375 18.296875 41.984375 
C 20.90625 41.984375 20.90625 39.09375 20.90625 37.90625 
C 20.90625 36.015625 20.5 33.8125 20.09375 32.421875 
L 12.796875 3.28125 
C 12.40625 1.890625 12.40625 1.796875 12.40625 1.390625 
C 12.40625 0.1875 13.203125 -1 15 -1 
C 16.203125 -1 17.796875 -0.3125 18.5 1.6875 
C 18.703125 2.6875 22.5 17.65625 23.09375 20.140625 
C 23.59375 22.34375 24.203125 24.4375 24.703125 26.625 
C 25.703125 30.328125 31.203125 41.984375 40.5 41.984375 
C 45.09375 41.984375 45.09375 36.90625 45.09375 35.3125 
C 45.09375 33.3125 44.703125 31.125 44.296875 29.328125 
L 37.703125 2.984375 
C 37.40625 1.890625 37.40625 1.59375 37.40625 1.390625 
C 37.40625 0.296875 38.203125 -1 40 -1 
C 42.296875 -1 43.296875 0.796875 43.703125 2.484375 
z
" id="CMTI12-109"/>
      </defs>
      <use transform="scale(0.996264)" xlink:href="#CMTI12-109"/>
     </g>
    </g>
   </g>
   <g id="matplotlib.axis_2">
    <g id="ytick_1">
     <g id="line2d_19">
      <defs>
       <path d="M 0 0 
L -3.5 0 
" id="m1afe277b4d" style="stroke:#000000;stroke-width:0.8;"/>
      </defs>
      <g>
       <use style="stroke:#000000;stroke-width:0.8;" x="108" xlink:href="#m1afe277b4d" y="504"/>
      </g>
     </g>
     <g id="line2d_20">
      <defs>
       <path d="M 0 0 
L 3.5 0 
" id="m7a805d2848" style="stroke:#000000;stroke-width:0.8;"/>
      </defs>
      <g>
       <use style="stroke:#000000;stroke-width:0.8;" x="777.6" xlink:href="#m7a805d2848" y="504"/>
      </g>
     </g>
    </g>
    <g id="ytick_2">
     <g id="line2d_21">
      <g>
       <use style="stroke:#000000;stroke-width:0.8;" x="108" xlink:href="#m1afe277b4d" y="453.360442"/>
      </g>
     </g>
     <g id="line2d_22">
      <g>
       <use style="stroke:#000000;stroke-width:0.8;" x="777.6" xlink:href="#m7a805d2848" y="453.360442"/>
      </g>
     </g>
    </g>
    <g id="ytick_3">
     <g id="line2d_23">
      <g>
       <use style="stroke:#000000;stroke-width:0.8;" x="108" xlink:href="#m1afe277b4d" y="402.720883"/>
      </g>
     </g>
     <g id="line2d_24">
      <g>
       <use style="stroke:#000000;stroke-width:0.8;" x="777.6" xlink:href="#m7a805d2848" y="402.720883"/>
      </g>
     </g>
    </g>
    <g id="ytick_4">
     <g id="line2d_25">
      <g>
       <use style="stroke:#000000;stroke-width:0.8;" x="108" xlink:href="#m1afe277b4d" y="352.081325"/>
      </g>
     </g>
     <g id="line2d_26">
      <g>
       <use style="stroke:#000000;stroke-width:0.8;" x="777.6" xlink:href="#m7a805d2848" y="352.081325"/>
      </g>
     </g>
    </g>
    <g id="ytick_5">
     <g id="line2d_27">
      <g>
       <use style="stroke:#000000;stroke-width:0.8;" x="108" xlink:href="#m1afe277b4d" y="301.441766"/>
      </g>
     </g>
     <g id="line2d_28">
      <g>
       <use style="stroke:#000000;stroke-width:0.8;" x="777.6" xlink:href="#m7a805d2848" y="301.441766"/>
      </g>
     </g>
    </g>
    <g id="ytick_6">
     <g id="line2d_29">
      <g>
       <use style="stroke:#000000;stroke-width:0.8;" x="108" xlink:href="#m1afe277b4d" y="250.802208"/>
      </g>
     </g>
     <g id="line2d_30">
      <g>
       <use style="stroke:#000000;stroke-width:0.8;" x="777.6" xlink:href="#m7a805d2848" y="250.802208"/>
      </g>
     </g>
    </g>
    <g id="ytick_7">
     <g id="line2d_31">
      <g>
       <use style="stroke:#000000;stroke-width:0.8;" x="108" xlink:href="#m1afe277b4d" y="200.16265"/>
      </g>
     </g>
     <g id="line2d_32">
      <g>
       <use style="stroke:#000000;stroke-width:0.8;" x="777.6" xlink:href="#m7a805d2848" y="200.16265"/>
      </g>
     </g>
    </g>
    <g id="ytick_8">
     <g id="line2d_33">
      <g>
       <use style="stroke:#000000;stroke-width:0.8;" x="108" xlink:href="#m1afe277b4d" y="149.523091"/>
      </g>
     </g>
     <g id="line2d_34">
      <g>
       <use style="stroke:#000000;stroke-width:0.8;" x="777.6" xlink:href="#m7a805d2848" y="149.523091"/>
      </g>
     </g>
    </g>
    <g id="ytick_9">
     <g id="line2d_35">
      <g>
       <use style="stroke:#000000;stroke-width:0.8;" x="108" xlink:href="#m1afe277b4d" y="98.883533"/>
      </g>
     </g>
     <g id="line2d_36">
      <g>
       <use style="stroke:#000000;stroke-width:0.8;" x="777.6" xlink:href="#m7a805d2848" y="98.883533"/>
      </g>
     </g>
    </g>
    <g id="text_2">
     <!-- $\mathit{c}$ -->
     <g transform="translate(94.136886 64.85739)scale(0.22 -0.22)">
      <defs>
       <path d="M 43 37.390625 
C 40.5 37.296875 38.296875 35.390625 38.296875 33 
C 38.296875 30.5 40.5 30 41.40625 30 
C 42.40625 30 46.09375 30.59375 46.09375 35.796875 
C 46.09375 40.359375 41.90625 44 35.796875 44 
C 23.59375 44 11 30.09375 11 15.234375 
C 11 5 17.09375 -1 25.09375 -1 
C 37.5 -1 45.703125 9.125 45.703125 10.53125 
C 45.703125 11.234375 44.90625 12.03125 44.296875 12.03125 
C 44 12.03125 43.90625 11.921875 43.09375 11.03125 
C 37.796875 3.796875 30.296875 1 25.203125 1 
C 20.09375 1 17.40625 5.5 17.40625 11.421875 
C 17.40625 16.046875 19.796875 27.078125 23.09375 32.796875 
C 26.5 38.734375 31.40625 41.984375 35.703125 41.984375 
C 36.296875 41.984375 41.59375 41.984375 43 37.390625 
z
" id="CMTI12-99"/>
      </defs>
      <use transform="scale(0.996264)" xlink:href="#CMTI12-99"/>
     </g>
    </g>
   </g>
   <g id="line2d_37">
    <path clip-path="url(#pa0d883af44)" d="M 108 504 
L 131.459459 438.187081 
L 142.183784 408.746047 
L 150.227027 387.336225 
L 155.589189 373.613515 
L 160.281081 362.189603 
L 163.632432 354.49834 
L 166.983784 347.356123 
L 169.664865 342.126206 
L 172.345946 337.417262 
L 174.356757 334.256374 
L 176.367568 331.431939 
L 178.378378 328.939723 
L 180.389189 326.75823 
L 182.4 324.86707 
L 184.410811 323.220411 
L 187.091892 321.347327 
L 189.772973 319.768414 
L 193.124324 318.101962 
L 196.475676 316.68451 
L 200.497297 315.213656 
L 205.859459 313.516229 
L 212.562162 311.662996 
L 220.605405 309.677342 
L 231.32973 307.266105 
L 246.745946 304.046953 
L 271.545946 299.124395 
L 309.751351 291.777588 
L 357.340541 282.857808 
L 410.291892 273.171591 
L 465.924324 263.221792 
L 527.589189 252.423783 
L 593.275676 241.149222 
L 667.675676 228.62201 
L 750.118919 214.999121 
L 777.6 210.511699 
L 777.6 210.511699 
" style="fill:none;stroke:#000000;stroke-linecap:square;stroke-width:1.5;"/>
   </g>
   <g id="line2d_38">
    <path clip-path="url(#pa0d883af44)" d="M 108 262.420106 
L 777.6 169.476923 
L 777.6 169.476923 
" style="fill:none;stroke:#000000;stroke-dasharray:5.55,2.4;stroke-dashoffset:0;stroke-width:1.5;"/>
   </g>
   <g id="line2d_39">
    <path clip-path="url(#pa0d883af44)" d="M 108 253.236802 
L 777.6 233.760049 
L 777.6 233.760049 
" style="fill:none;stroke:#000000;stroke-dasharray:1.5,2.475;stroke-dashoffset:0;stroke-width:1.5;"/>
   </g>
   <g id="line2d_40">
    <path clip-path="url(#pa0d883af44)" d="M 607.698121 238.70201 
" style="fill:none;stroke:#000000;stroke-linecap:square;stroke-width:1.5;"/>
    <defs>
     <path d="M 0 3.75 
C 0.994512 3.75 1.948425 3.354876 2.65165 2.65165 
C 3.354876 1.948425 3.75 0.994512 3.75 0 
C 3.75 -0.994512 3.354876 -1.948425 2.65165 -2.65165 
C 1.948425 -3.354876 0.994512 -3.75 0 -3.75 
C -0.994512 -3.75 -1.948425 -3.354876 -2.65165 -2.65165 
C -3.354876 -1.948425 -3.75 -0.994512 -3.75 0 
C -3.75 0.994512 -3.354876 1.948425 -2.65165 2.65165 
C -1.948425 3.354876 -0.994512 3.75 0 3.75 
z
" id="m1d45de3bac" style="stroke:#000000;"/>
    </defs>
    <g clip-path="url(#pa0d883af44)">
     <use style="stroke:#000000;" x="607.698121" xlink:href="#m1d45de3bac" y="238.70201"/>
    </g>
   </g>
   <g id="patch_3">
    <path d="M 108 504 
L 108 69.12 
" style="fill:none;stroke:#000000;stroke-linecap:square;stroke-linejoin:miter;stroke-width:0.8;"/>
   </g>
   <g id="patch_4">
    <path d="M 777.6 504 
L 777.6 69.12 
" style="fill:none;stroke:#000000;stroke-linecap:square;stroke-linejoin:miter;stroke-width:0.8;"/>
   </g>
   <g id="patch_5">
    <path d="M 108 504 
L 777.6 504 
" style="fill:none;stroke:#000000;stroke-linecap:square;stroke-linejoin:miter;stroke-width:0.8;"/>
   </g>
   <g id="patch_6">
    <path d="M 108 69.12 
L 777.6 69.12 
" style="fill:none;stroke:#000000;stroke-linecap:square;stroke-linejoin:miter;stroke-width:0.8;"/>
   </g>
   <g id="text_3">
    <!-- $\mathrm{c}(m_{t})$ -->
    <g transform="translate(191.7 352.081325)scale(0.22 -0.22)">
     <defs>
      <path d="M 34.90625 35 
C 33 35 30.203125 35 30.203125 31.484375 
C 30.203125 28.6875 32.5 27.890625 33.796875 27.890625 
C 34.5 27.890625 37.40625 28.1875 37.40625 31.6875 
C 37.40625 38.6875 30.59375 44 22.90625 44 
C 12.296875 44 3.296875 34.390625 3.296875 21.546875 
C 3.296875 8.140625 12.703125 -1 22.90625 -1 
C 35.296875 -1 38.40625 10.5625 38.40625 11.671875 
C 38.40625 12.078125 38.296875 12.375 37.59375 12.375 
C 36.90625 12.375 36.796875 12.28125 36.40625 10.96875 
C 33.796875 2.8125 28.09375 0.796875 23.796875 0.796875 
C 17.40625 0.796875 9.703125 6.734375 9.703125 21.640625 
C 9.703125 36.84375 17.09375 42.1875 23 42.1875 
C 26.90625 42.1875 32.703125 40.34375 34.90625 35 
z
" id="CMR17-99"/>
      <path d="M 30.59375 -24.40625 
C 30.59375 -24.3125 30.59375 -24.109375 30.296875 -23.8125 
C 25.703125 -19.109375 13.40625 -6.296875 13.40625 24.9375 
C 13.40625 56.171875 25.5 68.875 30.40625 73.890625 
C 30.40625 73.984375 30.59375 74.1875 30.59375 74.484375 
C 30.59375 74.796875 30.296875 75 29.90625 75 
C 28.796875 75 20.296875 67.578125 15.40625 56.5625 
C 10.40625 45.453125 9 34.65625 9 25.046875 
C 9 17.828125 9.703125 5.625 15.703125 -7.296875 
C 20.5 -17.703125 28.703125 -25 29.90625 -25 
C 30.40625 -25 30.59375 -24.8125 30.59375 -24.40625 
z
" id="CMR17-40"/>
      <path d="M 20.59375 29.21875 
C 20.796875 29.828125 23.296875 34.8125 27 38 
C 29.59375 40.390625 33 41.984375 36.90625 41.984375 
C 40.90625 41.984375 42.296875 39 42.296875 35.015625 
C 42.296875 34.40625 42.296875 32.421875 41.09375 27.734375 
L 38.59375 17.453125 
C 37.796875 14.453125 35.90625 7.078125 35.703125 5.984375 
C 35.296875 4.484375 34.703125 1.890625 34.703125 1.484375 
C 34.703125 0.09375 35.796875 -1 37.296875 -1 
C 40.296875 -1 40.796875 1.296875 41.703125 4.890625 
L 47.703125 28.71875 
C 47.90625 29.53125 53.09375 41.984375 64.09375 41.984375 
C 68.09375 41.984375 69.5 39 69.5 35.015625 
C 69.5 29.421875 65.59375 18.546875 63.40625 12.5625 
C 62.5 10.171875 62 8.875 62 7.078125 
C 62 2.59375 65.09375 -1 69.90625 -1 
C 79.203125 -1 82.703125 13.65625 82.703125 14.265625 
C 82.703125 14.765625 82.296875 15.15625 81.703125 15.15625 
C 80.796875 15.15625 80.703125 14.859375 80.203125 13.15625 
C 77.90625 5.1875 74.203125 1 70.203125 1 
C 69.203125 1 67.59375 1.09375 67.59375 4.28125 
C 67.59375 6.875 68.796875 10.078125 69.203125 11.171875 
C 71 15.953125 75.5 27.734375 75.5 33.515625 
C 75.5 39.5 72 44 64.40625 44 
C 57.703125 44 52.296875 40.203125 48.296875 34.3125 
C 48 39.703125 44.703125 44 37.203125 44 
C 28.296875 44 23.59375 37.703125 21.796875 35.203125 
C 21.5 40.890625 17.40625 44 13 44 
C 10.09375 44 7.796875 42.59375 5.90625 38.796875 
C 4.09375 35.203125 2.703125 29.125 2.703125 28.71875 
C 2.703125 28.328125 3.09375 27.828125 3.796875 27.828125 
C 4.59375 27.828125 4.703125 27.921875 5.296875 30.21875 
C 6.796875 36.109375 8.703125 41.984375 12.703125 41.984375 
C 15 41.984375 15.796875 40.390625 15.796875 37.40625 
C 15.796875 35.203125 14.796875 31.3125 14.09375 28.234375 
L 11.296875 17.453125 
C 10.90625 15.5625 9.796875 11.0625 9.296875 9.265625 
C 8.59375 6.671875 7.5 1.984375 7.5 1.484375 
C 7.5 0.09375 8.59375 -1 10.09375 -1 
C 11.296875 -1 12.703125 -0.40625 13.5 1.09375 
C 13.703125 1.59375 14.59375 5.078125 15.09375 7.078125 
L 17.296875 16.0625 
z
" id="CMMI12-109"/>
      <path d="M 20.09375 40.09375 
L 29.296875 40.09375 
C 31.203125 40.09375 32.203125 40.09375 32.203125 41.890625 
C 32.203125 43 31.59375 43 29.59375 43 
L 20.796875 43 
L 24.5 57.25 
C 24.90625 58.625 24.90625 58.8125 24.90625 59.5 
C 24.90625 61.09375 23.59375 62 22.296875 62 
C 21.5 62 19.203125 61.6875 18.40625 58.53125 
L 14.5 43 
L 5.09375 43 
C 3.09375 43 2.203125 43 2.203125 41.09375 
C 2.203125 40.09375 2.90625 40.09375 4.796875 40.09375 
L 13.703125 40.09375 
L 7.09375 13.765625 
C 6.296875 10.265625 6 9.265625 6 7.96875 
C 6 3.28125 9.296875 -1 14.90625 -1 
C 25 -1 30.40625 13.5625 30.40625 14.265625 
C 30.40625 14.859375 30 15.15625 29.40625 15.15625 
C 29.203125 15.15625 28.796875 15.15625 28.59375 14.75 
C 28.5 14.65625 28.40625 14.5625 27.703125 12.96875 
C 25.59375 7.96875 21 1 15.203125 1 
C 12.203125 1 12 3.484375 12 5.6875 
C 12 5.78125 12 7.671875 12.296875 8.875 
z
" id="CMMI12-116"/>
      <path d="M 26.296875 24.9375 
C 26.296875 32.140625 25.59375 44.359375 19.59375 57.265625 
C 14.796875 67.6875 6.59375 75 5.40625 75 
C 5.09375 75 4.703125 74.890625 4.703125 74.390625 
C 4.703125 74.1875 4.796875 74.09375 4.90625 73.890625 
C 9.703125 68.875 21.90625 56.171875 21.90625 25.046875 
C 21.90625 -6.1875 9.796875 -18.90625 4.90625 -23.90625 
C 4.796875 -24.109375 4.703125 -24.203125 4.703125 -24.40625 
C 4.703125 -24.90625 5.09375 -25 5.40625 -25 
C 6.5 -25 15 -17.609375 19.90625 -6.59375 
C 24.90625 4.515625 26.296875 15.328125 26.296875 24.9375 
z
" id="CMR17-41"/>
     </defs>
     <use transform="scale(0.996264)" xlink:href="#CMR17-99"/>
     <use transform="translate(40.48566 0)scale(0.996264)" xlink:href="#CMR17-40"/>
     <use transform="translate(75.766428 0)scale(0.996264)" xlink:href="#CMMI12-109"/>
     <use transform="translate(161.093653 -14.943915)scale(0.697382)" xlink:href="#CMMI12-116"/>
     <use transform="translate(186.250094 0)scale(0.996264)" xlink:href="#CMR17-41"/>
    </g>
   </g>
   <g id="text_4">
    <!-- $\nwarrow$ -->
    <g transform="translate(609.372121 264.021789)scale(0.22 -0.22)">
     <defs>
      <path d="M 15 62.59375 
C 16.703125 62.296875 19 62.09375 20.796875 62.09375 
C 22.796875 62.09375 27.703125 62.296875 33.5 64.390625 
C 34.203125 64.6875 41.59375 67.796875 41.59375 69.390625 
C 41.59375 70.09375 40 71.6875 39.296875 71.6875 
C 38.90625 71.6875 38.59375 71.59375 38 71.1875 
C 30.09375 66 23.203125 66 20.703125 66 
C 14.59375 66 10.09375 67.59375 7.796875 68.6875 
C 7.203125 69 6.90625 69.09375 6.59375 69.09375 
C 6 69.09375 5.59375 68.6875 5.59375 68.09375 
C 5.59375 67.890625 5.59375 67.6875 5.90625 66.890625 
C 7.203125 64.1875 8.703125 59.8125 8.703125 54.03125 
C 8.703125 49.859375 8.09375 43.890625 3.5 36.828125 
C 3.09375 36.125 3 35.921875 3 35.53125 
C 3 34.828125 4.59375 33.234375 5.296875 33.234375 
C 6.703125 33.234375 9.5 39.40625 10.296875 41.296875 
C 12.40625 46.875 12.59375 51.65625 12.59375 53.9375 
C 12.59375 57.125 12.59375 57.21875 12.09375 59.703125 
L 90.203125 -17.90625 
C 91.40625 -19.109375 91.59375 -19.3125 92.40625 -19.3125 
C 93.59375 -19.3125 94.40625 -18.3125 94.40625 -17.3125 
C 94.40625 -16.515625 94.203125 -16.3125 92.90625 -15.015625 
z
" id="CMSY10-45"/>
     </defs>
     <use transform="scale(0.996264)" xlink:href="#CMSY10-45"/>
    </g>
   </g>
   <g id="text_5">
    <!-- $\hat{m}~$ -->
    <g transform="translate(628.623121 284.277612)scale(0.22 -0.22)">
     <defs>
      <path d="M 22.90625 69 
L 10.59375 55.1875 
L 11.796875 54 
L 22.90625 64.984375 
L 34 54 
L 35.203125 55.1875 
z
" id="CMR17-94"/>
     </defs>
     <use transform="translate(19.818381 0.006461)scale(0.996264)" xlink:href="#CMR17-94"/>
     <use transform="scale(0.996264)" xlink:href="#CMMI12-109"/>
    </g>
   </g>
   <g id="legend_1">
    <g id="patch_7">
     <path d="M 534.8682 153.093696 
L 762.2 153.093696 
Q 766.6 153.093696 766.6 148.693696 
L 766.6 84.52 
Q 766.6 80.12 762.2 80.12 
L 534.8682 80.12 
Q 530.4682 80.12 530.4682 84.52 
L 530.4682 148.693696 
Q 530.4682 153.093696 534.8682 153.093696 
z
" style="fill:#ffffff;opacity:0.8;stroke:#cccccc;stroke-linejoin:miter;"/>
    </g>
    <g id="line2d_41">
     <path d="M 539.2682 97.936562 
L 583.2682 97.936562 
" style="fill:none;stroke:#000000;stroke-dasharray:5.55,2.4;stroke-dashoffset:0;stroke-width:1.5;"/>
    </g>
    <g id="line2d_42"/>
    <g id="text_6">
     <!-- $\Ex_{t}[\Delta m_{t+1}] = 0$ -->
     <g transform="translate(600.8682 105.636562)scale(0.22 -0.22)">
      <defs>
       <path d="M 25.90625 34 
C 28.40625 34 33.203125 34 36.703125 31.859375 
C 41.5 28.71875 41.90625 23.25 41.90625 22.640625 
C 42 21.21875 42 19.90625 43.703125 19.90625 
C 45.40625 19.90625 45.40625 21.328125 45.40625 23.15625 
L 45.40625 50.4375 
C 45.40625 52.046875 45.40625 53.65625 43.703125 53.65625 
C 42 53.65625 41.90625 52.140625 41.90625 51.34375 
C 41.296875 38.390625 31.09375 37.6875 25.90625 37.59375 
L 25.90625 58.765625 
C 25.90625 65.484375 27.796875 65.484375 30.203125 65.484375 
L 35 65.484375 
C 48.5 65.484375 55.203125 58.5625 55.796875 51.640625 
C 55.90625 50.84375 56 49.328125 57.59375 49.328125 
C 59.296875 49.328125 59.296875 50.9375 59.296875 52.640625 
L 59.296875 65.6875 
C 59.296875 68.796875 59.09375 69 56 69 
L 4.796875 69 
C 3 69 1.40625 69 1.40625 67.1875 
C 1.40625 65.484375 3.296875 65.484375 4.09375 65.484375 
C 9.796875 65.484375 10.203125 64.6875 10.203125 59.765625 
L 10.203125 9.265625 
C 10.203125 4.5 9.90625 3.5 4.59375 3.5 
C 3.09375 3.5 1.40625 3.5 1.40625 1.796875 
C 1.40625 0 3 0 4.796875 0 
L 57.796875 0 
C 59.703125 0 60.703125 0 61 1.390625 
C 61.09375 1.5 63.90625 18.390625 63.90625 18.890625 
C 63.90625 20.015625 63 20.71875 62.203125 20.71875 
C 60.796875 20.71875 60.40625 19.40625 60.40625 19.296875 
C 59.796875 16.671875 58.796875 12.40625 51.5 8.046875 
C 46.296875 4.90625 41.203125 3.5 35.703125 3.5 
L 30.203125 3.5 
C 27.796875 3.5 25.90625 3.5 25.90625 10.28125 
z
M 55.796875 65.484375 
L 55.796875 60.671875 
C 54.09375 62.578125 52.203125 64.1875 50.09375 65.484375 
z
M 36.296875 36.09375 
C 37.90625 36.796875 40.09375 38.296875 41.90625 40.40625 
L 41.90625 31.96875 
C 39.5 34.6875 36.40625 36 36.296875 36 
z
M 13.703125 59.96875 
C 13.703125 61.171875 13.703125 63.6875 12.90625 65.484375 
L 23.5 65.484375 
C 22.40625 63.1875 22.40625 59.875 22.40625 58.96875 
L 22.40625 10.078125 
C 22.40625 6.4375 23.09375 4.40625 23.5 3.5 
L 12.90625 3.5 
C 13.703125 5.3125 13.703125 7.84375 13.703125 9.0625 
z
M 50.90625 3.5 
L 50.90625 3.59375 
C 54.09375 5.21875 56.796875 7.34375 58.796875 9.171875 
C 58.703125 8.765625 58 4.296875 57.90625 3.5 
z
" id="MSBM10-69"/>
       <path d="M 23.5 -25 
L 23.5 -21.5 
L 14.09375 -21.5 
L 14.09375 71.484375 
L 23.5 71.484375 
L 23.5 75 
L 10.59375 75 
L 10.59375 -25 
z
" id="CMR17-91"/>
       <path d="M 40.59375 69.296875 
C 39.796875 71 39.40625 71 38.59375 71 
C 37.40625 71 37.296875 70.796875 36.59375 69.390625 
L 4.203125 1.6875 
C 4.09375 1.5 3.703125 0.59375 3.703125 0.5 
C 3.703125 0.09375 3.796875 0 5.59375 0 
L 71.5 0 
C 73.296875 0 73.40625 0.09375 73.40625 0.5 
C 73.40625 0.59375 73 1.5 72.90625 1.6875 
z
M 36.09375 63.375 
L 63.796875 5.59375 
L 8.296875 5.59375 
z
" id="CMR17-1"/>
       <path d="M 37.703125 23 
L 64.203125 23 
C 65.59375 23 67.296875 23 67.296875 24.6875 
C 67.296875 26.5 65.703125 26.5 64.203125 26.5 
L 37.703125 26.5 
L 37.703125 52.890625 
C 37.703125 54.296875 37.703125 56 36 56 
C 34.203125 56 34.203125 54.390625 34.203125 52.890625 
L 34.203125 26.5 
L 7.703125 26.5 
C 6.296875 26.5 4.59375 26.5 4.59375 24.796875 
C 4.59375 23 6.203125 23 7.703125 23 
L 34.203125 23 
L 34.203125 -3.03125 
C 34.203125 -4.40625 34.203125 -6.109375 35.90625 -6.109375 
C 37.703125 -6.109375 37.703125 -4.515625 37.703125 -3.03125 
z
" id="CMR17-43"/>
       <path d="M 26.59375 63.796875 
C 26.59375 65.890625 26.5 66 25.09375 66 
C 21.203125 61.359375 15.296875 59.890625 9.703125 59.6875 
C 9.40625 59.6875 8.90625 59.6875 8.796875 59.5 
C 8.703125 59.296875 8.703125 59.09375 8.703125 57 
C 11.796875 57 17 57.59375 21 59.984375 
L 21 7.296875 
C 21 3.796875 20.796875 2.59375 12.203125 2.59375 
L 9.203125 2.59375 
L 9.203125 0 
C 14 0.09375 19 0.1875 23.796875 0.1875 
C 28.59375 0.1875 33.59375 0.09375 38.40625 0 
L 38.40625 2.59375 
L 35.40625 2.59375 
C 26.796875 2.59375 26.59375 3.6875 26.59375 7.296875 
z
" id="CMR17-49"/>
       <path d="M 14.296875 75 
L 1.40625 75 
L 1.40625 71.484375 
L 10.796875 71.484375 
L 10.796875 -21.5 
L 1.40625 -21.5 
L 1.40625 -25 
L 14.296875 -25 
z
" id="CMR17-93"/>
       <path d="M 64.296875 32 
C 65.796875 32 67.296875 32 67.296875 33.6875 
C 67.296875 35.5 65.59375 35.5 63.90625 35.5 
L 8 35.5 
C 6.296875 35.5 4.59375 35.5 4.59375 33.6875 
C 4.59375 32 6.09375 32 7.59375 32 
z
M 63.90625 14.484375 
C 65.59375 14.484375 67.296875 14.484375 67.296875 16.296875 
C 67.296875 18 65.796875 18 64.296875 18 
L 7.59375 18 
C 6.09375 18 4.59375 18 4.59375 16.296875 
C 4.59375 14.484375 6.296875 14.484375 8 14.484375 
z
" id="CMR17-61"/>
       <path d="M 42 31.84375 
C 42 37.96875 41.90625 48.421875 37.703125 56.453125 
C 34 63.484375 28.09375 66 22.90625 66 
C 18.09375 66 12 63.78125 8.203125 56.5625 
C 4.203125 49.015625 3.796875 39.671875 3.796875 31.84375 
C 3.796875 26.109375 3.90625 17.375 7 9.734375 
C 11.296875 -0.609375 19 -2 22.90625 -2 
C 27.5 -2 34.5 -0.109375 38.59375 9.4375 
C 41.59375 16.375 42 24.5 42 31.84375 
z
M 22.90625 -0.40625 
C 16.5 -0.40625 12.703125 5.125 11.296875 12.75 
C 10.203125 18.6875 10.203125 27.328125 10.203125 32.953125 
C 10.203125 40.6875 10.203125 47.109375 11.5 53.234375 
C 13.40625 61.78125 19 64.390625 22.90625 64.390625 
C 27 64.390625 32.296875 61.671875 34.203125 53.4375 
C 35.5 47.71875 35.59375 40.984375 35.59375 32.953125 
C 35.59375 26.421875 35.59375 18.375 34.40625 12.453125 
C 32.296875 1.5 26.40625 -0.40625 22.90625 -0.40625 
z
" id="CMR17-48"/>
      </defs>
      <use transform="scale(0.996264)" xlink:href="#MSBM10-69"/>
      <use transform="translate(66.417819 -14.943915)scale(0.697382)" xlink:href="#CMMI12-116"/>
      <use transform="translate(91.57426 0)scale(0.996264)" xlink:href="#CMR17-91"/>
      <use transform="translate(116.445319 0)scale(0.996264)" xlink:href="#CMR17-1"/>
      <use transform="translate(193.364908 0)scale(0.996264)" xlink:href="#CMMI12-109"/>
      <use transform="translate(278.692133 -14.943915)scale(0.697382)" xlink:href="#CMMI12-116"/>
      <use transform="translate(303.350442 -14.943915)scale(0.697382)" xlink:href="#CMR17-43"/>
      <use transform="translate(353.550574 -14.943915)scale(0.697382)" xlink:href="#CMR17-49"/>
      <use transform="translate(386.031888 0)scale(0.996264)" xlink:href="#CMR17-93"/>
      <use transform="translate(438.576955 0)scale(0.996264)" xlink:href="#CMR17-61"/>
      <use transform="translate(537.965752 0)scale(0.996264)" xlink:href="#CMR17-48"/>
     </g>
    </g>
    <g id="line2d_43">
     <path d="M 539.2682 131.114244 
L 583.2682 131.114244 
" style="fill:none;stroke:#000000;stroke-dasharray:1.5,2.475;stroke-dashoffset:0;stroke-width:1.5;"/>
    </g>
    <g id="line2d_44"/>
    <g id="text_7">
     <!-- $\Ex_{t}[{\mathbf{m}}_{t+1}/{\mathbf{m}}_{t}] = \PermGroFac$ -->
     <g transform="translate(600.8682 138.814244)scale(0.22 -0.22)">
      <defs>
       <path d="M 84.40625 30.59375 
C 84.40625 39.796875 80.5 45 69.296875 45 
C 59.203125 45 54.5 38.1875 52.90625 35 
C 51.296875 43.484375 44.5 45 38.09375 45 
C 28.5 45 23.296875 38.796875 21.203125 34 
L 21.09375 34 
L 21.09375 45 
L 4.203125 44.1875 
L 4.203125 39.890625 
C 10.40625 39.890625 11.09375 39.890625 11.09375 36 
L 11.09375 4.296875 
L 4.203125 4.296875 
L 4.203125 0 
C 6.5 0.1875 13.703125 0.1875 16.5 0.1875 
C 19.296875 0.1875 26.59375 0.1875 28.90625 0 
L 28.90625 4.296875 
L 22 4.296875 
L 22 25.59375 
C 22 36.5 30.09375 41.6875 36.40625 41.6875 
C 40.09375 41.6875 42.296875 39.5 42.296875 31.6875 
L 42.296875 4.296875 
L 35.40625 4.296875 
L 35.40625 0 
C 37.703125 0.1875 44.90625 0.1875 47.703125 0.1875 
C 50.5 0.1875 57.796875 0.1875 60.09375 0 
L 60.09375 4.296875 
L 53.203125 4.296875 
L 53.203125 25.59375 
C 53.203125 36.5 61.296875 41.6875 67.59375 41.6875 
C 71.296875 41.6875 73.5 39.5 73.5 31.6875 
L 73.5 4.296875 
L 66.59375 4.296875 
L 66.59375 0 
C 68.90625 0.1875 76.09375 0.1875 78.90625 0.1875 
C 81.703125 0.1875 89 0.1875 91.296875 0 
L 91.296875 4.296875 
L 84.40625 4.296875 
z
" id="CMBX12-109"/>
       <path d="M 42.90625 71.296875 
C 42.90625 71.390625 43.5 72.890625 43.5 73.09375 
C 43.5 74.296875 42.5 75 41.703125 75 
C 41.203125 75 40.296875 75 39.5 72.796875 
L 6 -21.3125 
C 6 -21.40625 5.40625 -22.90625 5.40625 -23.109375 
C 5.40625 -24.3125 6.40625 -25 7.203125 -25 
C 7.796875 -25 8.703125 -24.90625 9.40625 -22.8125 
z
" id="CMMI12-61"/>
       <path d="M 36.40625 13.296875 
C 52.59375 14.6875 62.09375 24.515625 62.09375 33.9375 
C 62.09375 43.765625 52.203125 53.296875 36.40625 54.6875 
L 36.40625 60.609375 
C 36.40625 64.34375 36.59375 65.390625 44.203125 65.390625 
L 46.40625 65.390625 
L 46.40625 68 
C 42.296875 67.796875 37.5 67.796875 33.296875 67.796875 
C 29.09375 67.796875 24.203125 67.796875 20.09375 68 
L 20.09375 65.390625 
L 22.296875 65.390625 
C 29.90625 65.390625 30.09375 64.34375 30.09375 60.609375 
L 30.09375 54.6875 
C 14.40625 53.296875 4.59375 43.65625 4.59375 34.046875 
C 4.59375 24.03125 14.796875 14.6875 30.09375 13.296875 
L 30.09375 7.375 
C 30.09375 3.625 29.90625 2.59375 22.296875 2.59375 
L 20.09375 2.59375 
L 20.09375 0 
C 24.203125 0.1875 29.09375 0.1875 33.296875 0.1875 
C 37.5 0.1875 42.296875 0.1875 46.40625 0 
L 46.40625 2.59375 
L 44.203125 2.59375 
C 36.59375 2.59375 36.40625 3.625 36.40625 7.375 
z
M 30.09375 15 
C 21.09375 15.96875 12 21.015625 12 33.9375 
C 12 47.25 21.40625 52.109375 30.09375 53 
z
M 36.40625 53 
C 44.296875 52.3125 54.703125 47.9375 54.703125 34.046875 
C 54.703125 19.75 43.90625 15.671875 36.40625 15 
z
" id="CMR17-8"/>
      </defs>
      <use transform="scale(0.996264)" xlink:href="#MSBM10-69"/>
      <use transform="translate(66.417819 -14.943915)scale(0.697382)" xlink:href="#CMMI12-116"/>
      <use transform="translate(91.57426 0)scale(0.996264)" xlink:href="#CMR17-91"/>
      <use transform="translate(116.445319 0)scale(0.996264)" xlink:href="#CMBX12-109"/>
      <use transform="translate(209.84507 -14.943915)scale(0.697382)" xlink:href="#CMMI12-116"/>
      <use transform="translate(234.503379 -14.943915)scale(0.697382)" xlink:href="#CMR17-43"/>
      <use transform="translate(284.703511 -14.943915)scale(0.697382)" xlink:href="#CMR17-49"/>
      <use transform="translate(317.184824 0)scale(0.996264)" xlink:href="#CMMI12-61"/>
      <use transform="translate(365.959743 0)scale(0.996264)" xlink:href="#CMBX12-109"/>
      <use transform="translate(459.359494 -14.943915)scale(0.697382)" xlink:href="#CMMI12-116"/>
      <use transform="translate(484.515936 0)scale(0.996264)" xlink:href="#CMR17-93"/>
      <use transform="translate(537.061003 0)scale(0.996264)" xlink:href="#CMR17-61"/>
      <use transform="translate(636.4498 0)scale(0.996264)" xlink:href="#CMR17-8"/>
     </g>
    </g>
   </g>
  </g>
 </g>
 <defs>
  <clipPath id="pa0d883af44">
   <rect height="434.88" width="669.6" x="108" y="69.12"/>
  </clipPath>
 </defs>
</svg>
