<?xml version="1.0" encoding="utf-8" standalone="no"?>
<!DOCTYPE svg PUBLIC "-//W3C//DTD SVG 1.1//EN"
  "http://www.w3.org/Graphics/SVG/1.1/DTD/svg11.dtd">
<!-- Created with matplotlib (https://matplotlib.org/) -->
<svg height="576pt" version="1.1" viewBox="0 0 864 576" width="864pt" xmlns="http://www.w3.org/2000/svg" xmlns:xlink="http://www.w3.org/1999/xlink">
 <metadata>
  <rdf:RDF xmlns:cc="http://creativecommons.org/ns#" xmlns:dc="http://purl.org/dc/elements/1.1/" xmlns:rdf="http://www.w3.org/1999/02/22-rdf-syntax-ns#">
   <cc:Work>
    <dc:type rdf:resource="http://purl.org/dc/dcmitype/StillImage"/>
    <dc:date>2022-02-09T19:31:07.818028</dc:date>
    <dc:format>image/svg+xml</dc:format>
    <dc:creator>
     <cc:Agent>
      <dc:title>Matplotlib v3.3.2, https://matplotlib.org/</dc:title>
     </cc:Agent>
    </dc:creator>
   </cc:Work>
  </rdf:RDF>
 </metadata>
 <defs>
  <style type="text/css">*{stroke-linecap:butt;stroke-linejoin:round;}</style>
 </defs>
 <g id="figure_1">
  <g id="patch_1">
   <path d="M 0 576 
L 864 576 
L 864 0 
L 0 0 
z
" style="fill:none;"/>
  </g>
  <g id="axes_1">
   <g id="patch_2">
    <path d="M 108 504 
L 777.6 504 
L 777.6 69.12 
L 108 69.12 
z
" style="fill:#ffffff;"/>
   </g>
   <g id="patch_3">
    <path clip-path="url(#p2deb17a46f)" d="M 195.885 238.7232 
L 198.396 234.3744 
L 198.396 238.50576 
L 229.365 238.50576 
L 229.365 238.94064 
L 198.396 238.94064 
L 198.396 243.072 
z
" style="stroke:#000000;stroke-linejoin:miter;"/>
   </g>
   <g id="patch_4">
    <path clip-path="url(#p2deb17a46f)" d="M 308.88 477.9072 
L 306.330335 481.599068 
L 306.370043 477.472863 
L 292.13791 473.775569 
L 292.14209 473.341231 
L 306.374223 477.038525 
L 306.413931 472.91232 
z
" style="stroke:#000000;stroke-linejoin:miter;"/>
   </g>
   <g id="patch_5">
    <path clip-path="url(#p2deb17a46f)" d="M 505.575 101.736 
L 508.18238 99.370622 
L 508.064427 103.456275 
L 522.321208 114.567366 
L 522.308792 114.997434 
L 508.052011 103.886343 
L 507.934058 107.971995 
z
" style="stroke:#000000;stroke-linejoin:miter;"/>
   </g>
   <g id="matplotlib.axis_1">
    <g id="xtick_1">
     <g id="line2d_1">
      <defs>
       <path d="M 0 0 
L 0 3.5 
" id="m51f1685c1d" style="stroke:#000000;stroke-width:0.8;"/>
      </defs>
      <g>
       <use style="stroke:#000000;stroke-width:0.8;" x="108" xlink:href="#m51f1685c1d" y="504"/>
      </g>
     </g>
     <g id="text_1">
      <!-- $\mathdefault{0}$ -->
      <g transform="translate(102.974048 526.093242)scale(0.22 -0.22)">
       <defs>
        <path d="M 42 31.84375 
C 42 37.96875 41.90625 48.421875 37.703125 56.453125 
C 34 63.484375 28.09375 66 22.90625 66 
C 18.09375 66 12 63.78125 8.203125 56.5625 
C 4.203125 49.015625 3.796875 39.671875 3.796875 31.84375 
C 3.796875 26.109375 3.90625 17.375 7 9.734375 
C 11.296875 -0.609375 19 -2 22.90625 -2 
C 27.5 -2 34.5 -0.109375 38.59375 9.4375 
C 41.59375 16.375 42 24.5 42 31.84375 
z
M 22.90625 -0.40625 
C 16.5 -0.40625 12.703125 5.125 11.296875 12.75 
C 10.203125 18.6875 10.203125 27.328125 10.203125 32.953125 
C 10.203125 40.6875 10.203125 47.109375 11.5 53.234375 
C 13.40625 61.78125 19 64.390625 22.90625 64.390625 
C 27 64.390625 32.296875 61.671875 34.203125 53.4375 
C 35.5 47.71875 35.59375 40.984375 35.59375 32.953125 
C 35.59375 26.421875 35.59375 18.375 34.40625 12.453125 
C 32.296875 1.5 26.40625 -0.40625 22.90625 -0.40625 
z
" id="CMR17-48"/>
       </defs>
       <use transform="scale(0.996264)" xlink:href="#CMR17-48"/>
      </g>
     </g>
    </g>
    <g id="xtick_2">
     <g id="line2d_2">
      <g>
       <use style="stroke:#000000;stroke-width:0.8;" x="191.7" xlink:href="#m51f1685c1d" y="504"/>
      </g>
     </g>
     <g id="text_2">
      <!-- $\mathdefault{1}$ -->
      <g transform="translate(186.674048 526.093242)scale(0.22 -0.22)">
       <defs>
        <path d="M 26.59375 63.796875 
C 26.59375 65.890625 26.5 66 25.09375 66 
C 21.203125 61.359375 15.296875 59.890625 9.703125 59.6875 
C 9.40625 59.6875 8.90625 59.6875 8.796875 59.5 
C 8.703125 59.296875 8.703125 59.09375 8.703125 57 
C 11.796875 57 17 57.59375 21 59.984375 
L 21 7.296875 
C 21 3.796875 20.796875 2.59375 12.203125 2.59375 
L 9.203125 2.59375 
L 9.203125 0 
C 14 0.09375 19 0.1875 23.796875 0.1875 
C 28.59375 0.1875 33.59375 0.09375 38.40625 0 
L 38.40625 2.59375 
L 35.40625 2.59375 
C 26.796875 2.59375 26.59375 3.6875 26.59375 7.296875 
z
" id="CMR17-49"/>
       </defs>
       <use transform="scale(0.996264)" xlink:href="#CMR17-49"/>
      </g>
     </g>
    </g>
    <g id="xtick_3">
     <g id="line2d_3">
      <g>
       <use style="stroke:#000000;stroke-width:0.8;" x="275.4" xlink:href="#m51f1685c1d" y="504"/>
      </g>
     </g>
     <g id="text_3">
      <!-- $\mathdefault{2}$ -->
      <g transform="translate(270.374048 526.093242)scale(0.22 -0.22)">
       <defs>
        <path d="M 41.703125 15.46875 
L 39.90625 15.46875 
C 38.90625 8.390625 38.09375 7.1875 37.703125 6.59375 
C 37.203125 5.796875 30 5.796875 28.59375 5.796875 
L 9.40625 5.796875 
C 13 9.6875 20 16.765625 28.5 24.9375 
C 34.59375 30.71875 41.703125 37.5 41.703125 47.390625 
C 41.703125 59.1875 32.296875 66 21.796875 66 
C 10.796875 66 4.09375 56.296875 4.09375 47.296875 
C 4.09375 43.390625 7 42.890625 8.203125 42.890625 
C 9.203125 42.890625 12.203125 43.484375 12.203125 46.984375 
C 12.203125 50.09375 9.59375 51 8.203125 51 
C 7.59375 51 7 50.890625 6.59375 50.6875 
C 8.5 59.1875 14.296875 63.390625 20.40625 63.390625 
C 29.09375 63.390625 34.796875 56.5 34.796875 47.390625 
C 34.796875 38.703125 29.703125 31.21875 24 24.734375 
L 4.09375 2.296875 
L 4.09375 0 
L 39.296875 0 
z
" id="CMR17-50"/>
       </defs>
       <use transform="scale(0.996264)" xlink:href="#CMR17-50"/>
      </g>
     </g>
    </g>
    <g id="xtick_4">
     <g id="line2d_4">
      <g>
       <use style="stroke:#000000;stroke-width:0.8;" x="359.1" xlink:href="#m51f1685c1d" y="504"/>
      </g>
     </g>
     <g id="text_4">
      <!-- $\mathdefault{3}$ -->
      <g transform="translate(354.074048 526.093242)scale(0.22 -0.22)">
       <defs>
        <path d="M 22.09375 34 
C 31 34 34.90625 26.140625 34.90625 17.09375 
C 34.90625 5.03125 28.5 0.390625 22.703125 0.390625 
C 17.40625 0.390625 8.796875 3.015625 6.09375 10.796875 
C 6.59375 10.59375 7.09375 10.59375 7.59375 10.59375 
C 10 10.59375 11.796875 12.1875 11.796875 14.796875 
C 11.796875 17.6875 9.59375 19 7.59375 19 
C 5.90625 19 3.296875 18.1875 3.296875 14.484375 
C 3.296875 5.234375 12.296875 -2 22.90625 -2 
C 34 -2 42.5 6.75 42.5 16.984375 
C 42.5 26.84375 34.5 34 25 35.09375 
C 32.59375 36.671875 39.90625 43.375 39.90625 52.390625 
C 39.90625 60.25 32 66 23 66 
C 13.90625 66 5.90625 60.34375 5.90625 52.296875 
C 5.90625 48.796875 8.5 48.1875 9.796875 48.1875 
C 11.90625 48.1875 13.703125 49.484375 13.703125 52.09375 
C 13.703125 54.6875 11.90625 56 9.796875 56 
C 9.40625 56 8.90625 56 8.5 55.796875 
C 11.40625 62.484375 19.296875 63.6875 22.796875 63.6875 
C 26.296875 63.6875 32.90625 61.96875 32.90625 52.296875 
C 32.90625 49.484375 32.5 44.546875 29.09375 40.21875 
C 26.09375 36.390625 22.703125 36.1875 19.40625 35.890625 
C 18.90625 35.890625 16.59375 35.6875 16.203125 35.6875 
C 15.5 35.59375 15.09375 35.5 15.09375 34.796875 
C 15.09375 34.09375 15.203125 34 17.203125 34 
z
" id="CMR17-51"/>
       </defs>
       <use transform="scale(0.996264)" xlink:href="#CMR17-51"/>
      </g>
     </g>
    </g>
    <g id="xtick_5">
     <g id="line2d_5">
      <g>
       <use style="stroke:#000000;stroke-width:0.8;" x="442.8" xlink:href="#m51f1685c1d" y="504"/>
      </g>
     </g>
     <g id="text_5">
      <!-- $\mathdefault{4}$ -->
      <g transform="translate(437.774048 526.093242)scale(0.22 -0.22)">
       <defs>
        <path d="M 33.59375 64.796875 
C 33.59375 66.890625 33.5 67 31.703125 67 
L 2 19.59375 
L 2 17 
L 27.796875 17 
L 27.796875 7.1875 
C 27.796875 3.59375 27.59375 2.59375 20.59375 2.59375 
L 18.703125 2.59375 
L 18.703125 0 
C 21.90625 0.1875 27.296875 0.1875 30.703125 0.1875 
C 34.09375 0.1875 39.5 0.1875 42.703125 0 
L 42.703125 2.59375 
L 40.796875 2.59375 
C 33.796875 2.59375 33.59375 3.59375 33.59375 7.1875 
L 33.59375 17 
L 43.796875 17 
L 43.796875 19.59375 
L 33.59375 19.59375 
z
M 28.09375 58.171875 
L 28.09375 19.59375 
L 4 19.59375 
z
" id="CMR17-52"/>
       </defs>
       <use transform="scale(0.996264)" xlink:href="#CMR17-52"/>
      </g>
     </g>
    </g>
    <g id="xtick_6">
     <g id="line2d_6">
      <g>
       <use style="stroke:#000000;stroke-width:0.8;" x="526.5" xlink:href="#m51f1685c1d" y="504"/>
      </g>
     </g>
     <g id="text_6">
      <!-- $\mathdefault{5}$ -->
      <g transform="translate(521.474048 526.093242)scale(0.22 -0.22)">
       <defs>
        <path d="M 11.40625 58.59375 
C 12.40625 58.1875 16.5 56.890625 20.703125 56.890625 
C 30 56.890625 35.09375 61.890625 38 64.6875 
C 38 65.484375 38 66 37.40625 66 
C 37.296875 66 37.09375 66 36.296875 65.59375 
C 32.796875 64.09375 28.703125 63 23.703125 63 
C 20.703125 63 16.203125 63.359375 11.296875 65.484375 
C 10.203125 66 10 66 9.90625 66 
C 9.40625 66 9.296875 65.890625 9.296875 63.90625 
L 9.296875 34.859375 
C 9.296875 33.015625 9.296875 32.5 10.296875 32.5 
C 10.796875 32.5 11 32.703125 11.5 33.421875 
C 14.703125 38.046875 19.09375 40 24.09375 40 
C 27.59375 40 35.09375 37.734375 35.09375 20.203125 
C 35.09375 16.984375 35.09375 11.1875 32.09375 6.59375 
C 29.59375 2.484375 25.703125 0.390625 21.40625 0.390625 
C 14.796875 0.390625 8.09375 4.984375 6.296875 12.6875 
C 6.703125 12.59375 7.5 12.390625 7.90625 12.390625 
C 9.203125 12.390625 11.703125 13.09375 11.703125 16.1875 
C 11.703125 18.890625 9.796875 20 7.90625 20 
C 5.59375 20 4.09375 18.59375 4.09375 15.796875 
C 4.09375 7.09375 11 -2 21.59375 -2 
C 31.90625 -2 41.703125 6.890625 41.703125 19.796875 
C 41.703125 32.09375 33.90625 41.59375 24.203125 41.59375 
C 19.09375 41.59375 14.796875 39.6875 11.40625 36 
z
" id="CMR17-53"/>
       </defs>
       <use transform="scale(0.996264)" xlink:href="#CMR17-53"/>
      </g>
     </g>
    </g>
    <g id="xtick_7">
     <g id="line2d_7">
      <g>
       <use style="stroke:#000000;stroke-width:0.8;" x="610.2" xlink:href="#m51f1685c1d" y="504"/>
      </g>
     </g>
     <g id="text_7">
      <!-- $\mathdefault{6}$ -->
      <g transform="translate(605.174048 526.093242)scale(0.22 -0.22)">
       <defs>
        <path d="M 10.59375 34.34375 
C 10.59375 58 21.796875 63.6875 28.296875 63.6875 
C 30.40625 63.6875 35.5 63.265625 37.5 59.09375 
C 35.90625 59.09375 32.90625 59.09375 32.90625 55.59375 
C 32.90625 52.890625 35.09375 52 36.5 52 
C 37.40625 52 40.09375 52.390625 40.09375 55.796875 
C 40.09375 62.296875 35.09375 66 28.203125 66 
C 16.296875 66 3.796875 53.296875 3.796875 31.421875 
C 3.796875 4.015625 15.09375 -2 23.09375 -2 
C 32.796875 -2 42 6.734375 42 20.234375 
C 42 32.828125 33.90625 42 23.703125 42 
C 17.59375 42 13.09375 37.96875 10.59375 30.921875 
z
M 23.09375 0.390625 
C 10.796875 0.390625 10.796875 18.9375 10.796875 22.65625 
C 10.796875 29.90625 14.203125 40.390625 23.5 40.390625 
C 25.203125 40.390625 30.09375 40.390625 33.40625 33.4375 
C 35.203125 29.515625 35.203125 25.375 35.203125 20.34375 
C 35.203125 14.90625 35.203125 10.875 33.09375 6.84375 
C 30.90625 2.703125 27.703125 0.390625 23.09375 0.390625 
z
" id="CMR17-54"/>
       </defs>
       <use transform="scale(0.996264)" xlink:href="#CMR17-54"/>
      </g>
     </g>
    </g>
    <g id="xtick_8">
     <g id="line2d_8">
      <g>
       <use style="stroke:#000000;stroke-width:0.8;" x="693.9" xlink:href="#m51f1685c1d" y="504"/>
      </g>
     </g>
     <g id="text_8">
      <!-- $\mathdefault{7}$ -->
      <g transform="translate(688.874048 526.093242)scale(0.22 -0.22)">
       <defs>
        <path d="M 45.09375 61.796875 
L 45.09375 64 
L 21.59375 64 
C 9.90625 64 9.703125 65.09375 9.296875 67 
L 7.5 67 
L 4.59375 48.5 
L 6.40625 48.5 
C 6.703125 50.40625 7.40625 55.5 8.59375 57.390625 
C 9.203125 58.1875 16.59375 58.1875 18.296875 58.1875 
L 40.296875 58.1875 
L 29.203125 41.71875 
C 21.796875 30.640625 16.703125 15.671875 16.703125 2.59375 
C 16.703125 1.390625 16.703125 -2 20.296875 -2 
C 23.90625 -2 23.90625 1.390625 23.90625 2.6875 
L 23.90625 7.28125 
C 23.90625 23.65625 26.703125 34.4375 31.296875 41.3125 
z
" id="CMR17-55"/>
       </defs>
       <use transform="scale(0.996264)" xlink:href="#CMR17-55"/>
      </g>
     </g>
    </g>
    <g id="xtick_9">
     <g id="line2d_9">
      <g>
       <use style="stroke:#000000;stroke-width:0.8;" x="777.6" xlink:href="#m51f1685c1d" y="504"/>
      </g>
     </g>
     <g id="text_9">
      <!-- $\mathdefault{8}$ -->
      <g transform="translate(772.574048 526.093242)scale(0.22 -0.22)">
       <defs>
        <path d="M 27.203125 35.765625 
C 33.5 38.96875 39.90625 43.796875 39.90625 51.53125 
C 39.90625 60.6875 31.09375 66 23 66 
C 13.90625 66 5.90625 59.375 5.90625 50.234375 
C 5.90625 47.71875 6.5 43.390625 10.40625 39.578125 
C 11.40625 38.578125 15.59375 35.5625 18.296875 33.65625 
C 13.796875 31.34375 3.296875 25.8125 3.296875 14.765625 
C 3.296875 4.40625 13.09375 -2 22.796875 -2 
C 33.5 -2 42.5 5.71875 42.5 15.96875 
C 42.5 25.109375 36.40625 29.328125 32.40625 32.046875 
z
M 14.09375 44.609375 
C 13.296875 45.109375 9.296875 48.21875 9.296875 52.9375 
C 9.296875 59.078125 15.59375 63.6875 22.796875 63.6875 
C 30.703125 63.6875 36.5 58.0625 36.5 51.53125 
C 36.5 42.1875 26.09375 36.859375 25.59375 36.859375 
C 25.5 36.859375 25.40625 36.859375 24.59375 37.46875 
z
M 32.5 24 
C 34 22.90625 38.796875 19.578125 38.796875 13.453125 
C 38.796875 6.015625 31.40625 0.390625 23 0.390625 
C 13.90625 0.390625 7 6.921875 7 14.859375 
C 7 22.796875 13.09375 29.4375 20 32.546875 
z
" id="CMR17-56"/>
       </defs>
       <use transform="scale(0.996264)" xlink:href="#CMR17-56"/>
      </g>
     </g>
    </g>
   </g>
   <g id="matplotlib.axis_2">
    <g id="ytick_1">
     <g id="line2d_10">
      <defs>
       <path d="M 0 0 
L -3.5 0 
" id="mfe4e938675" style="stroke:#000000;stroke-width:0.8;"/>
      </defs>
      <g>
       <use style="stroke:#000000;stroke-width:0.8;" x="108" xlink:href="#mfe4e938675" y="504"/>
      </g>
     </g>
     <g id="text_10">
      <!-- $\mathdefault{0.0}$ -->
      <g transform="translate(74.934811 511.546621)scale(0.22 -0.22)">
       <defs>
        <path d="M 18.40625 4.796875 
C 18.40625 7.6875 16 9.6875 13.59375 9.6875 
C 10.703125 9.6875 8.703125 7.296875 8.703125 4.890625 
C 8.703125 2 11.09375 0 13.5 0 
C 16.40625 0 18.40625 2.390625 18.40625 4.796875 
z
" id="CMMI12-58"/>
       </defs>
       <use transform="scale(0.996264)" xlink:href="#CMR17-48"/>
       <use transform="translate(45.690477 0)scale(0.996264)" xlink:href="#CMMI12-58"/>
       <use transform="translate(72.787654 0)scale(0.996264)" xlink:href="#CMR17-48"/>
      </g>
     </g>
    </g>
    <g id="ytick_2">
     <g id="line2d_11">
      <g>
       <use style="stroke:#000000;stroke-width:0.8;" x="108" xlink:href="#mfe4e938675" y="417.024"/>
      </g>
     </g>
     <g id="text_11">
      <!-- $\mathdefault{0.2}$ -->
      <g transform="translate(74.934811 424.570621)scale(0.22 -0.22)">
       <use transform="scale(0.996264)" xlink:href="#CMR17-48"/>
       <use transform="translate(45.690477 0)scale(0.996264)" xlink:href="#CMMI12-58"/>
       <use transform="translate(72.787654 0)scale(0.996264)" xlink:href="#CMR17-50"/>
      </g>
     </g>
    </g>
    <g id="ytick_3">
     <g id="line2d_12">
      <g>
       <use style="stroke:#000000;stroke-width:0.8;" x="108" xlink:href="#mfe4e938675" y="330.048"/>
      </g>
     </g>
     <g id="text_12">
      <!-- $\mathdefault{0.4}$ -->
      <g transform="translate(74.934811 337.594621)scale(0.22 -0.22)">
       <use transform="scale(0.996264)" xlink:href="#CMR17-48"/>
       <use transform="translate(45.690477 0)scale(0.996264)" xlink:href="#CMMI12-58"/>
       <use transform="translate(72.787654 0)scale(0.996264)" xlink:href="#CMR17-52"/>
      </g>
     </g>
    </g>
    <g id="ytick_4">
     <g id="line2d_13">
      <g>
       <use style="stroke:#000000;stroke-width:0.8;" x="108" xlink:href="#mfe4e938675" y="243.072"/>
      </g>
     </g>
     <g id="text_13">
      <!-- $\mathdefault{0.6}$ -->
      <g transform="translate(74.934811 250.618621)scale(0.22 -0.22)">
       <use transform="scale(0.996264)" xlink:href="#CMR17-48"/>
       <use transform="translate(45.690477 0)scale(0.996264)" xlink:href="#CMMI12-58"/>
       <use transform="translate(72.787654 0)scale(0.996264)" xlink:href="#CMR17-54"/>
      </g>
     </g>
    </g>
    <g id="ytick_5">
     <g id="line2d_14">
      <g>
       <use style="stroke:#000000;stroke-width:0.8;" x="108" xlink:href="#mfe4e938675" y="156.096"/>
      </g>
     </g>
     <g id="text_14">
      <!-- $\mathdefault{0.8}$ -->
      <g transform="translate(74.934811 163.642621)scale(0.22 -0.22)">
       <use transform="scale(0.996264)" xlink:href="#CMR17-48"/>
       <use transform="translate(45.690477 0)scale(0.996264)" xlink:href="#CMMI12-58"/>
       <use transform="translate(72.787654 0)scale(0.996264)" xlink:href="#CMR17-56"/>
      </g>
     </g>
    </g>
    <g id="ytick_6">
     <g id="line2d_15">
      <g>
       <use style="stroke:#000000;stroke-width:0.8;" x="108" xlink:href="#mfe4e938675" y="69.12"/>
      </g>
     </g>
     <g id="text_15">
      <!-- $\mathdefault{1.0}$ -->
      <g transform="translate(74.934811 76.666621)scale(0.22 -0.22)">
       <use transform="scale(0.996264)" xlink:href="#CMR17-49"/>
       <use transform="translate(45.690477 0)scale(0.996264)" xlink:href="#CMMI12-58"/>
       <use transform="translate(72.787654 0)scale(0.996264)" xlink:href="#CMR17-48"/>
      </g>
     </g>
    </g>
   </g>
   <g id="line2d_16">
    <path clip-path="url(#p2deb17a46f)" d="M 108.0837 98.668023 
L 112.104819 98.778199 
L 114.115378 98.939406 
L 115.455751 99.046636 
L 116.125938 99.171734 
L 116.796124 99.171734 
L 117.466311 99.314796 
L 118.136497 99.314796 
L 119.47687 99.655236 
L 120.147057 99.655236 
L 120.817243 99.852835 
L 121.48743 99.852835 
L 122.827803 100.303529 
L 123.497989 100.303529 
L 124.168176 100.556933 
L 124.838362 100.556933 
L 126.178735 101.120556 
L 126.848922 101.120556 
L 128.189295 101.760135 
L 128.859481 101.760135 
L 129.529668 102.108732 
L 130.199854 102.108732 
L 131.540227 102.864592 
L 132.210414 102.864592 
L 133.550786 103.699679 
L 134.220973 103.699679 
L 135.561346 104.615637 
L 136.231532 104.615637 
L 137.571905 105.613328 
L 138.242092 105.613328 
L 139.582465 106.694219 
L 140.252651 106.694219 
L 142.263211 108.473137 
L 142.933397 108.473137 
L 144.27377 109.765669 
L 144.943957 109.765669 
L 147.624703 112.61103 
L 148.294889 112.61103 
L 150.975635 115.809588 
L 151.645822 115.809588 
L 154.326568 119.363647 
L 157.007314 123.274405 
L 157.6775 124.308364 
L 158.347686 124.308364 
L 161.028432 128.66082 
L 161.698619 130.967548 
L 165.049551 137.101748 
L 166.389924 139.700152 
L 167.060111 142.375184 
L 169.07067 146.531697 
L 169.740857 149.392106 
L 171.08123 152.32208 
L 171.751416 155.316545 
L 172.421603 156.838141 
L 173.091789 159.926696 
L 173.761976 161.495772 
L 174.432162 164.664417 
L 175.102349 166.271974 
L 175.772535 169.516182 
L 176.442722 171.159922 
L 177.783095 177.823972 
L 178.453281 179.512129 
L 181.134027 193.278857 
L 181.804214 195.026195 
L 183.814773 205.541567 
L 184.484959 210.810962 
L 187.835892 228.246468 
L 188.506078 233.397824 
L 189.176265 236.794972 
L 189.846451 241.86425 
L 191.186824 248.491341 
L 191.857011 253.379594 
L 192.527197 256.590798 
L 193.86757 265.990019 
L 194.537757 269.056022 
L 195.87813 277.946091 
L 196.548316 280.835926 
L 199.229062 297.172142 
L 199.899249 299.745824 
L 202.579995 314.213965 
L 205.260741 327.192654 
L 207.2713 336.025026 
L 209.281859 344.15477 
L 209.952046 345.863616 
L 212.632792 355.511066 
L 215.313538 364.200576 
L 217.994284 372.019231 
L 218.66447 373.240089 
L 221.345216 380.202379 
L 222.015403 381.84511 
L 222.685589 382.908073 
L 224.696149 387.520347 
L 225.366335 388.508222 
L 226.706708 391.370113 
L 227.376895 392.298265 
L 228.717268 394.998796 
L 229.387454 395.869624 
L 230.727827 398.425441 
L 231.398014 399.243577 
L 232.0682 400.469546 
L 232.738386 401.264479 
L 233.408573 402.444715 
L 234.078759 403.214248 
L 234.748946 404.351478 
L 235.419132 405.096194 
L 236.089319 406.203956 
L 236.759505 406.926391 
L 237.429692 407.993996 
L 238.770065 409.383652 
L 239.440251 410.404221 
L 240.780624 411.742303 
L 241.450811 412.724022 
L 242.791184 414.003164 
L 243.46137 414.945285 
L 245.47193 416.77373 
L 246.142116 417.669918 
L 249.493049 420.541063 
L 250.163235 421.372416 
L 254.854541 425.097794 
L 260.216032 429.057844 
L 262.226592 430.472805 
L 262.896778 430.704495 
L 266.247711 432.974436 
L 266.917897 433.197433 
L 268.928457 434.509639 
L 269.598643 434.725141 
L 271.609203 436.00559 
L 272.279389 436.215637 
L 273.619762 437.048913 
L 274.289949 437.256912 
L 275.630322 438.073304 
L 276.300508 438.275772 
L 276.970695 438.678632 
L 277.640881 438.880367 
L 278.981254 439.67339 
L 279.651441 439.869687 
L 280.321627 440.259621 
L 280.991814 440.45446 
L 281.662 440.842719 
L 282.332186 441.034333 
L 283.672559 441.79439 
L 284.342746 441.982079 
L 285.012932 442.355632 
L 285.683119 442.54173 
L 286.353305 442.913111 
L 287.023492 443.096811 
L 287.693678 443.460546 
L 289.034051 443.822326 
L 289.704238 444.181903 
L 290.374424 444.360731 
L 291.044611 444.714558 
L 291.714797 444.890607 
L 292.384984 445.239655 
L 293.725357 445.586368 
L 294.395543 445.929755 
L 295.735916 446.270779 
L 296.406103 446.607438 
L 297.076289 446.77525 
L 297.746476 447.107966 
L 299.086849 447.438747 
L 299.757035 447.765086 
L 301.767595 448.24876 
L 302.437781 448.567975 
L 303.778154 448.884219 
L 304.448341 449.196499 
L 306.4589 449.660545 
L 307.129086 449.966037 
L 309.809832 450.568345 
L 310.480019 450.864916 
L 313.160765 451.44976 
L 313.830951 451.737593 
L 317.181884 452.446474 
L 317.85207 452.725602 
L 336.617292 456.480467 
L 344.65953 457.892229 
L 345.329716 457.892229 
L 351.361395 458.902617 
L 352.701768 459.012795 
L 356.722886 459.662163 
L 358.063259 459.768949 
L 362.754565 460.399144 
L 366.775684 460.912372 
L 370.796803 461.415851 
L 372.137176 461.515267 
L 376.828481 462.103315 
L 378.168854 462.2001 
L 381.519786 462.58272 
L 382.860159 462.677762 
L 386.211092 463.052816 
L 387.551465 463.145779 
L 390.902397 463.513952 
L 392.24277 463.605458 
L 394.923516 463.877155 
L 396.263889 463.966716 
L 398.944635 464.233568 
L 400.285008 464.322378 
L 402.965754 464.585963 
L 404.306127 464.673003 
L 406.316686 464.846375 
L 407.657059 464.932715 
L 410.337805 465.188948 
L 412.348365 465.273791 
L 415.029111 465.526908 
L 416.369484 465.611201 
L 418.380043 465.777698 
L 419.720416 465.860486 
L 421.730976 466.024982 
L 423.741535 466.106679 
L 426.422281 466.351094 
L 428.432841 466.431615 
L 431.113586 466.672128 
L 433.124146 466.751667 
L 435.134705 466.910361 
L 436.475078 466.989129 
L 438.485638 467.145724 
L 440.496197 467.223543 
L 442.506757 467.378414 
L 444.517316 467.45567 
L 446.527876 467.609958 
L 448.538435 467.686233 
L 450.548995 467.838234 
L 452.559554 467.913597 
L 454.570114 468.063987 
L 456.580673 468.13897 
L 458.591232 468.287771 
L 460.601792 468.361679 
L 462.612351 468.509402 
L 464.622911 468.582786 
L 466.63347 468.728643 
L 469.314216 468.801242 
L 471.324776 468.945434 
L 473.335335 469.017388 
L 475.345895 469.160642 
L 478.026641 469.231905 
L 480.0372 469.373295 
L 482.717946 469.443701 
L 484.728505 469.584263 
L 487.409251 469.654029 
L 489.419811 469.792969 
L 492.100557 469.862306 
L 494.111116 469.999672 
L 496.791862 470.068188 
L 498.802422 470.20453 
L 501.483168 470.272406 
L 502.823541 470.340018 
L 504.8341 470.407333 
L 506.174473 470.474424 
L 508.185032 470.541394 
L 509.525405 470.608012 
L 511.535965 470.674546 
L 512.876338 470.740669 
L 515.557084 470.806763 
L 517.567643 470.938381 
L 520.918576 471.004025 
L 522.929135 471.134568 
L 526.280068 471.199581 
L 528.290627 471.328523 
L 531.641559 471.392642 
L 532.981932 471.456923 
L 535.662678 471.520871 
L 537.003051 471.584359 
L 539.013611 471.647735 
L 540.353984 471.710866 
L 543.03473 471.773854 
L 544.375103 471.836921 
L 547.055849 471.899873 
L 548.396222 471.962415 
L 551.076968 472.024892 
L 552.417341 472.087106 
L 555.098086 472.148992 
L 556.438459 472.210773 
L 559.119205 472.272107 
L 560.459578 472.333305 
L 563.140324 472.394356 
L 564.480697 472.45526 
L 567.83163 472.516081 
L 569.172003 472.577035 
L 571.852749 472.637632 
L 573.193122 472.698101 
L 576.544054 472.758088 
L 577.884427 472.817975 
L 580.565173 472.877573 
L 581.905546 472.93704 
L 585.256478 472.996312 
L 586.596851 473.055427 
L 589.947784 473.114589 
L 591.288157 473.173547 
L 593.968903 473.232328 
L 595.309276 473.290819 
L 598.660208 473.349099 
L 600.000581 473.407121 
L 603.351514 473.465063 
L 604.691886 473.522768 
L 608.713005 473.58037 
L 610.053378 473.637776 
L 613.404311 473.695377 
L 614.744684 473.752555 
L 618.095616 473.809453 
L 619.435989 473.866171 
L 623.457108 473.9227 
L 624.797481 473.979233 
L 628.8186 474.035533 
L 630.158973 474.091565 
L 633.509905 474.147616 
L 634.850278 474.203421 
L 641.552143 474.31431 
L 643.562703 474.369664 
L 649.594381 474.479817 
L 651.604941 474.534634 
L 658.306805 474.643747 
L 660.317365 474.698106 
L 666.349043 474.806286 
L 668.359603 474.860155 
L 675.061468 474.967446 
L 677.072027 475.020965 
L 684.444078 475.127208 
L 686.454638 475.18009 
L 693.156503 475.285596 
L 695.167062 475.337978 
L 702.539114 475.442648 
L 704.549673 475.494596 
L 712.591911 475.5981 
L 714.60247 475.649662 
L 721.974522 475.752176 
L 723.985081 475.803329 
L 732.027319 475.905103 
L 734.037878 475.95569 
L 742.750303 476.057044 
L 744.760862 476.107394 
L 753.473286 476.207472 
L 755.483846 476.257292 
L 764.19627 476.35627 
L 766.20683 476.405567 
L 774.919254 476.50378 
L 776.929814 476.552695 
L 777.6 476.552695 
L 777.6 476.552695 
" style="fill:none;stroke:#000000;stroke-linecap:square;stroke-width:1.5;"/>
   </g>
   <g id="line2d_17">
    <path clip-path="url(#p2deb17a46f)" d="M 108 98.664278 
L 777.6 98.664278 
" style="fill:none;stroke:#000000;stroke-linecap:square;stroke-width:1.5;"/>
   </g>
   <g id="line2d_18">
    <path clip-path="url(#p2deb17a46f)" d="M 108 486.939189 
L 777.6 486.939189 
" style="fill:none;stroke:#000000;stroke-linecap:square;stroke-width:1.5;"/>
   </g>
   <g id="patch_6">
    <path d="M 108 504 
L 108 69.12 
" style="fill:none;stroke:#000000;stroke-linecap:square;stroke-linejoin:miter;stroke-width:0.8;"/>
   </g>
   <g id="patch_7">
    <path d="M 777.6 504 
L 777.6 69.12 
" style="fill:none;stroke:#000000;stroke-linecap:square;stroke-linejoin:miter;stroke-width:0.8;"/>
   </g>
   <g id="patch_8">
    <path d="M 108 504 
L 777.6 504 
" style="fill:none;stroke:#000000;stroke-linecap:square;stroke-linejoin:miter;stroke-width:0.8;"/>
   </g>
   <g id="patch_9">
    <path d="M 108 69.12 
L 777.6 69.12 
" style="fill:none;stroke:#000000;stroke-linecap:square;stroke-linejoin:miter;stroke-width:0.8;"/>
   </g>
   <g id="text_16">
    <!-- $\MPC(m) \equiv c^{\prime}(m)$ -->
    <g transform="translate(233.55 243.072)scale(0.26 -0.26)">
     <defs>
      <path d="M 21.296875 24.921875 
C 24.59375 26.71875 28.296875 29.8125 30.796875 31.90625 
C 36.796875 37.09375 39 38.6875 42.796875 40.1875 
C 42.40625 39.59375 42.296875 38.796875 42.296875 38.09375 
C 42.296875 35.390625 44.59375 34.890625 45.59375 34.890625 
C 48.796875 34.890625 50.59375 37.890625 50.59375 39.796875 
C 50.59375 40.390625 50.40625 43 46.90625 43 
C 40.90625 43 35 37.890625 30.59375 34.1875 
C 24.796875 29.109375 21.90625 26.921875 17.796875 25.625 
L 21.59375 41.484375 
C 21.59375 43.09375 20.296875 44 19 44 
C 18.09375 44 15.90625 43.6875 15.09375 40.484375 
L 5.796875 3.484375 
C 5.5 2.28125 5.5 2.09375 5.5 1.484375 
C 5.5 0.09375 6.59375 -1 8.09375 -1 
C 11.09375 -1 11.703125 1.59375 12.203125 3.6875 
C 12.796875 5.765625 16.90625 22.390625 17.09375 23 
C 29.796875 22.390625 34.09375 19.203125 34.09375 14.328125 
C 34.09375 13.640625 34.09375 13.34375 33.796875 12.234375 
C 33.40625 10.34375 33.40625 9.25 33.40625 8.65625 
C 33.40625 2.6875 37.296875 -1 42.203125 -1 
C 46.296875 -1 48.59375 1.890625 50.09375 4.46875 
C 52.203125 8.359375 53.5 13.828125 53.5 14.234375 
C 53.5 14.734375 53.09375 15.125 52.5 15.125 
C 51.59375 15.125 51.5 14.734375 51.09375 13.140625 
C 49.796875 8.359375 47.59375 1 42.5 1 
C 40.296875 1 39.203125 2.28125 39.203125 5.765625 
C 39.203125 7.65625 39.59375 9.859375 40 11.34375 
C 40.203125 12.34375 40.5 13.53125 40.5 14.625 
C 40.5 23.71875 27.90625 24.625 21.296875 24.921875 
z
" id="CMMI12-20"/>
      <path d="M 30.59375 -24.40625 
C 30.59375 -24.3125 30.59375 -24.109375 30.296875 -23.8125 
C 25.703125 -19.109375 13.40625 -6.296875 13.40625 24.9375 
C 13.40625 56.171875 25.5 68.875 30.40625 73.890625 
C 30.40625 73.984375 30.59375 74.1875 30.59375 74.484375 
C 30.59375 74.796875 30.296875 75 29.90625 75 
C 28.796875 75 20.296875 67.578125 15.40625 56.5625 
C 10.40625 45.453125 9 34.65625 9 25.046875 
C 9 17.828125 9.703125 5.625 15.703125 -7.296875 
C 20.5 -17.703125 28.703125 -25 29.90625 -25 
C 30.40625 -25 30.59375 -24.8125 30.59375 -24.40625 
z
" id="CMR17-40"/>
      <path d="M 20.59375 29.21875 
C 20.796875 29.828125 23.296875 34.8125 27 38 
C 29.59375 40.390625 33 41.984375 36.90625 41.984375 
C 40.90625 41.984375 42.296875 39 42.296875 35.015625 
C 42.296875 34.40625 42.296875 32.421875 41.09375 27.734375 
L 38.59375 17.453125 
C 37.796875 14.453125 35.90625 7.078125 35.703125 5.984375 
C 35.296875 4.484375 34.703125 1.890625 34.703125 1.484375 
C 34.703125 0.09375 35.796875 -1 37.296875 -1 
C 40.296875 -1 40.796875 1.296875 41.703125 4.890625 
L 47.703125 28.71875 
C 47.90625 29.53125 53.09375 41.984375 64.09375 41.984375 
C 68.09375 41.984375 69.5 39 69.5 35.015625 
C 69.5 29.421875 65.59375 18.546875 63.40625 12.5625 
C 62.5 10.171875 62 8.875 62 7.078125 
C 62 2.59375 65.09375 -1 69.90625 -1 
C 79.203125 -1 82.703125 13.65625 82.703125 14.265625 
C 82.703125 14.765625 82.296875 15.15625 81.703125 15.15625 
C 80.796875 15.15625 80.703125 14.859375 80.203125 13.15625 
C 77.90625 5.1875 74.203125 1 70.203125 1 
C 69.203125 1 67.59375 1.09375 67.59375 4.28125 
C 67.59375 6.875 68.796875 10.078125 69.203125 11.171875 
C 71 15.953125 75.5 27.734375 75.5 33.515625 
C 75.5 39.5 72 44 64.40625 44 
C 57.703125 44 52.296875 40.203125 48.296875 34.3125 
C 48 39.703125 44.703125 44 37.203125 44 
C 28.296875 44 23.59375 37.703125 21.796875 35.203125 
C 21.5 40.890625 17.40625 44 13 44 
C 10.09375 44 7.796875 42.59375 5.90625 38.796875 
C 4.09375 35.203125 2.703125 29.125 2.703125 28.71875 
C 2.703125 28.328125 3.09375 27.828125 3.796875 27.828125 
C 4.59375 27.828125 4.703125 27.921875 5.296875 30.21875 
C 6.796875 36.109375 8.703125 41.984375 12.703125 41.984375 
C 15 41.984375 15.796875 40.390625 15.796875 37.40625 
C 15.796875 35.203125 14.796875 31.3125 14.09375 28.234375 
L 11.296875 17.453125 
C 10.90625 15.5625 9.796875 11.0625 9.296875 9.265625 
C 8.59375 6.671875 7.5 1.984375 7.5 1.484375 
C 7.5 0.09375 8.59375 -1 10.09375 -1 
C 11.296875 -1 12.703125 -0.40625 13.5 1.09375 
C 13.703125 1.59375 14.59375 5.078125 15.09375 7.078125 
L 17.296875 16.0625 
z
" id="CMMI12-109"/>
      <path d="M 26.296875 24.9375 
C 26.296875 32.140625 25.59375 44.359375 19.59375 57.265625 
C 14.796875 67.6875 6.59375 75 5.40625 75 
C 5.09375 75 4.703125 74.890625 4.703125 74.390625 
C 4.703125 74.1875 4.796875 74.09375 4.90625 73.890625 
C 9.703125 68.875 21.90625 56.171875 21.90625 25.046875 
C 21.90625 -6.1875 9.796875 -18.90625 4.90625 -23.90625 
C 4.796875 -24.109375 4.703125 -24.203125 4.703125 -24.40625 
C 4.703125 -24.90625 5.09375 -25 5.40625 -25 
C 6.5 -25 15 -17.609375 19.90625 -6.59375 
C 24.90625 4.515625 26.296875 15.328125 26.296875 24.9375 
z
" id="CMR17-41"/>
      <path d="M 68.59375 42 
C 70.296875 42 72.203125 42 72.203125 44 
C 72.203125 46 70.40625 46 68.703125 46 
L 9 46 
C 7.296875 46 5.5 46 5.5 44 
C 5.5 42 7.5 42 9.09375 42 
z
M 68.703125 3.984375 
C 70.40625 3.984375 72.203125 3.984375 72.203125 5.984375 
C 72.203125 8 70.296875 8 68.59375 8 
L 9.09375 8 
C 7.5 8 5.5 8 5.5 5.984375 
C 5.5 3.984375 7.296875 3.984375 9 3.984375 
z
M 68.703125 23 
C 70.40625 23 72.203125 23 72.203125 25 
C 72.203125 27 70.40625 27 68.703125 27 
L 9 27 
C 7.296875 27 5.5 27 5.5 25 
C 5.5 23 7.296875 23 9 23 
z
" id="CMSY10-17"/>
      <path d="M 39.09375 38 
C 37.203125 38 36.296875 38 34.90625 36.796875 
C 34.296875 36.296875 33.203125 34.796875 33.203125 33.1875 
C 33.203125 31.1875 34.703125 29.984375 36.59375 29.984375 
C 39 29.984375 41.703125 31.984375 41.703125 35.984375 
C 41.703125 40.484375 37.09375 44 30.203125 44 
C 17.09375 44 4 30.1875 4 15.796875 
C 4 6.96875 9.40625 -1 19.59375 -1 
C 33.203125 -1 41.796875 9.71875 41.796875 11.03125 
C 41.796875 11.640625 41.203125 12.140625 40.796875 12.140625 
C 40.5 12.140625 40.40625 12.046875 39.5 11.125 
C 33.09375 2.515625 23.59375 1 19.796875 1 
C 12.90625 1 10.703125 7.078125 10.703125 12.140625 
C 10.703125 15.6875 12.40625 25.53125 16 32.390625 
C 18.59375 37.09375 24 41.984375 30.296875 41.984375 
C 31.59375 41.984375 37.09375 41.8125 39.09375 38 
z
" id="CMMI12-99"/>
      <path d="M 25.296875 47.625 
C 25.796875 48.828125 26.203125 49.71875 26.203125 50.71875 
C 26.203125 53.59375 23.59375 56 20.5 56 
C 17.703125 56 15.90625 54.09375 15.203125 51.515625 
L 3.296875 8.078125 
C 3.296875 7.890625 2.90625 6.796875 2.90625 6.6875 
C 2.90625 5.59375 5.5 4.890625 6.296875 4.890625 
C 6.90625 4.890625 7 5.1875 7.59375 6.484375 
z
" id="CMSY10-48"/>
     </defs>
     <use transform="scale(0.996264)" xlink:href="#CMMI12-20"/>
     <use transform="translate(56.154624 0)scale(0.996264)" xlink:href="#CMR17-40"/>
     <use transform="translate(91.435392 0)scale(0.996264)" xlink:href="#CMMI12-109"/>
     <use transform="translate(176.762616 0)scale(0.996264)" xlink:href="#CMR17-41"/>
     <use transform="translate(239.717393 0)scale(0.996264)" xlink:href="#CMSY10-17"/>
     <use transform="translate(344.878869 0)scale(0.996264)" xlink:href="#CMMI12-99"/>
     <use transform="translate(386.862103 36.153639)scale(0.697382)" xlink:href="#CMSY10-48"/>
     <use transform="translate(406.538195 0)scale(0.996264)" xlink:href="#CMR17-40"/>
     <use transform="translate(441.818963 0)scale(0.996264)" xlink:href="#CMMI12-109"/>
     <use transform="translate(527.146188 0)scale(0.996264)" xlink:href="#CMR17-41"/>
    </g>
   </g>
   <g id="text_17">
    <!-- $(1-\UnempPrb^{1/\CRRA}\pmb{\text{\TH}}_{\mathsf{R}})\equiv \overline{\MPC}$ -->
    <g transform="translate(526.5 125.6544)scale(0.26 -0.26)">
     <defs>
      <path d="M 65.90625 23 
C 67.59375 23 69.40625 23 69.40625 25 
C 69.40625 27 67.59375 27 65.90625 27 
L 11.796875 27 
C 10.09375 27 8.296875 27 8.296875 25 
C 8.296875 23 10.09375 23 11.796875 23 
z
" id="CMSY10-0"/>
      <path d="M 16.40625 12.125 
C 22.59375 26.359375 34.296875 38.984375 47.59375 38.984375 
C 52.59375 38.984375 54.796875 34.78125 54.796875 29.265625 
C 54.796875 24.953125 52.796875 15.625 49.59375 9.8125 
C 47.09375 5.296875 42.703125 1 38 1 
C 36 1 31.40625 1.890625 31.40625 7.40625 
C 32.796875 7.703125 33.40625 8.71875 33.40625 9.609375 
C 33.40625 10.71875 32.59375 11.3125 31.703125 11.3125 
C 29.203125 11.3125 29.203125 8.21875 29.203125 7.203125 
C 29.203125 1.6875 33.5 -1 38 -1 
C 49 -1 60.5 12.515625 60.5 26.15625 
C 60.5 33.671875 56.296875 41 47.796875 41 
C 41.703125 41 34.90625 38.6875 27.90625 32.171875 
C 24.09375 28.765625 19.90625 23.859375 14.90625 14.125 
C 12.5 16.828125 12.5 20.046875 12.5 21.453125 
C 12.5 28.96875 17.296875 41.78125 24.203125 42.984375 
C 24.796875 43.09375 25.40625 43.1875 25.40625 44.1875 
C 25.40625 44.296875 25.40625 45 24.296875 45 
C 17.203125 45 8.203125 31.46875 8.203125 18.640625 
C 8.203125 13.421875 9.296875 11.921875 12.40625 7.8125 
C 8.90625 -2.234375 7.5 -10.96875 7.5 -14.15625 
C 7.5 -18.359375 9.09375 -22 13.796875 -22 
C 20.40625 -22 26.796875 -13.234375 26.796875 -5.328125 
C 26.796875 -1.625 25.90625 -0.40625 22.5 4.203125 
C 21.09375 5.90625 17.703125 10.3125 16.40625 12.125 
z
M 13.90625 5.703125 
L 21.203125 -3.875 
C 22.296875 -5.53125 22.40625 -6.765625 22.40625 -8.203125 
C 22.40625 -14.15625 18 -20 13.796875 -20 
C 11 -20 9.703125 -17.953125 9.703125 -14.046875 
C 9.703125 -9.328125 12.5 1.6875 13.90625 5.703125 
z
" id="CMMI12-125"/>
      <path d="M 42.90625 71.296875 
C 42.90625 71.390625 43.5 72.890625 43.5 73.09375 
C 43.5 74.296875 42.5 75 41.703125 75 
C 41.203125 75 40.296875 75 39.5 72.796875 
L 6 -21.3125 
C 6 -21.40625 5.40625 -22.90625 5.40625 -23.109375 
C 5.40625 -24.3125 6.40625 -25 7.203125 -25 
C 7.796875 -25 8.703125 -24.90625 9.40625 -22.8125 
z
" id="CMMI12-61"/>
      <path d="M 3.09375 -16.953125 
C 3 -17.4375 2.796875 -18.03125 2.796875 -18.609375 
C 2.796875 -20.109375 4 -21.109375 5.5 -21.109375 
C 7 -21.109375 8.40625 -20.109375 9 -18.71875 
C 9.40625 -17.828125 12.203125 -6.09375 15.40625 6.078125 
C 17.40625 1.09375 21.09375 -1 25 -1 
C 36.296875 -1 49.09375 12.96875 49.09375 28.03125 
C 49.09375 38.703125 42.59375 44 35.703125 44 
C 26.90625 44 16.203125 34.90625 12.90625 21.640625 
z
M 24.90625 1 
C 18.09375 1 16.40625 8.875 16.40625 10.078125 
C 16.40625 10.671875 18.90625 20.140625 19.203125 21.640625 
C 24.296875 41.5 34.09375 41.984375 35.59375 41.984375 
C 40.09375 41.984375 42.59375 37.90625 42.59375 32.015625 
C 42.59375 26.9375 39.90625 17.046875 38.203125 12.859375 
C 35.203125 5.984375 30 1 24.90625 1 
z
" id="CMMI12-26"/>
      <path d="M 7.40625 68 
L 7.40625 65.796875 
L 9.09375 65.796875 
C 11.703125 65.796875 13.796875 65.5 13.796875 61.734375 
L 13.796875 6.390625 
C 13.796875 2.5 12.09375 2.1875 7.40625 2.1875 
L 7.40625 0 
L 24.90625 0 
L 24.90625 2.1875 
L 22.90625 2.1875 
C 20.59375 2.1875 18.5 2.5 18.5 5.6875 
L 18.5 17.796875 
L 34 17.796875 
C 43.703125 18.6875 50.796875 26.90625 50.796875 36.34375 
C 50.796875 44.875 44.703125 53.296875 35.40625 54.6875 
C 33.796875 55 32.203125 55 30.59375 55 
L 18.5 55 
L 18.5 61.9375 
C 18.5 64.640625 18.90625 65.796875 24.90625 65.796875 
L 24.90625 68 
z
M 18.5 20 
L 18.5 52.796875 
L 27.90625 52.796875 
C 32.703125 52.796875 37.40625 52.390625 41 48.078125 
C 43.796875 44.875 45.296875 40.5625 45.296875 36.34375 
C 45.296875 29.21875 40.40625 21.09375 31.296875 20 
z
" id="Computer_Modern_Roman-222"/>
      <path d="M 39.40625 32.796875 
L 39.59375 32.890625 
C 55.203125 38.28125 55.296875 48.828125 55.296875 50.6875 
C 55.296875 59.96875 45.703125 69 31.296875 69 
L 8.90625 69 
L 8.90625 0 
L 17.09375 0 
L 17.09375 31.890625 
L 31.796875 31.890625 
L 49.5 0 
L 57.90625 0 
z
M 17.09375 38 
L 17.09375 63.390625 
L 30.203125 63.390625 
C 42.90625 63.390625 47.40625 56.359375 47.40625 50.6875 
C 47.40625 45.421875 43.40625 38 30.203125 38 
z
" id="CMSS17-82"/>
     </defs>
     <use transform="scale(0.996264)" xlink:href="#CMR17-40"/>
     <use transform="translate(35.280768 0)scale(0.996264)" xlink:href="#CMR17-49"/>
     <use transform="translate(103.110452 0)scale(0.996264)" xlink:href="#CMSY10-0"/>
     <use transform="translate(202.737127 0)scale(0.996264)" xlink:href="#CMMI12-125"/>
     <use transform="translate(264.841622 36.153639)scale(0.697382)" xlink:href="#CMR17-49"/>
     <use transform="translate(296.824804 36.153639)scale(0.697382)" xlink:href="#CMMI12-61"/>
     <use transform="translate(330.967095 36.153639)scale(0.697382)" xlink:href="#CMMI12-26"/>
     <use transform="translate(362.257288 0)scale(0.996264)" xlink:href="#Computer_Modern_Roman-222"/>
     <use transform="translate(364.47117 2.767393)scale(0.996264)" xlink:href="#Computer_Modern_Roman-222"/>
     <use transform="translate(366.685051 0)scale(0.996264)" xlink:href="#Computer_Modern_Roman-222"/>
     <use transform="translate(422.394734 -14.943915)scale(0.697382)" xlink:href="#CMSS17-82"/>
     <use transform="translate(465.183981 0)scale(0.996264)" xlink:href="#CMR17-41"/>
     <use transform="translate(528.138758 0)scale(0.996264)" xlink:href="#CMSY10-17"/>
     <use transform="translate(633.300234 0)scale(0.996264)" xlink:href="#CMMI12-20"/>
     <path d="M 633.300234 54.849612 
L 689.454858 54.849612 
L 689.454858 58.834561 
L 633.300234 58.834561 
L 633.300234 54.849612 
z
"/>
    </g>
   </g>
   <g id="text_18">
    <!-- $\underline{\kappa}\equiv(1-\pmb{\text{\TH}}_{\mathsf{R}})$ -->
    <g transform="translate(149.85 473.5584)scale(0.26 -0.26)">
     <use transform="scale(0.996264)" xlink:href="#CMMI12-20"/>
     <use transform="translate(83.828633 0)scale(0.996264)" xlink:href="#CMSY10-17"/>
     <use transform="translate(188.990109 0)scale(0.996264)" xlink:href="#CMR17-40"/>
     <use transform="translate(224.270877 0)scale(0.996264)" xlink:href="#CMR17-49"/>
     <use transform="translate(292.100561 0)scale(0.996264)" xlink:href="#CMSY10-0"/>
     <use transform="translate(387.299382 0)scale(0.996264)" xlink:href="#Computer_Modern_Roman-222"/>
     <use transform="translate(389.513263 2.767393)scale(0.996264)" xlink:href="#Computer_Modern_Roman-222"/>
     <use transform="translate(391.727144 0)scale(0.996264)" xlink:href="#Computer_Modern_Roman-222"/>
     <use transform="translate(447.436827 -14.943915)scale(0.697382)" xlink:href="#CMSS17-82"/>
     <use transform="translate(490.226075 0)scale(0.996264)" xlink:href="#CMR17-41"/>
     <path d="M 0 -15.939799 
L 56.154624 -15.939799 
L 56.154624 -11.954849 
L 0 -11.954849 
L 0 -15.939799 
z
"/>
    </g>
   </g>
   <g id="text_19">
    <!-- $m$ -->
    <g transform="translate(781.785 504)scale(0.26 -0.26)">
     <use transform="scale(0.996264)" xlink:href="#CMMI12-109"/>
    </g>
   </g>
  </g>
 </g>
 <defs>
  <clipPath id="p2deb17a46f">
   <rect height="434.88" width="669.6" x="108" y="69.12"/>
  </clipPath>
 </defs>
</svg>
